<?xml version="1.0" standalone="no"?> <!DOCTYPE svg PUBLIC "-//W3C//DTD SVG 1.0//EN" "http://www.w3.org/TR/2001/REC-SVG-20010904/DTD/svg10.dtd" > <svg xmlns="http://www.w3.org/2000/svg" width="100%" height="100%">
<defs >
<font id="VWAGTheAntiqua-Regular" horiz-adv-x="575" ><font-face
    font-family="VWAG TheAntiqua"
    units-per-em="1000"
    panose-1="2 10 5 3 7 3 2 2 2 4"
    ascent="980"
    descent="-320"
    alphabetic="0" />
<missing-glyph horiz-adv-x="550" d="M150 150V400H200V200H300V150H150ZM50 50V500H500V50H50ZM250 350V400H400V150H350V250H250V300H350V350H250ZM450 100V450H100V100H450Z" />
<glyph unicode="&#xd;" glyph-name="CR" horiz-adv-x="500" />
<glyph unicode=" " glyph-name="space" horiz-adv-x="218" />
<glyph unicode="!" glyph-name="exclam" horiz-adv-x="307" d="M172 178H136L102 734H205L172 178ZM212 50Q212 25 195 9T153 -8Q128 -8 112 8T95 50Q95 75 111 91T153 108Q178 108 195 92T212 50Z" />
<glyph unicode="&quot;" glyph-name="quotedbl" horiz-adv-x="347" d="M267 517H237L213 735H291L267 517ZM110 517H80L56 735H135L110 517Z" />
<glyph unicode="#" glyph-name="numbersign" horiz-adv-x="679" d="M499 464L473 234H620V200H470L449 0H381L403 200H245L224 0H156L178 200H31V234H181L206 464H58V498H209L228 675H296L277 498H434L453 675H521L502 498H647V464H499ZM274 464L248 234H406L431
464H274Z" />
<glyph unicode="$" glyph-name="dollar" horiz-adv-x="493" d="M441 172Q441 135 427 106T388 54T329 17T255 -1V-122H218V-2Q180 -2 141 1T68 12V185H100L141 45Q151 41 161 39T182 36T204 34T227 33Q292 33 324 62T356 145Q356 183 336 209T288 252T210 292T129
336T78 390T57 473Q57 505 69 532T106 580T162 612T235 628V745H272V629Q306 628 339 625T401 615V463H369L330 585Q315 589 296 592T257 595Q197 595 168 568T139 496Q139 459 159 434T207 392T286 352T368 307T420 253T441 172Z" />
<glyph unicode="%" glyph-name="percent" horiz-adv-x="795" d="M195 328Q162 328 136 338T90 370T61 425T50 503Q50 549 62 583T95 639T144 671T204 682Q236 682 262 672T308 640T337 585T348 507Q348 461 336 427T303 371T255 339T195 328ZM198 649Q158 649
139 616T119 505Q119 428 138 395T199 361Q239 361 259 394T279 505Q279 582 259 615T198 649ZM593 -7Q560 -7 534 3T488 35T459 90T448 168Q448 214 460 248T493 304T542 336T602 347Q634 347 660 337T706 305T735 250T746 172Q746 126 734 92T701 36T653 4T593
-7ZM596 314Q556 314 537 281T517 170Q517 93 536 60T597 26Q637 26 657 59T677 170Q677 247 657 280T596 314ZM152 -22L119 2L646 698L679 674L152 -22Z" />
<glyph unicode="&amp;" glyph-name="ampersand" horiz-adv-x="793" d="M451 605Q451 575 439 549T405 501T364 463T295 412Q336 364 396 306T542 174Q571 221 583 279T585 405L519 419V445H719V419L658 405Q655 330 634 265T575 147Q599 125 618 110T696 45L746
27V0H607Q589 16 561 39T513 80Q465 37 407 14T288 -9Q231 -9 187 3T113 40T68 99T53 178Q53 213 64 242T96 295T139 338T197 382Q171 414 152 442T121 495T104 543T98 588Q98 620 110 648T146 696T204 727T283 738Q326 738 358 728T411 699T441 657T451 605ZM481
106Q394 182 331 243T225 354Q187 319 166 282T145 199Q145 159 157 128T190 75T239 43T302 32Q349 32 396 51T481 106ZM186 609Q186 591 190 572T205 532T232 487T272 435Q293 452 309 469T338 507T358 550T365 601Q365 625 360 643T343 675T315 696T274 703Q251
703 235 697T208 679T192 649T186 609Z" />
<glyph unicode="&apos;" glyph-name="quotesingle" horiz-adv-x="191" d="M110 517H80L56 735H135L110 517Z" />
<glyph unicode="(" glyph-name="parenleft" horiz-adv-x="307" d="M259 -213Q205 -149 168 -84T110 44T79 166T69 283Q69 339 78 399T110 523T169 654T259 784L285 767Q249 705 224 642T184 518T163 401T157 289Q157 233 163 176T183 56T223 -70T285 -196L259 -213Z" />
<glyph unicode=")" glyph-name="parenright" horiz-adv-x="307" d="M238 288Q238 232 229 172T197 48T139 -83T49 -213L22 -196Q59 -134 84 -71T124 53T144 170T150 282Q150 338 145 395T124 515T84 641T22 767L49 784Q102 720 139 655T197 527T228 405T238 288Z" />
<glyph unicode="*" glyph-name="asterisk" horiz-adv-x="368" d="M292 490L190 571L208 442H152L171 571L68 490L41 538L163 586L41 635L69 683L171 603L153 732H209L191 603L293 683L320 635L199 587L320 539L292 490Z" />
<glyph unicode="+" glyph-name="plus" horiz-adv-x="550" d="M303 267V43H247V267H34V317H247V539H303V317H516V267H303Z" />
<glyph unicode="," glyph-name="comma" horiz-adv-x="222" d="M107 108Q133 108 150 88T168 35Q168 15 161 -6T139 -51T100 -97T45 -141L26 -121Q59 -96 75 -75T92 -33Q92 -20 87 -12T72 9T57 31T52 55Q52 66 55 75T66 91T83 103T107 108Z" />
<glyph unicode="-" glyph-name="hyphen" horiz-adv-x="317" d="M43 266V318H272V266H43Z" />
<glyph unicode="." glyph-name="period" horiz-adv-x="224" d="M171 51Q171 38 167 28T155 9T135 -4T112 -8Q99 -8 89 -4T70 8T57 27T53 51Q53 63 57 74T69 93T88 106T112 110Q124 110 135 106T154 94T167 74T171 51Z" />
<glyph unicode="/" glyph-name="slash" horiz-adv-x="430" d="M113 -12L62 7L329 687L379 669L113 -12Z" />
<glyph unicode="0" glyph-name="zero" horiz-adv-x="550" d="M513 348Q513 262 493 195T437 83T356 14T258 -9Q207 -9 166 11T97 72T53 179T37 334Q37 417 56 482T110 593T191 661T291 684Q343 684 384 664T453 602T497 497T513 348ZM422 358Q422 433 413 488T386
578T342 629T283 646Q246 646 217 630T168 578T138 481T128 333Q128 250 138 192T168 97T212 45T268 28Q306 28 334 43T382 96T412 198T422 358Z" />
<glyph unicode="1" glyph-name="one" horiz-adv-x="550" d="M89 0V27L247 40V613L94 545L84 574L279 680H337V40L479 27V0H89Z" />
<glyph unicode="2" glyph-name="two" horiz-adv-x="550" d="M494 0H44V49L243 262Q278 299 302 331T340 394T362 456T369 521Q369 588 338 618T244 649Q217 649 195 645T150 632L106 504H75L81 648Q100 655 122 662T169 674T218 681T263 684Q362 684 412 641T463
523Q463 494 454 466T424 405T372 334T291 247L124 74V73H442L474 162H502L494 0Z" />
<glyph unicode="3" glyph-name="three" horiz-adv-x="550" d="M219 26Q261 26 294 36T349 66T382 118T394 191Q394 230 378 258T328 304T243 328T122 329V365Q181 365 226 376T302 408T348 458T364 524Q364 586 332 618T235 650Q210 650 193 647T157 639L113 507H82L87
657Q130 670 168 677T249 684Q351 684 403 645T456 533Q456 504 444 478T410 429T356 391T286 367V366Q332 363 369 352T433 320T474 269T489 202Q489 157 470 119T414 51T325 7T212 -9Q174 -9 137 -3T65 14V169H96L135 41Q153 33 171 30T219 26Z" />
<glyph unicode="4" glyph-name="four" horiz-adv-x="550" d="M410 168V40L487 27V0H243V27L322 40V168H30L21 222L312 675H410V228H525V168H410ZM325 629H324L64 228H322L325 629Z" />
<glyph unicode="5" glyph-name="five" horiz-adv-x="550" d="M214 26Q250 26 281 36T336 68T374 123T388 201Q388 238 380 268T352 318T302 350T226 362Q177 362 146 359T99 352L96 355L125 675H162H387L416 754H445L438 602H158L139 390Q159 396 189 400T254
404Q370 404 424 357T479 217Q479 166 457 125T399 54T314 8T213 -9Q167 -9 129 -2T67 14V169H98L137 41Q150 35 168 31T214 26Z" />
<glyph unicode="6" glyph-name="six" horiz-adv-x="550" d="M517 215Q517 167 501 126T453 54T377 8T278 -9Q169 -9 110 64T50 286Q50 388 74 464T142 588T249 660T390 684Q403 684 421 684T448 681V624Q432 629 398 634T330 639Q291 639 261 627T206 585T166
503T141 373Q139 361 137 343T133 314H134Q154 366 197 395T306 424Q354 424 393 410T460 370T502 304T517 215ZM428 205Q428 250 420 284T394 342T351 377T289 389Q221 389 182 344T142 215Q142 169 153 134T184 74T230 37T289 24Q362 24 395 66T428 205Z" />
<glyph unicode="7" glyph-name="seven" horiz-adv-x="550" d="M507 617Q429 471 361 313T243 0H149Q182 83 218 162T293 316T373 461T457 602H110L83 514H53L61 675H507V617Z" />
<glyph unicode="8" glyph-name="eight" horiz-adv-x="550" d="M485 543Q485 513 473 490T439 447T394 412T329 374Q365 353 394 333T448 287T487 230T501 163Q501 128 484 96T435 41T360 4T268 -9Q217 -9 177 1T108 30T64 78T49 143Q49 179 63 208T101 260T152
301T224 345Q191 361 163 380T113 421T78 468T65 521Q65 559 82 589T129 641T198 673T284 684Q330 684 367 675T431 647T471 602T485 543ZM416 143Q416 174 406 200T374 247T325 286T257 326Q230 309 210 292T172 252T146 204T137 147Q137 117 145 95T170 57T212
33T273 25Q307 25 333 33T378 56T406 94T416 143ZM149 542Q149 518 159 499T187 461T232 428T298 390Q320 406 338 421T369 454T390 494T398 540Q398 593 368 622T278 651Q221 651 185 624T149 542Z" />
<glyph unicode="9" glyph-name="nine" horiz-adv-x="550" d="M497 388Q497 284 475 209T408 85T302 14T160 -9Q129 -9 107 -7T69 -2V60Q90 51 128 44T204 36Q247 36 279 48T338 90T381 172T406 302Q407 315 410 332T415 361H414Q394 309 351 280T241 251Q193 251
154 265T87 306T45 373T30 460Q30 508 47 549T95 621T170 667T270 684Q323 684 365 667T436 613T481 520T497 388ZM405 460Q405 505 394 541T363 601T317 638T258 651Q185 651 152 608T119 470Q119 425 127 391T152 333T196 298T258 286Q291 286 318 297T365 331T394
385T405 460Z" />
<glyph unicode=":" glyph-name="colon" horiz-adv-x="288" d="M219 347Q219 335 215 324T202 305T182 293T159 288Q147 288 136 292T117 305T105 324T100 347Q100 359 104 370T117 389T136 402T159 407Q171 407 182 403T201 390T214 370T219 347ZM219 51Q219 39
215 28T202 9T182 -4T159 -8Q147 -8 136 -4T117 8T105 28T100 51Q100 63 104 74T117 93T136 106T159 110Q171 110 182 106T201 94T214 74T219 51Z" />
<glyph unicode=";" glyph-name="semicolon" horiz-adv-x="281" d="M215 347Q215 335 211 324T198 305T179 293T156 288Q144 288 133 292T114 305T101 324T96 347Q96 359 100 370T113 389T133 402T156 407Q168 407 179 403T198 390T210 370T215 347ZM153 108Q179
108 196 88T214 35Q214 15 207 -6T185 -51T146 -97T91 -141L73 -121Q105 -96 121 -75T138 -33Q138 -20 133 -12T118 9T103 31T98 55Q98 66 101 75T112 91T129 103T153 108Z" />
<glyph unicode="&lt;" glyph-name="less" horiz-adv-x="550" d="M442 57L403 16L100 292L403 575L441 538L178 293L442 57Z" />
<glyph unicode="=" glyph-name="equal" horiz-adv-x="550" d="M54 361V412H496V361H54ZM54 172V223H496V172H54Z" />
<glyph unicode="&gt;" glyph-name="greater" horiz-adv-x="550" d="M108 534L147 575L450 299L147 16L109 53L372 298L108 534Z" />
<glyph unicode="?" glyph-name="question" horiz-adv-x="418" d="M355 539Q355 507 341 483T305 438T256 391T214 337T197 270T213 178H140Q124 223 126 257T143 317T179 364T225 413T262 465T275 525Q275 552 261 576T221 618T160 649T84 664L95 738Q153 735
201 717T283 672T336 610T355 539ZM239 50Q239 25 223 9T181 -8Q156 -8 139 8T122 50Q122 75 139 91T181 108Q206 108 222 92T239 50Z" />
<glyph unicode="@" glyph-name="at" horiz-adv-x="1000" d="M920 399Q920 332 898 277T839 182T756 120T658 97Q593 97 570 127T557 218L555 219Q543 196 529 174T495 135T454 108T404 97Q353 97 324 129T295 227Q295 282 309 333T354 424T431 488T544 512Q560
512 576 512T610 510T643 507T675 502L635 283Q627 237 624 207T623 160T638 136T672 129Q708 129 740 146T795 196T832 276T845 383Q845 447 832 502T786 599T694 664T545 687Q459 687 387 654T262 563T180 425T151 252Q151 176 169 112T228 1T330 -73T481 -100Q533
-100 589 -91T693 -64V-94Q641 -113 580 -124T465 -135Q370 -135 297 -109T174 -35T98 81T72 237Q72 343 111 432T217 585T371 684T554 720Q646 720 715 696T829 628T897 527T920 399ZM592 468Q579 473 563 476T529 480Q488 480 460 454T413 391T386 311T378 236Q378
175 391 153T427 130Q446 130 467 144T508 188T545 261T573 366L592 468Z" />
<glyph unicode="A" glyph-name="A" horiz-adv-x="664" d="M420 0V27L506 40L453 183H172L124 40L210 27V0H12V27L64 40L303 682H362L600 40L652 27V0H420ZM307 586H306L183 219H441L307 586Z" />
<glyph unicode="B" glyph-name="B" horiz-adv-x="602" d="M38 27L115 40V635L38 648V675H117Q209 677 295 679Q415 679 470 638T526 512Q526 483 517 459T490 414T444 379T380 358V357Q419 354 452 342T510 309T548 257T562 190Q562 149 546 114T495 53T409 12T290
-3Q220 -2 117 0H38V27ZM205 366L292 365Q327 365 354 374T399 402T425 445T434 505Q434 536 428 561T404 606T357 635T285 645Q256 645 240 644T205 640V366ZM205 40Q212 39 223 38T248 35T274 33T298 32Q343 32 375 41T428 68T459 114T469 182Q469 217 458 245T424
292T368 320T288 330H205V40Z" />
<glyph unicode="C" glyph-name="C" horiz-adv-x="604" d="M555 46Q512 21 461 6T355 -9Q282 -9 224 13T125 77T63 183T42 329Q42 419 68 486T140 598T247 663T376 684Q422 684 461 679T538 662V505H507L468 629Q448 637 421 641T364 645Q307 645 266 626T197 569T156
474T142 339Q142 267 156 210T200 114T272 55T373 34Q420 34 467 46T555 83V46Z" />
<glyph unicode="D" glyph-name="D" horiz-adv-x="722" d="M681 343Q681 258 655 193T580 84T463 19T309 -3Q190 -2 117 0H38V27L115 40V635L38 648V675H117Q213 677 322 679Q413 679 480 658T591 595T658 491T681 343ZM587 338Q587 410 570 466T518 563T433 624T316
645Q279 645 255 644T205 639V41Q227 37 256 35T322 32Q385 32 434 50T517 105T569 201T587 338Z" />
<glyph unicode="E" glyph-name="E" horiz-adv-x="538" d="M38 0V27L115 40V635L38 648V675H466V531H435L398 640L205 642V365H362L391 447H419V249H391L362 330H205V34L400 36L437 151H468V0H38Z" />
<glyph unicode="F" glyph-name="F" horiz-adv-x="507" d="M429 531L392 640L205 642V359H360L389 441H418V242H389L360 324H205V40L286 27V0H38V27L115 40V635L38 648V675H460V531H429Z" />
<glyph unicode="G" glyph-name="G" horiz-adv-x="706" d="M671 311L608 299V49Q554 22 489 7T356 -9Q283 -9 225 12T126 76T64 182T42 329Q42 419 68 487T143 599T254 663T392 684Q422 684 449 682T501 677T547 669T595 658V503H564L525 623Q495 634 461 640T377
646Q320 646 276 628T203 571T158 475T142 339Q142 192 199 112T366 31Q407 31 447 38T519 58V299L442 311V339H671V311Z" />
<glyph unicode="H" glyph-name="H" horiz-adv-x="771" d="M493 0V27L566 40V331H205V40L278 27V0H38V27L115 40V635L38 648V675H278V648L205 635V370H566V635L493 648V675H733V648L656 635V40L733 27V0H493Z" />
<glyph unicode="I" glyph-name="I" horiz-adv-x="320" d="M38 0V27L115 40V635L38 648V675H281V648L205 635V40L281 27V0H38Z" />
<glyph unicode="J" glyph-name="J" horiz-adv-x="303" d="M198 635V90Q198 42 188 8T158 -52T108 -97T39 -134L22 -109Q46 -95 62 -81T88 -44T103 10T108 92V635L33 648V675H262V648L198 635Z" />
<glyph unicode="K" glyph-name="K" horiz-adv-x="661" d="M406 0V27L481 40L205 338V40L276 27V0H38V27L115 40V635L38 648V675H274V648L205 635V352L487 635L413 648V675H621V648L560 635L283 380L601 40L652 27V0H406Z" />
<glyph unicode="L" glyph-name="L" horiz-adv-x="507" d="M38 0V27L115 40V635L38 648V675H281V648L205 635V34L409 36L447 162H478V0H38Z" />
<glyph unicode="M" glyph-name="M" horiz-adv-x="921" d="M667 0V27L744 40L684 576H683L459 0H417L194 577H193L149 40L220 27V0H31V27L86 40L156 635L78 648V675H249L464 132L675 675H843V648L765 635L840 40L893 27V0H667Z" />
<glyph unicode="N" glyph-name="N" horiz-adv-x="719" d="M557 -7L157 576H156L178 40L256 27V0H38V27L117 40L118 635L38 648V675H201L568 141H569L551 635L477 648V675H672V648L609 635V-7H557Z" />
<glyph unicode="O" glyph-name="O" horiz-adv-x="733" d="M692 347Q692 257 666 189T592 77T485 12T355 -9Q282 -9 225 12T126 76T63 182T41 328Q41 418 68 486T142 598T249 663T378 684Q451 684 509 663T608 599T670 493T692 347ZM593 334Q593 484 534 565T364
647Q314 647 273 628T202 571T156 474T140 339Q140 191 199 110T369 28Q420 28 461 47T531 104T577 200T593 334Z" />
<glyph unicode="P" glyph-name="P" horiz-adv-x="581" d="M543 476Q543 419 526 376T475 305T396 263T289 249Q242 249 205 255V40L285 27V0H38V27L115 40V635L38 648V675H103Q114 675 130 675T182 677T246 678T298 679Q423 679 483 628T543 476ZM452 470Q452
558 412 601T287 645Q263 645 242 643T205 638V296Q241 285 295 285Q377 285 414 331T452 470Z" />
<glyph unicode="Q" glyph-name="Q" horiz-adv-x="733" d="M692 346Q692 278 676 221T629 121T557 51T465 10Q517 14 561 3T641 -27T716 -64T780 -83Q789 -83 798 -82T814 -78V-106Q792 -117 765 -124T713 -132Q682 -132 654 -124T604 -105T546 -72T484 -38T425
-17T356 -9Q283 -9 225 12T126 76T63 182T41 329Q41 419 68 486T142 598T249 663T377 684Q451 684 509 663T608 599T670 493T692 346ZM595 334Q595 482 535 564T364 647Q314 647 273 628T201 571T155 474T139 339Q139 192 198 110T369 28Q420 28 461 47T532 104T578
200T595 334Z" />
<glyph unicode="R" glyph-name="R" horiz-adv-x="612" d="M608 4Q585 -11 547 -11Q528 -11 512 -8T483 5T458 29T438 70Q414 132 398 178T364 255T325 301T270 316H205V40L276 27V0H38V27L115 40V635L38 648V675H108Q118 675 137 675T183 677T239 678T299 679Q416
679 473 637T531 514Q531 479 518 449T482 397T427 360T356 339Q393 336 421 314T466 255Q482 222 496 183T524 109T556 51T593 28Q602 28 608 29V4ZM439 506Q439 546 430 573T401 615T354 638T287 645Q263 645 240 643T205 640V353H287Q329 353 358 364T405 395T431
443T439 506Z" />
<glyph unicode="S" glyph-name="S" horiz-adv-x="511" d="M456 182Q456 142 440 107T393 46T319 6T223 -9Q183 -9 140 -4T61 9V185H92L131 48Q143 43 153 40T176 34T204 30T238 29Q301 29 336 61T372 154Q372 197 350 225T297 273T214 316T129 364T74 424T52 512Q52
549 67 580T110 635T181 671T275 684Q311 684 347 680T415 669V513H383L345 634Q329 640 308 643T264 647Q199 647 168 621T136 536Q136 495 157 467T210 421T294 377T380 328T434 269T456 182Z" />
<glyph unicode="T" glyph-name="T" horiz-adv-x="562" d="M513 503L475 640L326 643V40L411 27V0H151V27L236 40V643L87 640L49 503H18V675H544V503H513Z" />
<glyph unicode="U" glyph-name="U" horiz-adv-x="697" d="M671 648L616 635Q614 586 613 529T610 417T608 317T607 244Q607 189 593 142T549 62T474 10T366 -9Q289 -9 239 11T157 64T113 143T100 241V635L38 648V675H265V648L189 635V247Q189 202 198 163T230
94T287 48T377 31Q425 31 459 46T516 89T549 155T560 241Q560 271 560 318T558 420T556 530T553 635L490 648V675H671V648Z" />
<glyph unicode="V" glyph-name="V" horiz-adv-x="662" d="M650 648L599 635L360 -7H300L64 635L12 648V675H244V648L158 635L356 90H357L539 635L454 648V675H650V648Z" />
<glyph unicode="W" glyph-name="W" horiz-adv-x="927" d="M918 648L867 635L693 -7H629L457 550H456L312 -7H241L62 635L12 648V675H237V648L155 635L299 106H300L445 678H509L685 106H686L807 635L724 648V675H918V648Z" />
<glyph unicode="X" glyph-name="X" horiz-adv-x="661" d="M400 0V27L484 40L308 307L130 40L220 27V0H14V27L63 40L285 338L83 635L30 648V675H279V648L192 635L354 390L516 635L428 648V675H631V648L583 635L378 360L594 40L647 27V0H400Z" />
<glyph unicode="Y" glyph-name="Y" horiz-adv-x="585" d="M425 0H165V27L250 40V285L50 635L9 648V675H231V648L148 635L320 323H321L471 635L391 648V675H575V648L531 635L340 285V40L425 27V0Z" />
<glyph unicode="Z" glyph-name="Z" horiz-adv-x="547" d="M41 0V31L409 642L126 640L83 515H52L57 675H506V644L138 34L443 36L482 163H514V0H41Z" />
<glyph unicode="[" glyph-name="bracketleft" horiz-adv-x="324" d="M86 -196V769H288V741L166 729V-156L288 -169V-196H86Z" />
<glyph unicode="\" glyph-name="backslash" horiz-adv-x="416" d="M310 -12L44 669L93 687L360 7L310 -12Z" />
<glyph unicode="]" glyph-name="bracketright" horiz-adv-x="324" d="M36 -196V-169L158 -156V729L36 741V769H238V-196H36Z" />
<glyph unicode="^" glyph-name="asciicircum" horiz-adv-x="550" d="M426 348L271 622L122 348L76 373L242 675H302L476 374L426 348Z" />
<glyph unicode="_" glyph-name="underscore" horiz-adv-x="550" d="M0 -252V-200H550V-252H0Z" />
<glyph unicode="`" glyph-name="grave" horiz-adv-x="351" d="M250 577L79 699L137 763L268 598L250 577Z" />
<glyph unicode="a" glyph-name="a" horiz-adv-x="504" d="M475 3L323 -3Q323 25 324 50T328 96L326 97Q319 76 305 57T271 22T230 -1T183 -9Q113 -9 78 24T42 121Q42 158 59 187T110 237T197 268T319 279V353Q319 388 314 409T298 444T266 465T215 472Q193 472
172 467T139 455L106 351H76V475Q113 491 152 498T229 506Q276 506 309 498T363 473T396 426T407 356V40L475 30V3ZM319 247Q267 248 231 241T174 220T142 183T132 126Q132 77 150 54T207 30Q229 30 249 42T285 76T310 126T319 178V247Z" />
<glyph unicode="b" glyph-name="b" horiz-adv-x="571" d="M526 257Q526 190 508 140T458 56T383 7T291 -9Q251 -9 218 2T153 35L119 -2H87V692L13 701V728L175 738V491Q175 463 174 437T169 393L171 392Q180 417 195 437T231 474T278 498T332 506Q428 506 477
442T526 257ZM435 252Q435 355 403 410T310 466Q281 466 257 453T214 417T185 362T175 294V67Q197 48 226 37T292 26Q326 26 352 41T397 86T425 157T435 252Z" />
<glyph unicode="c" glyph-name="c" horiz-adv-x="459" d="M292 34Q325 34 357 42T425 66V33Q393 15 352 4T268 -8Q220 -8 180 6T110 50T62 130T45 246Q45 306 60 354T106 435T182 487T288 505Q321 505 354 501T416 489V346H387L356 457Q342 463 323 467T279 471Q237
471 210 456T167 413T145 346T139 251Q139 143 178 89T292 34Z" />
<glyph unicode="d" glyph-name="d" horiz-adv-x="585" d="M555 3L399 -3V19Q399 45 400 68T404 107L402 108Q393 83 378 62T342 25T294 0T239 -9Q144 -9 95 55T45 240Q45 308 63 358T113 441T188 490T281 506Q315 506 343 498T397 476V692L322 701V728L485 738V40L555
30V3ZM397 432Q375 450 346 461T280 472Q212 472 175 412T137 245Q137 194 145 155T168 88T207 46T262 32Q290 32 315 45T358 81T386 136T397 204V432Z" />
<glyph unicode="e" glyph-name="e" horiz-adv-x="496" d="M451 296Q451 287 451 280T451 264H138V245Q138 134 179 84T289 33Q330 33 368 41T444 67V34Q405 14 362 3T271 -9Q220 -9 178 6T107 52T61 131T45 246Q45 303 60 350T103 433T173 487T265 506Q319 506
354 491T411 447T442 381T451 296ZM361 296Q361 337 357 369T341 425T309 460T259 473Q202 473 173 426T139 296H361Z" />
<glyph unicode="f" glyph-name="f" horiz-adv-x="343" d="M330 603L298 698Q293 701 286 702T270 704Q252 704 240 699T221 682T210 650T207 598V498H341V464H207V40L290 27V0H39V27L119 40V464H22V498H119V559Q119 606 130 640T162 695T211 727T276 737Q300 737
319 735T359 728V603H330Z" />
<glyph unicode="g" glyph-name="g" horiz-adv-x="532" d="M491 445L366 468Q404 453 428 418T452 339Q452 293 437 259T393 202T328 169T246 158Q226 158 210 160T177 167Q166 156 159 142T151 113Q151 102 155 94T170 81T198 74T241 70L337 66Q382 64 414 54T467
25T496 -16T506 -68Q506 -107 486 -141T430 -202T346 -242T243 -256Q136 -256 82 -221T28 -125Q28 -102 37 -82T62 -46T98 -18T142 4Q108 13 92 31T75 78Q75 94 81 108T97 135T120 158T148 175Q102 195 79 234T56 325Q56 370 71 404T114 461T179 495T262 506Q280
506 298 504T332 498H491V445ZM219 -6Q205 -5 195 -4T176 -2Q142 -25 127 -52T112 -112Q112 -163 150 -192T259 -221Q298 -221 330 -211T384 -184T417 -143T428 -92Q428 -53 403 -33T313 -9L219 -6ZM364 333Q364 368 356 395T333 439T298 464T254 473Q203 473 174
438T144 333Q144 260 174 226T254 191Q305 191 334 226T364 333Z" />
<glyph unicode="h" glyph-name="h" horiz-adv-x="611" d="M359 0V27L428 40V303Q428 345 423 375T406 425T374 456T323 466Q295 466 270 453T227 417T198 362T188 294V40L257 27V0H29V27L100 40V692L26 701V728L188 738V490Q188 460 186 435T182 393L184 392Q193
417 208 438T244 474T293 498T353 506Q436 506 476 454T516 305V40L584 27V0H359Z" />
<glyph unicode="i" glyph-name="i" horiz-adv-x="302" d="M219 657Q219 644 215 634T202 615T183 602T159 597Q146 597 135 601T116 614T103 633T99 657Q99 669 103 680T115 699T135 712T159 717Q172 717 182 712T201 699T214 680T219 657ZM40 0V27L114 40V455L40
465V492L202 502V40L273 27V0H40Z" />
<glyph unicode="j" glyph-name="j" horiz-adv-x="275" d="M11 -220Q41 -220 57 -215T83 -194T96 -149T100 -70V455L29 465V492L188 502V-60Q188 -119 179 -157T148 -216T93 -245T11 -248V-220ZM205 657Q205 644 201 634T188 615T169 602T145 597Q131 597 121 601T102
614T89 633T85 657Q85 669 89 680T101 699T120 712T145 717Q158 717 168 712T187 699T200 680T205 657Z" />
<glyph unicode="k" glyph-name="k" horiz-adv-x="538" d="M395 0L188 262V40L253 27V0H29V27L100 40V692L26 701V728L188 738V267L368 458L292 470V498H504V470L437 458L269 295L474 40L526 27V0H395Z" />
<glyph unicode="l" glyph-name="l" horiz-adv-x="288" d="M29 0V27L100 40V692L26 701V728L188 738V40L258 27V0H29Z" />
<glyph unicode="m" glyph-name="m" horiz-adv-x="944" d="M695 0V27L764 40V301Q764 340 761 369T746 419T714 453T660 466Q631 466 606 453T563 417T535 362T525 294V40L590 27V0H371V27L437 40V301Q437 343 434 372T420 422T390 454T338 466Q308 466 283 453T240
417T213 362T203 294V40L268 27V0H39V27L114 40V456L39 465V492L202 502Q202 462 200 432T196 391L197 390Q206 415 221 436T258 473T305 497T363 506Q399 506 427 497T473 472T502 436T516 391H517Q527 417 542 438T580 474T629 498T689 506Q773 506 812 456T852
297V40L920 27V0H695Z" />
<glyph unicode="n" glyph-name="n" horiz-adv-x="626" d="M373 0V27L442 40V303Q442 344 437 373T421 424T389 455T337 466Q309 466 284 453T241 417T212 362T202 294V40L271 27V0H41V27L114 40V456L41 465V492L202 502Q202 480 201 460T199 427T195 391L197 390Q206
415 221 436T257 473T306 497T366 506Q449 506 489 456T530 305V40L598 27V0H373Z" />
<glyph unicode="o" glyph-name="o" horiz-adv-x="579" d="M534 255Q534 188 515 138T460 55T379 7T282 -9Q170 -9 108 55T45 242Q45 309 65 359T120 442T201 490T297 506Q409 506 471 442T534 255ZM442 247Q442 355 403 413T288 472Q218 472 178 418T137 251Q137
143 176 85T291 26Q362 26 402 79T442 247Z" />
<glyph unicode="p" glyph-name="p" horiz-adv-x="584" d="M539 257Q539 190 521 140T471 56T396 7T304 -9Q271 -9 243 -1T188 21V-208L262 -220V-248H26V-220L100 -208V456L29 466V494L185 501V457Q185 440 184 422T180 391L182 390Q191 415 206 436T243 473T291
497T345 506Q441 506 490 442T539 257ZM448 252Q448 355 416 410T323 466Q294 466 270 453T227 417T198 362T188 294V65Q210 47 239 37T305 26Q339 26 365 41T410 86T438 157T448 252Z" />
<glyph unicode="q" glyph-name="q" horiz-adv-x="571" d="M322 -248V-220L397 -208V7Q397 35 398 60T402 104L400 105Q392 81 377 61T340 24T293 0T239 -9Q144 -9 95 55T45 240Q45 308 63 358T113 441T188 490T281 506Q321 506 354 495T418 462L452 499H485V-208L559
-220V-248H322ZM397 431Q375 449 346 460T279 472Q212 472 175 412T137 245Q137 194 145 155T168 88T207 46T262 32Q290 32 315 45T358 81T386 136T397 204V431Z" />
<glyph unicode="r" glyph-name="r" horiz-adv-x="403" d="M390 424Q372 428 354 431T314 434Q286 434 265 423T230 390T210 333T203 254V40L282 27V0H40V27L114 40V456L40 465V492L200 502Q200 470 198 427T193 354L195 353Q204 417 244 461T346 506Q356 506 369
505T390 503V424Z" />
<glyph unicode="s" glyph-name="s" horiz-adv-x="439" d="M385 138Q385 107 371 80T331 33T270 2T193 -9Q158 -9 125 -6T64 4V147H94L126 37Q143 31 161 29T203 26Q253 26 279 48T305 111Q305 141 289 161T250 193T187 223T121 259T78 303T61 371Q61 400 73 424T109
467T165 496T238 506Q266 506 294 503T349 494V361H319L286 464Q261 473 226 473Q182 473 161 455T139 399Q139 369 155 349T195 315T260 283T326 248T368 204T385 138Z" />
<glyph unicode="t" glyph-name="t" horiz-adv-x="368" d="M330 23Q302 8 272 0T213 -9Q182 -9 160 -2T124 20T104 62T97 130V464H14V498H97L156 638H185V498H330V464H185V142Q185 105 188 83T197 51T213 36T241 32Q258 32 281 38T330 56V23Z" />
<glyph unicode="u" glyph-name="u" horiz-adv-x="611" d="M582 6L423 -4Q423 18 424 38T426 72T429 95T430 106L428 107Q419 82 404 61T367 24T318 0T261 -9Q176 -9 136 40T95 192Q95 242 95 289T96 372T97 428T98 456L29 465V492L187 502Q187 493 187 469T185
402T184 307T183 202Q183 165 187 135T202 82T235 46T288 32Q317 32 341 45T384 81T413 136T423 204V456L350 465V492L511 502V42L582 33V6Z" />
<glyph unicode="v" glyph-name="v" horiz-adv-x="542" d="M532 470L478 458L300 -7H233L64 458L10 470V498H233V470L155 458L291 73H292L417 458L345 470V498H532V470Z" />
<glyph unicode="w" glyph-name="w" horiz-adv-x="765" d="M753 470L697 458L563 -3H492L393 322Q388 337 384 357T375 395H374Q371 376 367 357T358 320L272 -3H196L66 458L10 470V498H236V470L160 458L236 169Q241 150 245 130T256 77H257Q263 103 268 127T279
171L366 500H428L526 173Q533 149 539 125T551 77H553Q557 103 562 126T572 170L637 458L563 470V498H753V470Z" />
<glyph unicode="x" glyph-name="x" horiz-adv-x="595" d="M319 0V27L397 40L277 212L148 40L225 27V0H23V27L79 40L255 235L94 458L30 470V498H280V470L204 458L315 290L441 458L364 470V498H563V470L506 458L337 266L507 40L572 27V0H319Z" />
<glyph unicode="y" glyph-name="y" horiz-adv-x="548" d="M536 470L482 458L315 0Q287 -75 264 -123T198 -248H125L117 -226Q141 -201 164 -172T206 -112T243 -54T272 0H242L64 458L10 470V498H233V470L155 458L258 191Q270 161 281 130T302 73H303Q308 91 321
134T341 195L421 458L349 470V498H536V470Z" />
<glyph unicode="z" glyph-name="z" horiz-adv-x="469" d="M48 0V29L317 466L123 463L86 366H55L60 498H412V470L142 32L354 35L388 137H418V0H48Z" />
<glyph unicode="{" glyph-name="braceleft" horiz-adv-x="331" d="M282 -196Q241 -196 213 -187T167 -157T140 -106T131 -32V176Q131 208 127 230T112 268T81 293T30 304V331Q61 333 81 341T112 364T127 400T131 454V598Q131 636 139 667T166 721T212 756T282
769H299V742Q272 741 255 733T229 708T216 666T212 605V460Q212 430 205 406T185 364T153 335T107 319V318Q157 311 184 273T212 174V-32Q212 -69 215 -94T228 -135T255 -160T299 -169V-196H282Z" />
<glyph unicode="|" glyph-name="bar" horiz-adv-x="281" d="M111 -212V788H168V-212H111Z" />
<glyph unicode="}" glyph-name="braceright" horiz-adv-x="327" d="M308 304Q277 302 258 293T227 269T212 232T207 182V-26Q207 -70 198 -102T171 -155T125 -186T56 -196H40V-169Q66 -168 83 -160T110 -135T123 -93T127 -33V175Q127 205 134 229T154 272T186
302T231 318V319Q205 322 186 333T153 362T134 404T127 457V604Q127 639 124 664T110 707T83 732T40 742V769H56Q98 769 126 757T173 722T199 670T207 604V464Q207 431 210 407T225 367T255 343T308 331V304Z" />
<glyph unicode="~" glyph-name="asciitilde" horiz-adv-x="550" d="M527 409Q520 353 508 315T477 252T437 216T386 205Q359 205 336 216T293 245T251 289T213 333T180 361T143 373Q125 373 112 367T89 345T70 302T56 232L23 238Q29 294 40 332T70 395T112 430T166
442Q190 442 211 431T251 402T294 357T333 313T366 285T400 274Q418 274 431 280T457 301T478 344T493 415L527 409Z" />
<glyph unicode="&#xa0;" glyph-name="uni00A0" horiz-adv-x="218" />
<glyph unicode="&#xa1;" glyph-name="exclamdown" horiz-adv-x="307" d="M213 493Q213 468 196 452T154 435Q129 435 113 451T96 493Q96 518 112 534T154 551Q179 551 196 535T213 493ZM103 -192L136 365H172L205 -192H103Z" />
<glyph unicode="&#xa2;" glyph-name="cent" horiz-adv-x="499" d="M440 75Q410 61 377 52T307 38V-68H270V38Q224 39 185 52T116 93T69 166T52 274Q52 383 109 446T270 515V617H307V517Q340 516 372 512T430 500V357H401L370 469Q357 474 336 478T292 482Q254
482 226 468T180 426T153 362T144 280Q144 183 185 133T297 82Q326 82 351 86T396 96T425 105T440 110V75Z" />
<glyph unicode="&#xa3;" glyph-name="sterling" horiz-adv-x="550" d="M129 347Q125 364 121 384T112 425T105 469T102 512Q102 547 114 578T150 633T211 670T299 684Q332 684 364 680T422 669V518H392L354 640Q343 644 329 646T294 649Q266 649 247 640T215 613T197
573T191 521Q191 476 200 433T220 347H370V312H226Q230 293 232 275T235 237Q235 215 229 194T209 150T175 104T128 58L129 56Q147 64 171 71T221 79Q244 79 266 76T310 69T354 62T401 58Q429 58 450 64T491 85L504 60Q483 30 455 11T384 -9Q355 -9 324 -4T273
5T231 12T185 15Q151 15 118 9T56 -9L43 16Q71 35 90 57T123 105T141 160T147 224Q147 246 144 268T136 312H49V347H129Z" />
<glyph unicode="&#xa4;" glyph-name="currency" horiz-adv-x="550" d="M443 49L368 148Q345 137 322 131T269 124Q244 124 221 129T179 144L107 49L78 69L149 161Q120 183 106 219T91 306Q91 354 106 392T153 456L78 552L107 572L182 472Q203 484 227 490T281
497Q306 497 329 492T372 476L443 572L472 552L400 461Q428 439 443 403T459 315Q459 267 444 229T397 165L472 69L443 49ZM383 309Q383 390 356 428T274 466Q223 466 195 430T167 312Q167 231 194 193T276 155Q327 155 355 191T383 309Z" />
<glyph unicode="&#xa5;" glyph-name="yen" horiz-adv-x="598" d="M533 635L343 306H505V273H342V169H505V137H342V40L418 27V0H175V27L252 40V137H89V169H252V273H89V306H250L55 635L12 648V675H236V648L159 635L326 346H327L469 635L385 648V675H577V648L533 635Z" />
<glyph unicode="&#xa6;" glyph-name="brokenbar" horiz-adv-x="282" d="M111 409V788H171V409H111ZM111 -212V181H171V-212H111Z" />
<glyph unicode="&#xa7;" glyph-name="section" horiz-adv-x="486" d="M432 258Q432 214 410 179T335 103Q368 67 384 36T400 -32Q400 -58 390 -83T359 -127T305 -158T226 -169Q213 -169 199 -168T171 -165T145 -161T124 -155V-25H154L189 -132Q197 -135 208 -136T234
-138Q258 -138 275 -133T304 -118T320 -95T325 -66Q325 -36 308 -6T264 51T197 116T129 183T85 243T67 310Q67 353 89 388T164 465Q131 501 116 532T100 599Q100 626 110 651T140 695T194 726T273 737Q286 737 300 736T328 733T354 728T375 723V593H345L310 700Q302
702 291 703T265 705Q241 705 224 700T195 685T179 663T174 634Q174 603 191 574T235 517T302 452T370 385T414 325T432 258ZM354 233Q354 258 339 283T302 332T242 390T186 444Q163 416 154 392T145 335Q145 310 160 285T197 236T257 178T313 124Q341 156 347
176T354 233Z" />
<glyph unicode="&#xa8;" glyph-name="dieresis" horiz-adv-x="437" d="M365 658Q365 636 351 621T313 606Q291 606 277 621T262 658Q262 680 276 695T313 710Q336 710 350 695T365 658ZM175 658Q175 636 161 621T123 606Q101 606 86 621T71 658Q71 680 86 695T123
710Q146 710 160 695T175 658Z" />
<glyph unicode="&#xa9;" glyph-name="copyright" horiz-adv-x="753" d="M715 337Q715 268 689 206T616 97T507 24T373 -2Q300 -2 238 23T130 94T59 202T34 335Q34 405 60 467T133 575T243 648T376 674Q448 674 509 649T617 577T689 470T715 337ZM671 335Q671 399
649 455T587 553T493 618T375 641Q310 641 256 618T161 553T100 456T79 337Q79 273 101 217T163 120T257 55T375 31Q440 31 494 54T588 120T649 217T671 335ZM502 175Q475 161 442 153T375 145Q336 145 304 155T248 188T210 247T196 334Q196 379 208 415T245 476T306
514T388 528Q416 528 443 525T493 514V395H466L445 483Q433 489 417 493T384 497Q354 497 334 487T302 456T285 407T280 338Q280 259 310 222T392 184Q420 184 447 189T502 205V175Z" />
<glyph unicode="&#xaa;" glyph-name="ordfeminine" horiz-adv-x="397" d="M62 238V271H336V238H62ZM359 353L250 349L253 405H252Q238 380 214 363T152 345Q99 345 75 368T50 431Q50 454 61 473T95 506T157 528T248 536V581Q248 618 231 637T176 656Q156 656 142
652T123 645L100 575H74V662Q100 671 128 676T186 682Q250 682 282 659T315 584V383L359 376V353ZM248 510Q208 511 182 506T143 492T124 468T119 436Q119 376 170 376Q188 376 202 383T226 403T242 431T248 461V510Z" />
<glyph unicode="&#xab;" glyph-name="guillemotleft" horiz-adv-x="530" d="M417 96L256 292L418 488L442 475L352 293L442 110L417 96ZM234 83L67 292L236 501L260 488L163 293L260 97L234 83Z" />
<glyph unicode="&#xac;" glyph-name="logicalnot" horiz-adv-x="550" d="M431 80V267H34V317H488V80H431Z" />
<glyph unicode="&#xad;" glyph-name="hyphen" horiz-adv-x="317" d="M43 266V318H272V266H43Z" />
<glyph unicode="&#xae;" glyph-name="registered" horiz-adv-x="562" d="M494 533Q494 487 477 448T431 380T364 334T280 317Q235 317 196 333T128 377T83 444T67 528Q67 573 84 613T130 681T197 726T281 743Q325 743 364 727T432 683T477 617T494 533ZM459 530Q459
571 446 605T408 664T351 703T280 717Q242 717 210 703T153 664T116 605T102 530Q102 490 115 456T153 397T209 358T280 344Q318 344 351 358T408 396T445 455T459 530ZM390 416Q385 413 379 412T362 410Q345 410 335 418T319 438T308 465T300 491T290 511T273
519H256V434L285 430V414H181V430L207 434V631L181 635V651H204Q215 651 226 651T248 651T266 652T279 652Q328 652 348 636T369 594Q369 566 351 552T308 532Q326 530 335 514T351 480T365 448T386 433H390V416ZM323 590Q323 610 313 621T279 633Q269 633 265
633T256 631V539H272Q303 539 313 554T323 590Z" />
<glyph unicode="&#xaf;" glyph-name="macron" horiz-adv-x="422" d="M83 614V654H339V614H83Z" />
<glyph unicode="&#xb0;" glyph-name="degree" horiz-adv-x="370" d="M309 616Q309 590 300 567T273 528T231 502T180 493Q152 493 129 501T91 525T67 563T58 612Q58 638 68 661T95 700T136 726T187 735Q216 735 239 727T277 703T301 665T309 616ZM261 614Q261
655 242 680T184 706Q146 706 127 680T107 614Q107 594 111 577T125 548T149 528T183 521Q221 521 241 547T261 614Z" />
<glyph unicode="&#xb1;" glyph-name="plusminus" horiz-adv-x="550" d="M303 350V136H247V350H39V400H247V611H303V400H511V350H303ZM52 0V45H498V0H52Z" />
<glyph unicode="&#xb2;" glyph-name="twosuperior" horiz-adv-x="374" d="M283 404L310 475H337L330 351H24V389L150 519Q173 544 188 562T213 600T228 638T233 684Q233 723 216 745T156 768Q141 768 125 766T97 757L70 673H43L47 776Q74 786 105 792T164 798Q201
798 229 790T275 767T302 732T311 688Q311 666 302 644T277 601T240 559T188 509L81 405L80 404H283Z" />
<glyph unicode="&#xb3;" glyph-name="threesuperior" horiz-adv-x="355" d="M152 798Q190 798 217 790T262 769T288 738T296 700Q296 664 264 632T182 587V586Q211 584 235 576T278 555T305 521T315 475Q315 445 300 420T258 378T199 352T132 343Q106 343 80 347T37
356V451H64L87 383Q98 378 111 376T135 374Q187 374 214 397T242 465Q242 519 196 541T70 555V585Q106 585 134 592T182 613T211 646T221 690Q221 730 203 749T145 769Q131 769 121 768T100 764L75 686H47L51 784Q74 790 102 794T152 798Z" />
<glyph unicode="&#xb4;" glyph-name="acute" horiz-adv-x="351" d="M101 577L83 598L214 763L272 699L101 577Z" />
<glyph unicode="&#xb5;" glyph-name="mu" horiz-adv-x="616" d="M104 -248Q102 -144 100 -41T98 166Q98 211 98 254T99 335T101 405T103 456L29 465V492L192 502Q190 471 189 434T188 359T187 284T186 215Q186 125 209 79T289 32Q319 32 344 45T388 81T417 135T427
204V456L354 465V492L515 502V160Q515 115 516 90T525 52T546 37T585 34H588V6Q567 -1 543 -5T495 -9Q475 -9 463 -2T443 19T433 56T433 106L431 107Q423 82 408 62T372 25T325 0T269 -9Q231 -9 207 3T167 34L197 -248H104Z" />
<glyph unicode="&#xb6;" glyph-name="paragraph" horiz-adv-x="595" d="M549 648L475 635V4Q475 -42 464 -75T434 -131T387 -164T326 -174Q305 -174 283 -172T242 -165V-40H272L307 -139Q312 -140 317 -140T330 -141Q350 -141 363 -134T383 -110T392 -68T394 1V675H549V648ZM326
156Q256 155 204 175T117 232T66 315T49 418Q49 473 68 520T123 602T211 656T326 675V156Z" />
<glyph unicode="&#xb7;" glyph-name="periodcentered" horiz-adv-x="227" d="M174 294Q174 281 170 270T157 251T138 238T114 234Q101 234 90 238T71 250T58 270T53 294Q53 307 57 318T70 337T90 350T114 354Q127 354 137 350T156 338T169 318T174 294Z" />
<glyph unicode="&#xb8;" glyph-name="cedilla" horiz-adv-x="275" d="M157 -61Q186 -75 198 -90T211 -128Q211 -159 182 -191T95 -254L77 -236Q105 -216 121 -194T138 -153Q138 -137 127 -125T89 -99L163 0H201L157 -61Z" />
<glyph unicode="&#xb9;" glyph-name="onesuperior" horiz-adv-x="288" d="M42 351V375L119 386V741L38 711L30 735L143 793H193V386L251 375V351H42Z" />
<glyph unicode="&#xba;" glyph-name="ordmasculine" horiz-adv-x="424" d="M75 238V271H345V238H75ZM367 518Q367 474 355 441T319 387T267 356T204 345Q132 345 92 387T52 510Q52 554 64 586T100 640T152 672T215 682Q287 682 327 641T367 518ZM298 513Q298 586
276 620T209 655Q167 655 144 622T120 516Q120 442 142 408T210 373Q252 373 275 406T298 513Z" />
<glyph unicode="&#xbb;" glyph-name="guillemotright" horiz-adv-x="530" d="M295 83L270 96L367 291L270 487L296 501L463 292L295 83ZM112 96L88 109L178 291L88 474L113 488L274 292L112 96Z" />
<glyph unicode="&#xbc;" glyph-name="onequarter" horiz-adv-x="770" d="M62 351V375L139 386V741L58 711L50 735L163 793H213V386L271 375V351H62ZM80 -132L47 -110L680 803L713 781L80 -132ZM640 -13V-87L695 -98V-122H509V-98L570 -87V-13H358L351 34L558 317H640V33H726V-13H640ZM572
283H570L392 33H571L572 283Z" />
<glyph unicode="&#xbd;" glyph-name="onehalf" horiz-adv-x="827" d="M62 351V375L139 386V741L58 711L50 735L163 793H213V386L271 375V351H62ZM716 -69L743 2H770L763 -122H457V-84L583 46Q606 71 621 89T646 127T661 165T666 211Q666 250 649 272T589 295Q574
295 558 293T530 284L503 200H476L480 303Q507 313 538 319T597 325Q634 325 662 317T708 294T735 259T744 215Q744 193 735 171T710 128T673 86T621 36L514 -68L513 -69H716ZM80 -132L47 -110L680 803L713 781L80 -132Z" />
<glyph unicode="&#xbe;" glyph-name="threequarters" horiz-adv-x="783" d="M172 798Q210 798 237 790T282 769T308 738T316 700Q316 664 284 632T202 587V586Q231 584 255 576T298 555T325 521T335 475Q335 445 320 420T278 378T219 352T152 343Q126 343 100
347T57 356V451H84L107 383Q118 378 131 376T155 374Q207 374 234 397T262 465Q262 519 216 541T90 555V585Q126 585 154 592T202 613T231 646T241 690Q241 730 223 749T165 769Q151 769 141 768T120 764L95 686H67L71 784Q94 790 122 794T172 798ZM93 -132L60
-110L693 803L726 781L93 -132ZM653 -13V-87L708 -98V-122H522V-98L583 -87V-13H371L364 34L571 317H653V33H739V-13H653ZM585 283H583L405 33H584L585 283Z" />
<glyph unicode="&#xbf;" glyph-name="questiondown" horiz-adv-x="418" d="M63 4Q63 36 77 60T113 105T162 152T204 206T221 273T205 365H278Q294 320 292 286T275 226T239 179T193 130T156 78T143 18Q143 -9 157 -33T197 -75T258 -106T334 -121L323 -196Q265
-192 217 -174T135 -129T82 -68T63 4ZM179 493Q179 518 195 534T237 551Q263 551 279 535T296 493Q296 468 280 452T237 435Q212 435 196 451T179 493Z" />
<glyph unicode="&#xc0;" glyph-name="Agrave" horiz-adv-x="664" d="M420 0V27L506 40L453 183H172L124 40L210 27V0H12V27L64 40L303 682H362L600 40L652 27V0H420ZM307 586H306L183 219H441L307 586ZM373 738L175 810L209 880L385 765L373 738Z" />
<glyph unicode="&#xc1;" glyph-name="Aacute" horiz-adv-x="664" d="M420 0V27L506 40L453 183H172L124 40L210 27V0H12V27L64 40L303 682H362L600 40L652 27V0H420ZM307 586H306L183 219H441L307 586ZM298 738L286 765L462 880L496 810L298 738Z" />
<glyph unicode="&#xc2;" glyph-name="Acircumflex" horiz-adv-x="664" d="M420 0V27L506 40L453 183H172L124 40L210 27V0H12V27L64 40L303 682H362L600 40L652 27V0H420ZM307 586H306L183 219H441L307 586ZM467 738L335 806L207 738L192 762L337 883L483 762L467 738Z" />
<glyph unicode="&#xc3;" glyph-name="Atilde" horiz-adv-x="664" d="M420 0V27L506 40L453 183H172L124 40L210 27V0H12V27L64 40L303 682H362L600 40L652 27V0H420ZM307 586H306L183 219H441L307 586ZM493 840Q473 800 448 777T391 753Q368 753 353 761T323 778T295
796T264 804Q244 804 231 791T205 760L182 775Q202 815 227 838T284 862Q306 862 322 854T352 837T380 819T411 811Q430 811 443 823T470 855L493 840Z" />
<glyph unicode="&#xc4;" glyph-name="Adieresis" horiz-adv-x="664" d="M420 0V27L506 40L453 183H172L124 40L210 27V0H12V27L64 40L303 682H362L600 40L652 27V0H420ZM307 586H306L183 219H441L307 586ZM484 789Q484 767 470 753T433 738Q411 738 397 752T382
789Q382 811 396 825T433 840Q455 840 469 826T484 789ZM290 789Q290 767 276 753T239 738Q217 738 203 752T188 789Q188 811 202 825T239 840Q261 840 275 826T290 789Z" />
<glyph unicode="&#xc5;" glyph-name="Aring" horiz-adv-x="664" d="M420 0V27L506 40L453 183H172L124 40L210 27V0H12V27L64 40L303 682H362L600 40L652 27V0H420ZM307 586H306L183 219H441L307 586ZM455 810Q455 786 445 767T418 735T378 716T333 709Q283 709
253 733T222 804Q222 828 232 847T259 879T299 899T344 906Q394 906 424 881T455 810ZM398 804Q398 835 381 856T335 878Q308 878 294 860T279 811Q279 779 296 758T342 737Q368 737 383 755T398 804Z" />
<glyph unicode="&#xc6;" glyph-name="AE" horiz-adv-x="825" d="M331 0V27L405 40V184H168L93 40L164 27V0H-14V27L27 40L367 635L290 648V675H753V531H722L685 640L494 642V365H648L678 447H706V249H678L648 330H494V34L687 36L724 151H755V0H331ZM405 635H403L186
219H405V635Z" />
<glyph unicode="&#xc7;" glyph-name="Ccedilla" horiz-adv-x="604" d="M555 46Q515 22 468 8T369 -8L331 -61Q359 -75 372 -90T385 -128Q385 -159 356 -191T269 -254L251 -236Q280 -216 296 -194T312 -153Q312 -138 301 -125T263 -99L331 -7Q263 -4 210 19T119
84T62 188T42 329Q42 419 68 486T140 598T247 663T376 684Q422 684 461 679T538 662V505H507L468 629Q448 637 421 641T364 645Q307 645 266 626T197 569T156 474T142 339Q142 267 156 210T200 114T272 55T373 34Q420 34 467 46T555 83V46Z" />
<glyph unicode="&#xc8;" glyph-name="Egrave" horiz-adv-x="538" d="M38 0V27L115 40V635L38 648V675H466V531H435L398 640L205 642V365H362L391 447H419V249H391L362 330H205V34L400 36L437 151H468V0H38ZM305 738L107 810L141 880L317 765L305 738Z" />
<glyph unicode="&#xc9;" glyph-name="Eacute" horiz-adv-x="538" d="M38 0V27L115 40V635L38 648V675H466V531H435L398 640L205 642V365H362L391 447H419V249H391L362 330H205V34L400 36L437 151H468V0H38ZM230 738L218 765L394 880L428 810L230 738Z" />
<glyph unicode="&#xca;" glyph-name="Ecircumflex" horiz-adv-x="538" d="M38 0V27L115 40V635L38 648V675H466V531H435L398 640L205 642V365H362L391 447H419V249H391L362 330H205V34L400 36L437 151H468V0H38ZM400 738L268 806L140 738L125 762L270 883L416
762L400 738Z" />
<glyph unicode="&#xcb;" glyph-name="Edieresis" horiz-adv-x="538" d="M38 0V27L115 40V635L38 648V675H466V531H435L398 640L205 642V365H362L391 447H419V249H391L362 330H205V34L400 36L437 151H468V0H38ZM421 789Q421 767 407 753T370 738Q348 738 334 752T319
789Q319 811 333 825T370 840Q392 840 406 826T421 789ZM227 789Q227 767 213 753T176 738Q154 738 140 752T125 789Q125 811 139 825T176 840Q198 840 212 826T227 789Z" />
<glyph unicode="&#xcc;" glyph-name="Igrave" horiz-adv-x="320" d="M38 0V27L115 40V635L38 648V675H281V648L205 635V40L281 27V0H38ZM465 738L267 810L301 880L477 765L465 738Z" />
<glyph unicode="&#xcd;" glyph-name="Iacute" horiz-adv-x="320" d="M38 0V27L115 40V635L38 648V675H281V648L205 635V40L281 27V0H38ZM104 738L92 765L268 880L302 810L104 738Z" />
<glyph unicode="&#xce;" glyph-name="Icircumflex" horiz-adv-x="320" d="M38 0V27L115 40V635L38 648V675H281V648L205 635V40L281 27V0H38ZM546 738L414 806L286 738L271 762L416 883L562 762L546 738Z" />
<glyph unicode="&#xcf;" glyph-name="Idieresis" horiz-adv-x="320" d="M38 0V27L115 40V635L38 648V675H281V648L205 635V40L281 27V0H38ZM564 789Q564 767 550 753T513 738Q491 738 477 752T462 789Q462 811 476 825T513 840Q535 840 549 826T564 789ZM370 789Q370
767 356 753T319 738Q297 738 283 752T268 789Q268 811 282 825T319 840Q341 840 355 826T370 789Z" />
<glyph unicode="&#xd0;" glyph-name="Eth" horiz-adv-x="741" d="M700 343Q700 258 674 193T599 84T482 19T328 -3Q209 -2 136 0H57V27L134 40V332H21V365H134V635L57 648V675H136Q232 677 341 679Q432 679 499 658T610 595T677 491T700 343ZM606 338Q606 410
589 466T537 563T452 624T335 645Q298 645 274 644T224 639V365H400V332H224V41Q246 37 275 35T341 32Q404 32 453 50T536 105T588 201T606 338Z" />
<glyph unicode="&#xd1;" glyph-name="Ntilde" horiz-adv-x="719" d="M557 -7L157 576H156L178 40L256 27V0H38V27L117 40L118 635L38 648V675H201L568 141H569L551 635L477 648V675H672V648L609 635V-7H557ZM531 840Q511 800 486 777T429 753Q406 753 391 761T361
778T333 796T302 804Q282 804 269 791T243 760L220 775Q240 815 265 838T322 862Q344 862 360 854T390 837T418 819T449 811Q468 811 481 823T508 855L531 840Z" />
<glyph unicode="&#xd2;" glyph-name="Ograve" horiz-adv-x="733" d="M692 347Q692 257 666 189T592 77T485 12T355 -9Q282 -9 225 12T126 76T63 182T41 328Q41 418 68 486T142 598T249 663T378 684Q451 684 509 663T608 599T670 493T692 347ZM593 334Q593 484
534 565T364 647Q314 647 273 628T202 571T156 474T140 339Q140 191 199 110T369 28Q420 28 461 47T531 104T577 200T593 334ZM401 738L203 810L237 880L413 765L401 738Z" />
<glyph unicode="&#xd3;" glyph-name="Oacute" horiz-adv-x="733" d="M692 347Q692 257 666 189T592 77T485 12T355 -9Q282 -9 225 12T126 76T63 182T41 328Q41 418 68 486T142 598T249 663T378 684Q451 684 509 663T608 599T670 493T692 347ZM593 334Q593 484
534 565T364 647Q314 647 273 628T202 571T156 474T140 339Q140 191 199 110T369 28Q420 28 461 47T531 104T577 200T593 334ZM324 738L312 765L488 880L522 810L324 738Z" />
<glyph unicode="&#xd4;" glyph-name="Ocircumflex" horiz-adv-x="733" d="M692 347Q692 257 666 189T592 77T485 12T355 -9Q282 -9 225 12T126 76T63 182T41 328Q41 418 68 486T142 598T249 663T378 684Q451 684 509 663T608 599T670 493T692 347ZM593 334Q593
484 534 565T364 647Q314 647 273 628T202 571T156 474T140 339Q140 191 199 110T369 28Q420 28 461 47T531 104T577 200T593 334ZM497 738L365 806L237 738L222 762L367 883L513 762L497 738Z" />
<glyph unicode="&#xd5;" glyph-name="Otilde" horiz-adv-x="733" d="M692 347Q692 257 666 189T592 77T485 12T355 -9Q282 -9 225 12T126 76T63 182T41 328Q41 418 68 486T142 598T249 663T378 684Q451 684 509 663T608 599T670 493T692 347ZM593 334Q593 484
534 565T364 647Q314 647 273 628T202 571T156 474T140 339Q140 191 199 110T369 28Q420 28 461 47T531 104T577 200T593 334ZM526 840Q506 800 481 777T424 753Q401 753 386 761T356 778T328 796T297 804Q277 804 264 791T238 760L215 775Q235 815 260 838T317
862Q339 862 355 854T385 837T413 819T444 811Q463 811 476 823T503 855L526 840Z" />
<glyph unicode="&#xd6;" glyph-name="Odieresis" horiz-adv-x="733" d="M692 347Q692 257 666 189T592 77T485 12T355 -9Q282 -9 225 12T126 76T63 182T41 328Q41 418 68 486T142 598T249 663T378 684Q451 684 509 663T608 599T670 493T692 347ZM593 334Q593 484
534 565T364 647Q314 647 273 628T202 571T156 474T140 339Q140 191 199 110T369 28Q420 28 461 47T531 104T577 200T593 334ZM516 789Q516 767 502 753T465 738Q443 738 429 752T414 789Q414 811 428 825T465 840Q487 840 501 826T516 789ZM322 789Q322 767 308
753T271 738Q249 738 235 752T220 789Q220 811 234 825T271 840Q293 840 307 826T322 789Z" />
<glyph unicode="&#xd7;" glyph-name="multiply" horiz-adv-x="550" d="M443 65L274 234L104 65L68 101L237 271L68 440L107 479L276 310L446 479L482 443L313 273L482 104L443 65Z" />
<glyph unicode="&#xd8;" glyph-name="Oslash" horiz-adv-x="733" d="M692 346Q692 256 666 188T593 77T486 12T356 -9Q314 -9 278 -2T210 19L142 -101L109 -85L176 35Q110 75 76 149T41 329Q41 419 67 486T141 598T248 663T377 684Q418 684 455 677T523 655L591
776L625 760L557 639Q622 599 657 525T692 346ZM595 334Q595 414 577 475T522 576L237 68Q264 49 297 39T369 28Q420 28 461 47T532 104T578 200T595 334ZM495 606Q469 626 437 636T364 647Q314 647 273 628T201 571T155 474T139 339Q139 259 157 198T211 98L495
606Z" />
<glyph unicode="&#xd9;" glyph-name="Ugrave" horiz-adv-x="697" d="M671 648L616 635Q614 586 613 529T610 417T608 317T607 244Q607 189 593 142T549 62T474 10T366 -9Q289 -9 239 11T157 64T113 143T100 241V635L38 648V675H265V648L189 635V247Q189 202 198
163T230 94T287 48T377 31Q425 31 459 46T516 89T549 155T560 241Q560 271 560 318T558 420T556 530T553 635L490 648V675H671V648ZM399 738L201 810L235 880L411 765L399 738Z" />
<glyph unicode="&#xda;" glyph-name="Uacute" horiz-adv-x="697" d="M671 648L616 635Q614 586 613 529T610 417T608 317T607 244Q607 189 593 142T549 62T474 10T366 -9Q289 -9 239 11T157 64T113 143T100 241V635L38 648V675H265V648L189 635V247Q189 202 198
163T230 94T287 48T377 31Q425 31 459 46T516 89T549 155T560 241Q560 271 560 318T558 420T556 530T553 635L490 648V675H671V648ZM336 738L324 765L500 880L534 810L336 738Z" />
<glyph unicode="&#xdb;" glyph-name="Ucircumflex" horiz-adv-x="697" d="M671 648L616 635Q614 586 613 529T610 417T608 317T607 244Q607 189 593 142T549 62T474 10T366 -9Q289 -9 239 11T157 64T113 143T100 241V635L38 648V675H265V648L189 635V247Q189 202
198 163T230 94T287 48T377 31Q425 31 459 46T516 89T549 155T560 241Q560 271 560 318T558 420T556 530T553 635L490 648V675H671V648ZM496 738L364 806L236 738L221 762L366 883L512 762L496 738Z" />
<glyph unicode="&#xdc;" glyph-name="Udieresis" horiz-adv-x="697" d="M671 648L616 635Q614 586 613 529T610 417T608 317T607 244Q607 189 593 142T549 62T474 10T366 -9Q289 -9 239 11T157 64T113 143T100 241V635L38 648V675H265V648L189 635V247Q189 202
198 163T230 94T287 48T377 31Q425 31 459 46T516 89T549 155T560 241Q560 271 560 318T558 420T556 530T553 635L490 648V675H671V648ZM514 789Q514 767 500 753T463 738Q441 738 427 752T412 789Q412 811 426 825T463 840Q485 840 499 826T514 789ZM320 789Q320
767 306 753T269 738Q247 738 233 752T218 789Q218 811 232 825T269 840Q291 840 305 826T320 789Z" />
<glyph unicode="&#xdd;" glyph-name="Yacute" horiz-adv-x="585" d="M425 0H165V27L250 40V285L50 635L9 648V675H231V648L148 635L320 323H321L471 635L391 648V675H575V648L531 635L340 285V40L425 27V0ZM264 738L252 765L428 880L462 810L264 738Z" />
<glyph unicode="&#xde;" glyph-name="Thorn" horiz-adv-x="581" d="M543 364Q543 308 526 266T475 196T396 154T289 140Q260 140 237 142T205 145V40L285 27V0H38V27L115 40V635L38 648V675H281V648L205 635V563Q240 564 298 564Q362 564 408 551T484 513T528
450T543 364ZM452 358Q452 445 412 487T287 530Q263 530 242 528T205 523V187Q214 184 238 180T296 176Q377 176 414 221T452 358Z" />
<glyph unicode="&#xdf;" glyph-name="germandbls" horiz-adv-x="630" d="M606 148Q606 114 592 85T553 35T495 3T427 -9Q398 -9 372 -6T317 4V140H347L379 33Q404 24 430 24Q476 24 501 47T526 120Q526 150 512 172T477 209T422 242T368 276T333 315T318 372Q318
401 327 421T350 453T387 482T425 512T448 547T458 599Q458 620 453 638T435 671T398 695T340 704Q267 704 235 658T202 518V40L257 27V0H41V27L114 40V456L41 465V492L114 496V515Q114 567 129 608T175 678T250 722T350 737Q440 737 493 699T546 602Q546 575 536
556T511 525T473 498T434 472T408 444T398 401Q398 375 412 356T447 324T501 293T556 257T592 213T606 148Z" />
<glyph unicode="&#xe0;" glyph-name="agrave" horiz-adv-x="504" d="M475 3L323 -3Q323 25 324 50T328 96L326 97Q319 76 305 57T271 22T230 -1T183 -9Q113 -9 78 24T42 121Q42 158 59 187T110 237T197 268T319 279V353Q319 388 314 409T298 444T266 465T215 472Q193
472 172 467T139 455L106 351H76V475Q113 491 152 498T229 506Q276 506 309 498T363 473T396 426T407 356V40L475 30V3ZM319 247Q267 248 231 241T174 220T142 183T132 126Q132 77 150 54T207 30Q229 30 249 42T285 76T310 126T319 178V247ZM275 577L104 699L162
763L293 598L275 577Z" />
<glyph unicode="&#xe1;" glyph-name="aacute" horiz-adv-x="504" d="M475 3L323 -3Q323 25 324 50T328 96L326 97Q319 76 305 57T271 22T230 -1T183 -9Q113 -9 78 24T42 121Q42 158 59 187T110 237T197 268T319 279V353Q319 388 314 409T298 444T266 465T215 472Q193
472 172 467T139 455L106 351H76V475Q113 491 152 498T229 506Q276 506 309 498T363 473T396 426T407 356V40L475 30V3ZM319 247Q267 248 231 241T174 220T142 183T132 126Q132 77 150 54T207 30Q229 30 249 42T285 76T310 126T319 178V247ZM214 577L196 598L327
763L385 699L214 577Z" />
<glyph unicode="&#xe2;" glyph-name="acircumflex" horiz-adv-x="504" d="M475 3L323 -3Q323 25 324 50T328 96L326 97Q319 76 305 57T271 22T230 -1T183 -9Q113 -9 78 24T42 121Q42 158 59 187T110 237T197 268T319 279V353Q319 388 314 409T298 444T266 465T215
472Q193 472 172 467T139 455L106 351H76V475Q113 491 152 498T229 506Q276 506 309 498T363 473T396 426T407 356V40L475 30V3ZM319 247Q267 248 231 241T174 220T142 183T132 126Q132 77 150 54T207 30Q229 30 249 42T285 76T310 126T319 178V247ZM354 577L236
671L125 577L105 597L240 764L374 597L354 577Z" />
<glyph unicode="&#xe3;" glyph-name="atilde" horiz-adv-x="504" d="M475 3L323 -3Q323 25 324 50T328 96L326 97Q319 76 305 57T271 22T230 -1T183 -9Q113 -9 78 24T42 121Q42 158 59 187T110 237T197 268T319 279V353Q319 388 314 409T298 444T266 465T215 472Q193
472 172 467T139 455L106 351H76V475Q113 491 152 498T229 506Q276 506 309 498T363 473T396 426T407 356V40L475 30V3ZM319 247Q267 248 231 241T174 220T142 183T132 126Q132 77 150 54T207 30Q229 30 249 42T285 76T310 126T319 178V247ZM650 685Q629 643 604
621T547 598Q528 598 513 604T478 624T447 643T420 649Q403 649 390 638T361 605L338 620Q359 662 384 684T441 707Q460 707 475 701T510 681T541 662T568 656Q585 656 598 667T627 700L650 685Z" />
<glyph unicode="&#xe4;" glyph-name="adieresis" horiz-adv-x="504" d="M475 3L323 -3Q323 25 324 50T328 96L326 97Q319 76 305 57T271 22T230 -1T183 -9Q113 -9 78 24T42 121Q42 158 59 187T110 237T197 268T319 279V353Q319 388 314 409T298 444T266 465T215
472Q193 472 172 467T139 455L106 351H76V475Q113 491 152 498T229 506Q276 506 309 498T363 473T396 426T407 356V40L475 30V3ZM319 247Q267 248 231 241T174 220T142 183T132 126Q132 77 150 54T207 30Q229 30 249 42T285 76T310 126T319 178V247ZM384 658Q384
636 370 621T332 606Q310 606 296 621T281 658Q281 680 295 695T332 710Q355 710 369 695T384 658ZM194 658Q194 636 180 621T142 606Q120 606 105 621T90 658Q90 680 105 695T142 710Q165 710 179 695T194 658Z" />
<glyph unicode="&#xe5;" glyph-name="aring" horiz-adv-x="504" d="M475 3L323 -3Q323 25 324 50T328 96L326 97Q319 76 305 57T271 22T230 -1T183 -9Q113 -9 78 24T42 121Q42 158 59 187T110 237T197 268T319 279V353Q319 388 314 409T298 444T266 465T215 472Q193
472 172 467T139 455L106 351H76V475Q113 491 152 498T229 506Q276 506 309 498T363 473T396 426T407 356V40L475 30V3ZM319 247Q267 248 231 241T174 220T142 183T132 126Q132 77 150 54T207 30Q229 30 249 42T285 76T310 126T319 178V247ZM360 664Q360 641 350
622T323 589T283 569T238 562Q187 562 157 587T127 658Q127 681 136 701T164 734T204 754T249 761Q300 761 330 736T360 664ZM302 657Q302 690 286 711T240 732Q214 732 199 714T184 665Q184 632 201 611T247 590Q272 590 287 608T302 657Z" />
<glyph unicode="&#xe6;" glyph-name="ae" horiz-adv-x="766" d="M721 296Q721 287 721 280T720 264H406V245Q406 189 417 150T448 84T497 46T559 33Q600 33 637 41T714 67V34Q675 14 632 3T541 -9Q467 -9 418 20T345 109Q325 53 284 22T184 -9Q109 -9 76 27T42
121Q42 155 57 183T104 233T190 267T319 279V353Q319 384 315 406T299 443T267 465T215 472Q176 472 139 455L106 351H76V475Q110 489 149 497T229 506Q285 506 322 491T381 436Q408 469 446 487T535 506Q587 506 622 491T680 447T711 381T721 296ZM631 296Q631
336 627 368T611 424T579 460T529 473Q500 473 479 461T443 425T420 369T408 296H631ZM319 247Q261 248 225 240T168 216T140 178T132 127Q132 80 149 55T207 30Q229 30 249 40T285 67T310 108T319 158V247Z" />
<glyph unicode="&#xe7;" glyph-name="ccedilla" horiz-adv-x="459" d="M425 33Q397 18 363 7T293 -7L253 -61Q281 -75 294 -90T308 -128Q308 -159 279 -191T192 -254L174 -236Q202 -216 218 -194T235 -153Q235 -138 224 -125T186 -99L255 -7Q209 -5 172 10T106
55T61 133T45 246Q45 306 60 354T106 435T182 487T288 505Q321 505 355 501T416 489V346H387L356 457Q342 463 323 467T279 471Q237 471 210 456T167 413T145 346T139 251Q139 143 178 89T292 34Q309 34 325 36T357 42T391 52T425 66V33Z" />
<glyph unicode="&#xe8;" glyph-name="egrave" horiz-adv-x="496" d="M451 296Q451 287 451 280T451 264H138V245Q138 134 179 84T289 33Q330 33 368 41T444 67V34Q405 14 362 3T271 -9Q220 -9 178 6T107 52T61 131T45 246Q45 303 60 350T103 433T173 487T265 506Q319
506 354 491T411 447T442 381T451 296ZM361 296Q361 337 357 369T341 425T309 460T259 473Q202 473 173 426T139 296H361ZM286 577L115 699L173 763L304 598L286 577Z" />
<glyph unicode="&#xe9;" glyph-name="eacute" horiz-adv-x="496" d="M451 296Q451 287 451 280T451 264H138V245Q138 134 179 84T289 33Q330 33 368 41T444 67V34Q405 14 362 3T271 -9Q220 -9 178 6T107 52T61 131T45 246Q45 303 60 350T103 433T173 487T265 506Q319
506 354 491T411 447T442 381T451 296ZM361 296Q361 337 357 369T341 425T309 460T259 473Q202 473 173 426T139 296H361ZM225 577L207 598L338 763L396 699L225 577Z" />
<glyph unicode="&#xea;" glyph-name="ecircumflex" horiz-adv-x="496" d="M451 296Q451 287 451 280T451 264H138V245Q138 134 179 84T289 33Q330 33 368 41T444 67V34Q405 14 362 3T271 -9Q220 -9 178 6T107 52T61 131T45 246Q45 303 60 350T103 433T173 487T265
506Q319 506 354 491T411 447T442 381T451 296ZM361 296Q361 337 357 369T341 425T309 460T259 473Q202 473 173 426T139 296H361ZM374 577L256 671L145 577L125 597L260 764L394 597L374 577Z" />
<glyph unicode="&#xeb;" glyph-name="edieresis" horiz-adv-x="496" d="M451 296Q451 287 451 280T451 264H138V245Q138 134 179 84T289 33Q330 33 368 41T444 67V34Q405 14 362 3T271 -9Q220 -9 178 6T107 52T61 131T45 246Q45 303 60 350T103 433T173 487T265
506Q319 506 354 491T411 447T442 381T451 296ZM361 296Q361 337 357 369T341 425T309 460T259 473Q202 473 173 426T139 296H361ZM408 658Q408 636 394 621T356 606Q334 606 320 621T305 658Q305 680 319 695T356 710Q379 710 393 695T408 658ZM218 658Q218 636
204 621T166 606Q144 606 129 621T114 658Q114 680 129 695T166 710Q189 710 203 695T218 658Z" />
<glyph unicode="&#xec;" glyph-name="igrave" horiz-adv-x="302" d="M40 0V27L114 40V455L40 465V492L202 502V40L273 27V0H40ZM443 577L272 699L330 763L461 598L443 577Z" />
<glyph unicode="&#xed;" glyph-name="iacute" horiz-adv-x="302" d="M40 0V27L114 40V455L40 465V492L202 502V40L273 27V0H40ZM112 577L94 598L225 763L283 699L112 577Z" />
<glyph unicode="&#xee;" glyph-name="icircumflex" horiz-adv-x="302" d="M40 0V27L114 40V455L40 465V492L202 502V40L273 27V0H40ZM527 577L409 671L298 577L278 597L413 764L547 597L527 577Z" />
<glyph unicode="&#xef;" glyph-name="idieresis" horiz-adv-x="302" d="M40 0V27L114 40V455L40 465V492L202 502V40L273 27V0H40ZM549 658Q549 636 535 622T498 607Q476 607 462 621T447 658Q447 680 461 694T498 709Q520 709 534 695T549 658ZM378 658Q378 636
364 622T327 607Q304 607 290 621T275 658Q275 680 289 694T327 709Q349 709 363 695T378 658Z" />
<glyph unicode="&#xf0;" glyph-name="eth" horiz-adv-x="531" d="M127 541L110 571L225 630Q204 647 181 662T134 694L58 703V730L208 739Q236 722 259 705T305 669L430 733L447 703L331 643Q408 570 448 482T488 281Q488 210 470 156T419 66T342 10T244 -9Q194
-9 156 8T91 56T52 130T38 228Q38 291 55 341T104 426T183 480T288 501Q301 502 315 501T342 498Q324 529 302 555T253 606L127 541ZM288 466Q211 466 172 415T132 249Q132 142 166 85T263 27Q295 27 320 39T362 80T387 154T396 267Q396 324 387 370T362 455Q346
460 331 463T288 466Z" />
<glyph unicode="&#xf1;" glyph-name="ntilde" horiz-adv-x="626" d="M373 0V27L442 40V303Q442 344 437 373T421 424T389 455T337 466Q309 466 284 453T241 417T212 362T202 294V40L271 27V0H41V27L114 40V456L41 465V492L202 502Q202 480 201 460T199 427T195
391L197 390Q206 415 221 436T257 473T306 497T366 506Q449 506 489 456T530 305V40L598 27V0H373ZM485 685Q464 643 439 621T382 598Q363 598 348 604T313 624T282 643T255 649Q238 649 225 638T196 605L173 620Q194 662 219 684T276 707Q295 707 310 701T345
681T376 662T403 656Q420 656 433 667T462 700L485 685Z" />
<glyph unicode="&#xf2;" glyph-name="ograve" horiz-adv-x="579" d="M534 255Q534 188 515 138T460 55T379 7T282 -9Q170 -9 108 55T45 242Q45 309 65 359T120 442T201 490T297 506Q409 506 471 442T534 255ZM442 247Q442 355 403 413T288 472Q218 472 178 418T137
251Q137 143 176 85T291 26Q362 26 402 79T442 247ZM323 577L152 699L210 763L341 598L323 577Z" />
<glyph unicode="&#xf3;" glyph-name="oacute" horiz-adv-x="579" d="M534 255Q534 188 515 138T460 55T379 7T282 -9Q170 -9 108 55T45 242Q45 309 65 359T120 442T201 490T297 506Q409 506 471 442T534 255ZM442 247Q442 355 403 413T288 472Q218 472 178 418T137
251Q137 143 176 85T291 26Q362 26 402 79T442 247ZM258 577L240 598L371 763L429 699L258 577Z" />
<glyph unicode="&#xf4;" glyph-name="ocircumflex" horiz-adv-x="579" d="M534 255Q534 188 515 138T460 55T379 7T282 -9Q170 -9 108 55T45 242Q45 309 65 359T120 442T201 490T297 506Q409 506 471 442T534 255ZM442 247Q442 355 403 413T288 472Q218 472 178
418T137 251Q137 143 176 85T291 26Q362 26 402 79T442 247ZM403 577L285 671L174 577L154 597L289 764L423 597L403 577Z" />
<glyph unicode="&#xf5;" glyph-name="otilde" horiz-adv-x="579" d="M534 255Q534 188 515 138T460 55T379 7T282 -9Q170 -9 108 55T45 242Q45 309 65 359T120 442T201 490T297 506Q409 506 471 442T534 255ZM442 247Q442 355 403 413T288 472Q218 472 178 418T137
251Q137 143 176 85T291 26Q362 26 402 79T442 247ZM450 685Q429 643 404 621T347 598Q328 598 313 604T278 624T247 643T220 649Q203 649 190 638T161 605L138 620Q159 662 184 684T241 707Q260 707 275 701T310 681T341 662T368 656Q385 656 398 667T427 700L450
685Z" />
<glyph unicode="&#xf6;" glyph-name="odieresis" horiz-adv-x="579" d="M534 255Q534 188 515 138T460 55T379 7T282 -9Q170 -9 108 55T45 242Q45 309 65 359T120 442T201 490T297 506Q409 506 471 442T534 255ZM442 247Q442 355 403 413T288 472Q218 472 178
418T137 251Q137 143 176 85T291 26Q362 26 402 79T442 247ZM436 658Q436 636 422 621T384 606Q362 606 348 621T333 658Q333 680 347 695T384 710Q407 710 421 695T436 658ZM246 658Q246 636 232 621T194 606Q172 606 157 621T142 658Q142 680 157 695T194 710Q217
710 231 695T246 658Z" />
<glyph unicode="&#xf7;" glyph-name="divide" horiz-adv-x="550" d="M327 495Q327 484 323 475T312 458T296 447T275 443Q264 443 255 447T238 458T227 474T223 495Q223 505 227 514T238 531T254 542T275 546Q286 546 295 542T312 531T323 515T327 495ZM34 267V317H516V267H34ZM327
89Q327 79 323 70T312 53T296 42T275 38Q264 38 255 42T238 53T227 69T223 89Q223 100 227 109T238 126T254 137T275 141Q286 141 295 137T312 126T323 110T327 89Z" />
<glyph unicode="&#xf8;" glyph-name="oslash" horiz-adv-x="579" d="M534 255Q534 186 514 136T459 54T378 7T282 -9Q254 -9 229 -5T181 9L120 -104L87 -88L148 23Q98 53 72 107T45 242Q45 312 65 361T121 443T201 490T297 506Q326 506 352 502T400 487L460 597L493
580L434 472Q483 443 508 389T534 255ZM135 251Q135 195 146 153T180 84L376 442Q340 472 288 472Q255 472 227 460T178 421T146 352T135 251ZM444 247Q444 354 400 411L205 54Q241 26 291 26Q324 26 352 38T401 77T433 146T444 247Z" />
<glyph unicode="&#xf9;" glyph-name="ugrave" horiz-adv-x="611" d="M582 6L423 -4Q423 18 424 38T426 72T429 95T430 106L428 107Q419 82 404 61T367 24T318 0T261 -9Q176 -9 136 40T95 192Q95 242 95 289T96 372T97 428T98 456L29 465V492L187 502Q187 493 187
469T185 402T184 307T183 202Q183 165 187 135T202 82T235 46T288 32Q317 32 341 45T384 81T413 136T423 204V456L350 465V492L511 502V42L582 33V6ZM307 577L136 699L194 763L325 598L307 577Z" />
<glyph unicode="&#xfa;" glyph-name="uacute" horiz-adv-x="611" d="M582 6L423 -4Q423 18 424 38T426 72T429 95T430 106L428 107Q419 82 404 61T367 24T318 0T261 -9Q176 -9 136 40T95 192Q95 242 95 289T96 372T97 428T98 456L29 465V492L187 502Q187 493 187
469T185 402T184 307T183 202Q183 165 187 135T202 82T235 46T288 32Q317 32 341 45T384 81T413 136T423 204V456L350 465V492L511 502V42L582 33V6ZM279 577L261 598L392 763L450 699L279 577Z" />
<glyph unicode="&#xfb;" glyph-name="ucircumflex" horiz-adv-x="611" d="M582 6L423 -4Q423 18 424 38T426 72T429 95T430 106L428 107Q419 82 404 61T367 24T318 0T261 -9Q176 -9 136 40T95 192Q95 242 95 289T96 372T97 428T98 456L29 465V492L187 502Q187
493 187 469T185 402T184 307T183 202Q183 165 187 135T202 82T235 46T288 32Q317 32 341 45T384 81T413 136T423 204V456L350 465V492L511 502V42L582 33V6ZM416 577L298 671L187 577L167 597L302 764L436 597L416 577Z" />
<glyph unicode="&#xfc;" glyph-name="udieresis" horiz-adv-x="611" d="M582 6L423 -4Q423 18 424 38T426 72T429 95T430 106L428 107Q419 82 404 61T367 24T318 0T261 -9Q176 -9 136 40T95 192Q95 242 95 289T96 372T97 428T98 456L29 465V492L187 502Q187 493
187 469T185 402T184 307T183 202Q183 165 187 135T202 82T235 46T288 32Q317 32 341 45T384 81T413 136T423 204V456L350 465V492L511 502V42L582 33V6ZM449 658Q449 636 435 621T397 606Q375 606 361 621T346 658Q346 680 360 695T397 710Q420 710 434 695T449
658ZM259 658Q259 636 245 621T207 606Q185 606 170 621T155 658Q155 680 170 695T207 710Q230 710 244 695T259 658Z" />
<glyph unicode="&#xfd;" glyph-name="yacute" horiz-adv-x="548" d="M536 470L482 458L315 0Q287 -75 264 -123T198 -248H125L117 -226Q141 -201 164 -172T206 -112T243 -54T272 0H242L64 458L10 470V498H233V470L155 458L258 191Q270 161 281 130T302 73H303Q308
91 321 134T341 195L421 458L349 470V498H536V470ZM267 577L249 598L380 763L438 699L267 577Z" />
<glyph unicode="&#xfe;" glyph-name="thorn" horiz-adv-x="571" d="M526 257Q526 190 508 140T458 56T383 7T291 -9Q258 -9 230 -1T175 21V-208L249 -220V-248H13V-220L87 -208V692L13 701V728L175 738V498Q175 470 174 440T169 393L171 392Q180 417 195 437T231
474T278 498T332 506Q428 506 477 442T526 257ZM435 252Q435 355 403 410T310 466Q281 466 257 453T214 417T185 362T175 294V67Q197 48 226 37T292 26Q326 26 352 41T397 86T425 157T435 252Z" />
<glyph unicode="&#xff;" glyph-name="ydieresis" horiz-adv-x="548" d="M536 470L482 458L315 0Q287 -75 264 -123T198 -248H125L117 -226Q141 -201 164 -172T206 -112T243 -54T272 0H242L64 458L10 470V498H233V470L155 458L258 191Q270 161 281 130T302 73H303Q308
91 321 134T341 195L421 458L349 470V498H536V470ZM438 658Q438 636 424 621T386 606Q364 606 350 621T335 658Q335 680 349 695T386 710Q409 710 423 695T438 658ZM248 658Q248 636 234 621T196 606Q174 606 159 621T144 658Q144 680 159 695T196 710Q219 710
233 695T248 658Z" />
<glyph unicode="&#x100;" glyph-name="Amacron" horiz-adv-x="664" d="M420 0V27L506 40L453 183H172L124 40L210 27V0H12V27L64 40L303 682H362L600 40L652 27V0H420ZM307 586H306L183 219H441L307 586ZM202 767V807H466V767H202Z" />
<glyph unicode="&#x101;" glyph-name="amacron" horiz-adv-x="504" d="M475 3L323 -3Q323 25 324 50T328 96L326 97Q319 76 305 57T271 22T230 -1T183 -9Q113 -9 78 24T42 121Q42 158 59 187T110 237T197 268T319 279V353Q319 388 314 409T298 444T266 465T215
472Q193 472 172 467T139 455L106 351H76V475Q113 491 152 498T229 506Q276 506 309 498T363 473T396 426T407 356V40L475 30V3ZM319 247Q267 248 231 241T174 220T142 183T132 126Q132 77 150 54T207 30Q229 30 249 42T285 76T310 126T319 178V247ZM115 614V654H371V614H115Z"
/>
<glyph unicode="&#x102;" glyph-name="Abreve" horiz-adv-x="664" d="M420 0V27L506 40L453 183H172L124 40L210 27V0H12V27L64 40L303 682H362L600 40L652 27V0H420ZM307 586H306L183 219H441L307 586ZM453 885Q453 856 447 829T426 780T388 745T331 732Q296
732 273 745T236 779T216 827T210 885H240Q240 843 264 820T333 796Q375 796 399 819T423 885H453Z" />
<glyph unicode="&#x103;" glyph-name="abreve" horiz-adv-x="504" d="M475 3L323 -3Q323 25 324 50T328 96L326 97Q319 76 305 57T271 22T230 -1T183 -9Q113 -9 78 24T42 121Q42 158 59 187T110 237T197 268T319 279V353Q319 388 314 409T298 444T266 465T215
472Q193 472 172 467T139 455L106 351H76V475Q113 491 152 498T229 506Q276 506 309 498T363 473T396 426T407 356V40L475 30V3ZM319 247Q267 248 231 241T174 220T142 183T132 126Q132 77 150 54T207 30Q229 30 249 42T285 76T310 126T319 178V247ZM358 744Q358
714 352 687T332 639T296 605T242 592Q211 592 189 604T153 638T133 686T127 744H158Q158 704 181 680T244 656Q282 656 305 680T328 744H358Z" />
<glyph unicode="&#x104;" glyph-name="Aogonek" horiz-adv-x="664" d="M420 0V27L506 40L453 183H172L124 40L210 27V0H12V27L64 40L303 682H362L600 40L652 27V0H420ZM307 586H306L183 219H441L307 586ZM616 -222Q594 -236 570 -244T520 -252Q474 -252 443 -228T411
-162Q411 -141 419 -120T443 -79T481 -40T532 0H575Q529 -36 509 -70T489 -142Q489 -175 503 -192T546 -210Q562 -210 578 -206T616 -195V-222Z" />
<glyph unicode="&#x105;" glyph-name="aogonek" horiz-adv-x="504" d="M454 -222Q430 -236 405 -244T355 -252Q307 -252 278 -228T249 -162Q249 -115 287 -70T383 -1Q350 -2 334 25T328 96L326 97Q320 78 307 59T275 25T233 0T183 -9Q112 -9 77 25T42 121Q42 156
57 185T106 235T193 267T319 279V353Q319 419 297 445T215 472Q168 472 139 455L106 351H76V475Q113 490 152 498T229 506Q276 506 309 498T364 472T396 426T407 356V83Q407 67 410 58T421 44T438 37T475 30V3Q434 -2 405 -17T359 -53T335 -96T327 -141Q327 -175
341 -192T384 -210Q401 -210 418 -206T454 -195V-222ZM319 247Q264 248 227 241T170 218T141 180T132 127Q132 78 150 54T207 30Q230 30 250 42T286 76T310 124T319 175V247Z" />
<glyph unicode="&#x106;" glyph-name="Cacute" horiz-adv-x="604" d="M555 46Q512 21 461 6T355 -9Q282 -9 224 13T125 77T63 183T42 329Q42 419 68 486T140 598T247 663T376 684Q422 684 461 679T538 662V505H507L468 629Q448 637 421 641T364 645Q307 645 266
626T197 569T156 474T142 339Q142 267 156 210T200 114T272 55T373 34Q420 34 467 46T555 83V46ZM299 738L287 765L463 880L497 810L299 738Z" />
<glyph unicode="&#x107;" glyph-name="cacute" horiz-adv-x="459" d="M292 34Q325 34 357 42T425 66V33Q393 15 352 4T268 -8Q220 -8 180 6T110 50T62 130T45 246Q45 306 60 354T106 435T182 487T288 505Q321 505 354 501T416 489V346H387L356 457Q342 463 323
467T279 471Q237 471 210 456T167 413T145 346T139 251Q139 143 178 89T292 34ZM231 577L213 598L344 763L402 699L231 577Z" />
<glyph unicode="&#x108;" glyph-name="Ccircumflex" horiz-adv-x="604" d="M555 46Q512 21 461 6T355 -9Q282 -9 224 13T125 77T63 183T42 329Q42 419 68 486T140 598T247 663T376 684Q422 684 461 679T538 662V505H507L468 629Q448 637 421 641T364 645Q307 645
266 626T197 569T156 474T142 339Q142 267 156 210T200 114T272 55T373 34Q420 34 467 46T555 83V46ZM474 738L342 806L214 738L199 762L344 883L490 762L474 738Z" />
<glyph unicode="&#x109;" glyph-name="ccircumflex" horiz-adv-x="459" d="M292 34Q325 34 357 42T425 66V33Q393 15 352 4T268 -8Q220 -8 180 6T110 50T62 130T45 246Q45 306 60 354T106 435T182 487T288 505Q321 505 354 501T416 489V346H387L356 457Q342 463
323 467T279 471Q237 471 210 456T167 413T145 346T139 251Q139 143 178 89T292 34ZM368 577L250 671L139 577L119 597L254 764L388 597L368 577Z" />
<glyph unicode="&#x10a;" glyph-name="Cdotaccent" horiz-adv-x="604" d="M555 46Q512 21 461 6T355 -9Q282 -9 224 13T125 77T63 183T42 329Q42 419 68 486T140 598T247 663T376 684Q422 684 461 679T538 662V505H507L468 629Q448 637 421 641T364 645Q307 645
266 626T197 569T156 474T142 339Q142 267 156 210T200 114T272 55T373 34Q420 34 467 46T555 83V46ZM400 792Q400 781 396 771T384 752T366 740T343 735Q320 735 304 752T287 792Q287 804 291 814T303 832T321 844T343 849Q367 849 383 833T400 792Z" />
<glyph unicode="&#x10b;" glyph-name="cdotaccent" horiz-adv-x="459" d="M292 34Q325 34 357 42T425 66V33Q393 15 352 4T268 -8Q220 -8 180 6T110 50T62 130T45 246Q45 306 60 354T106 435T182 487T288 505Q321 505 354 501T416 489V346H387L356 457Q342 463
323 467T279 471Q237 471 210 456T167 413T145 346T139 251Q139 143 178 89T292 34ZM318 658Q318 646 314 636T303 618T284 605T262 600Q250 600 240 605T222 617T210 635T205 658Q205 669 209 679T221 698T239 710T262 715Q273 715 284 711T302 698T314 680T318
658Z" />
<glyph unicode="&#x10c;" glyph-name="Ccaron" horiz-adv-x="604" d="M555 46Q512 21 461 6T355 -9Q282 -9 224 13T125 77T63 183T42 329Q42 419 68 486T140 598T247 663T376 684Q422 684 461 679T538 662V505H507L468 629Q448 637 421 641T364 645Q307 645 266
626T197 569T156 474T142 339Q142 267 156 210T200 114T272 55T373 34Q420 34 467 46T555 83V46ZM223 876L355 809L483 876L499 852L353 731L208 852L223 876Z" />
<glyph unicode="&#x10d;" glyph-name="ccaron" horiz-adv-x="459" d="M292 34Q325 34 357 42T425 66V33Q393 15 352 4T268 -8Q220 -8 180 6T110 50T62 130T45 246Q45 306 60 354T106 435T182 487T288 505Q321 505 354 501T416 489V346H387L356 457Q342 463 323
467T279 471Q237 471 210 456T167 413T145 346T139 251Q139 143 178 89T292 34ZM268 576L133 743L153 764L272 669L382 764L402 743L268 576Z" />
<glyph unicode="&#x10e;" glyph-name="Dcaron" horiz-adv-x="722" d="M681 343Q681 258 655 193T580 84T463 19T309 -3Q190 -2 117 0H38V27L115 40V635L38 648V675H117Q213 677 322 679Q413 679 480 658T591 595T658 491T681 343ZM587 338Q587 410 570 466T518
563T433 624T316 645Q279 645 255 644T205 639V41Q227 37 256 35T322 32Q385 32 434 50T517 105T569 201T587 338ZM198 876L330 809L458 876L474 852L328 731L183 852L198 876Z" />
<glyph unicode="&#x10f;" glyph-name="dcaron" horiz-adv-x="608" d="M555 3L399 -3V19Q399 45 400 68T404 107L402 108Q393 83 378 62T342 25T294 0T239 -9Q144 -9 95 55T45 240Q45 308 63 358T113 441T188 490T281 506Q315 506 343 498T397 476V692L322 701V728L485
738V40L555 30V3ZM397 432Q375 450 346 461T280 472Q212 472 175 412T137 245Q137 194 145 155T168 88T207 46T262 32Q290 32 315 45T358 81T386 136T397 204V432ZM554 584L523 591L567 794L638 774L554 584Z" />
<glyph unicode="&#x110;" glyph-name="Dcroat" horiz-adv-x="741" d="M700 343Q700 258 674 193T599 84T482 19T328 -3Q209 -2 136 0H57V27L134 40V332H21V365H134V635L57 648V675H136Q232 677 341 679Q432 679 499 658T610 595T677 491T700 343ZM606 338Q606
410 589 466T537 563T452 624T335 645Q298 645 274 644T224 639V365H400V332H224V41Q246 37 275 35T341 32Q404 32 453 50T536 105T588 201T606 338Z" />
<glyph unicode="&#x111;" glyph-name="dcroat" horiz-adv-x="585" d="M485 583V40L555 30V3L399 -3V40Q399 58 400 76T404 107L402 108Q393 83 378 62T341 25T294 0T239 -9Q145 -9 95 55T45 240Q45 304 62 353T112 435T188 484T283 501Q314 501 343 494T397 472V583H226V616H397V695L322
704V731L485 741V616H568V583H485ZM397 428Q373 447 345 456T282 466Q245 466 218 452T172 409T146 340T137 245Q137 195 145 155T169 88T208 46T262 32Q290 32 315 45T358 81T386 136T397 204V428Z" />
<glyph unicode="&#x112;" glyph-name="Emacron" horiz-adv-x="538" d="M38 0V27L115 40V635L38 648V675H466V531H435L398 640L205 642V365H362L391 447H419V249H391L362 330H205V34L400 36L437 151H468V0H38ZM133 767V807H397V767H133Z" />
<glyph unicode="&#x113;" glyph-name="emacron" horiz-adv-x="496" d="M451 296Q451 287 451 280T451 264H138V245Q138 134 179 84T289 33Q330 33 368 41T444 67V34Q405 14 362 3T271 -9Q220 -9 178 6T107 52T61 131T45 246Q45 303 60 350T103 433T173 487T265
506Q319 506 354 491T411 447T442 381T451 296ZM361 296Q361 337 357 369T341 425T309 460T259 473Q202 473 173 426T139 296H361ZM123 614V654H379V614H123Z" />
<glyph unicode="&#x114;" glyph-name="Ebreve" horiz-adv-x="538" d="M38 0V27L115 40V635L38 648V675H466V531H435L398 640L205 642V365H362L391 447H419V249H391L362 330H205V34L400 36L437 151H468V0H38ZM403 885Q403 856 397 829T376 780T338 745T281 732Q246
732 223 745T186 779T166 827T160 885H190Q190 843 214 820T283 796Q325 796 349 819T373 885H403Z" />
<glyph unicode="&#x115;" glyph-name="ebreve" horiz-adv-x="496" d="M451 296Q451 287 451 280T451 264H138V245Q138 134 179 84T289 33Q330 33 368 41T444 67V34Q405 14 362 3T271 -9Q220 -9 178 6T107 52T61 131T45 246Q45 303 60 350T103 433T173 487T265
506Q319 506 354 491T411 447T442 381T451 296ZM361 296Q361 337 357 369T341 425T309 460T259 473Q202 473 173 426T139 296H361ZM373 744Q373 714 367 687T347 639T311 605T257 592Q226 592 204 604T168 638T148 686T142 744H173Q173 704 196 680T259 656Q297
656 320 680T343 744H373Z" />
<glyph unicode="&#x116;" glyph-name="Edotaccent" horiz-adv-x="538" d="M38 0V27L115 40V635L38 648V675H466V531H435L398 640L205 642V365H362L391 447H419V249H391L362 330H205V34L400 36L437 151H468V0H38ZM325 791Q325 780 321 770T309 751T291 739T268
734Q245 734 229 751T212 791Q212 803 216 813T228 831T246 843T268 848Q292 848 308 832T325 791Z" />
<glyph unicode="&#x117;" glyph-name="edotaccent" horiz-adv-x="496" d="M451 296Q451 287 451 280T451 264H138V245Q138 134 179 84T289 33Q330 33 368 41T444 67V34Q405 14 362 3T271 -9Q220 -9 178 6T107 52T61 131T45 246Q45 303 60 350T103 433T173 487T265
506Q319 506 354 491T411 447T442 381T451 296ZM361 296Q361 337 357 369T341 425T309 460T259 473Q202 473 173 426T139 296H361ZM312 658Q312 646 308 636T297 618T278 605T256 600Q244 600 234 605T216 617T204 635T199 658Q199 669 203 679T215 698T233 710T256
715Q267 715 278 711T296 698T308 680T312 658Z" />
<glyph unicode="&#x118;" glyph-name="Eogonek" horiz-adv-x="538" d="M464 -222Q444 -234 419 -243T365 -252Q343 -252 324 -246T290 -230T268 -202T259 -162Q259 -135 271 -110T303 -64T350 -26T408 0H38V27L115 40V635L38 648V675H466V531H435L398 640L205
642V365H362L391 447H419V249H391L362 330H205V34L400 36L437 151H468V0Q426 -11 400 -28T360 -63T342 -102T337 -142Q337 -210 394 -210Q411 -210 427 -206T464 -195V-222Z" />
<glyph unicode="&#x119;" glyph-name="eogonek" horiz-adv-x="496" d="M411 -222Q386 -236 361 -244T311 -252Q289 -252 270 -246T237 -229T214 -201T206 -162Q206 -140 215 -118T241 -76T281 -37T333 -2Q320 -5 303 -7T271 -9Q220 -9 178 6T107 52T61 131T45
246Q45 302 59 350T102 433T170 487T261 506Q314 506 350 491T408 448T441 381T451 296Q451 287 451 280T451 265H137V245Q137 190 148 150T179 84T227 46T289 33Q330 33 368 41T444 67V34Q398 14 368 -7T318 -49T292 -94T284 -141Q284 -174 297 -192T341 -210Q358
-210 374 -206T411 -195V-222ZM361 296Q361 343 355 377T335 432T302 463T255 473Q229 473 209 463T174 431T150 377T138 296H361Z" />
<glyph unicode="&#x11a;" glyph-name="Ecaron" horiz-adv-x="538" d="M38 0V27L115 40V635L38 648V675H466V531H435L398 640L205 642V365H362L391 447H419V249H391L362 330H205V34L400 36L437 151H468V0H38ZM140 876L272 809L400 876L416 852L270 731L125 852L140 876Z" />
<glyph unicode="&#x11b;" glyph-name="ecaron" horiz-adv-x="496" d="M451 296Q451 287 451 280T451 264H138V245Q138 134 179 84T289 33Q330 33 368 41T444 67V34Q405 14 362 3T271 -9Q220 -9 178 6T107 52T61 131T45 246Q45 303 60 350T103 433T173 487T265
506Q319 506 354 491T411 447T442 381T451 296ZM361 296Q361 337 357 369T341 425T309 460T259 473Q202 473 173 426T139 296H361ZM249 576L114 743L134 764L253 669L363 764L383 743L249 576Z" />
<glyph unicode="&#x11c;" glyph-name="Gcircumflex" horiz-adv-x="706" d="M671 311L608 299V49Q554 22 489 7T356 -9Q283 -9 225 12T126 76T64 182T42 329Q42 419 68 487T143 599T254 663T392 684Q422 684 449 682T501 677T547 669T595 658V503H564L525 623Q495
634 461 640T377 646Q320 646 276 628T203 571T158 475T142 339Q142 192 199 112T366 31Q407 31 447 38T519 58V299L442 311V339H671V311ZM509 738L377 806L249 738L234 762L379 883L525 762L509 738Z" />
<glyph unicode="&#x11d;" glyph-name="gcircumflex" horiz-adv-x="532" d="M491 445L366 468Q404 453 428 418T452 339Q452 293 437 259T393 202T328 169T246 158Q226 158 210 160T177 167Q166 156 159 142T151 113Q151 102 155 94T170 81T198 74T241 70L337 66Q382
64 414 54T467 25T496 -16T506 -68Q506 -107 486 -141T430 -202T346 -242T243 -256Q136 -256 82 -221T28 -125Q28 -102 37 -82T62 -46T98 -18T142 4Q108 13 92 31T75 78Q75 94 81 108T97 135T120 158T148 175Q102 195 79 234T56 325Q56 370 71 404T114 461T179
495T262 506Q280 506 298 504T332 498H491V445ZM219 -6Q205 -5 195 -4T176 -2Q142 -25 127 -52T112 -112Q112 -163 150 -192T259 -221Q298 -221 330 -211T384 -184T417 -143T428 -92Q428 -53 403 -33T313 -9L219 -6ZM364 333Q364 368 356 395T333 439T298 464T254
473Q203 473 174 438T144 333Q144 260 174 226T254 191Q305 191 334 226T364 333ZM369 577L251 671L140 577L120 597L255 764L389 597L369 577Z" />
<glyph unicode="&#x11e;" glyph-name="Gbreve" horiz-adv-x="706" d="M671 311L608 299V49Q554 22 489 7T356 -9Q283 -9 225 12T126 76T64 182T42 329Q42 419 68 487T143 599T254 663T392 684Q422 684 449 682T501 677T547 669T595 658V503H564L525 623Q495 634
461 640T377 646Q320 646 276 628T203 571T158 475T142 339Q142 192 199 112T366 31Q407 31 447 38T519 58V299L442 311V339H671V311ZM496 885Q496 856 490 829T469 780T431 745T374 732Q339 732 316 745T279 779T259 827T253 885H283Q283 843 307 820T376 796Q418
796 442 819T466 885H496Z" />
<glyph unicode="&#x11f;" glyph-name="gbreve" horiz-adv-x="532" d="M491 445L366 468Q404 453 428 418T452 339Q452 293 437 259T393 202T328 169T246 158Q226 158 210 160T177 167Q166 156 159 142T151 113Q151 102 155 94T170 81T198 74T241 70L337 66Q382
64 414 54T467 25T496 -16T506 -68Q506 -107 486 -141T430 -202T346 -242T243 -256Q136 -256 82 -221T28 -125Q28 -102 37 -82T62 -46T98 -18T142 4Q108 13 92 31T75 78Q75 94 81 108T97 135T120 158T148 175Q102 195 79 234T56 325Q56 370 71 404T114 461T179
495T262 506Q280 506 298 504T332 498H491V445ZM219 -6Q205 -5 195 -4T176 -2Q142 -25 127 -52T112 -112Q112 -163 150 -192T259 -221Q298 -221 330 -211T384 -184T417 -143T428 -92Q428 -53 403 -33T313 -9L219 -6ZM364 333Q364 368 356 395T333 439T298 464T254
473Q203 473 174 438T144 333Q144 260 174 226T254 191Q305 191 334 226T364 333ZM370 744Q370 714 364 687T344 639T308 605T254 592Q223 592 201 604T165 638T145 686T139 744H170Q170 704 193 680T256 656Q294 656 317 680T340 744H370Z" />
<glyph unicode="&#x120;" glyph-name="Gdotaccent" horiz-adv-x="706" d="M671 311L608 299V49Q554 22 489 7T356 -9Q283 -9 225 12T126 76T64 182T42 329Q42 419 68 487T143 599T254 663T392 684Q422 684 449 682T501 677T547 669T595 658V503H564L525 623Q495
634 461 640T377 646Q320 646 276 628T203 571T158 475T142 339Q142 192 199 112T366 31Q407 31 447 38T519 58V299L442 311V339H671V311ZM426 792Q426 781 422 771T410 752T392 740T369 735Q346 735 330 752T313 792Q313 804 317 814T329 832T347 844T369 849Q393
849 409 833T426 792Z" />
<glyph unicode="&#x121;" glyph-name="gdotaccent" horiz-adv-x="532" d="M491 445L366 468Q404 453 428 418T452 339Q452 293 437 259T393 202T328 169T246 158Q226 158 210 160T177 167Q166 156 159 142T151 113Q151 102 155 94T170 81T198 74T241 70L337 66Q382
64 414 54T467 25T496 -16T506 -68Q506 -107 486 -141T430 -202T346 -242T243 -256Q136 -256 82 -221T28 -125Q28 -102 37 -82T62 -46T98 -18T142 4Q108 13 92 31T75 78Q75 94 81 108T97 135T120 158T148 175Q102 195 79 234T56 325Q56 370 71 404T114 461T179
495T262 506Q280 506 298 504T332 498H491V445ZM219 -6Q205 -5 195 -4T176 -2Q142 -25 127 -52T112 -112Q112 -163 150 -192T259 -221Q298 -221 330 -211T384 -184T417 -143T428 -92Q428 -53 403 -33T313 -9L219 -6ZM364 333Q364 368 356 395T333 439T298 464T254
473Q203 473 174 438T144 333Q144 260 174 226T254 191Q305 191 334 226T364 333ZM311 658Q311 646 307 636T296 618T277 605T255 600Q243 600 233 605T215 617T203 635T198 658Q198 669 202 679T214 698T232 710T255 715Q266 715 277 711T295 698T307 680T311
658Z" />
<glyph unicode="&#x122;" glyph-name="Gcommaaccent" horiz-adv-x="706" d="M671 311L608 299V49Q554 22 489 7T356 -9Q283 -9 225 12T126 76T64 182T42 329Q42 419 68 487T143 599T254 663T392 684Q422 684 449 682T501 677T547 669T595 658V503H564L525 623Q495
634 461 640T377 646Q320 646 276 628T203 571T158 475T142 339Q142 192 199 112T366 31Q407 31 447 38T519 58V299L442 311V339H671V311ZM421 -107Q421 -147 389 -186T296 -258L283 -234Q330 -199 340 -173T332 -110Q327 -97 327 -86T333 -66T348 -52T370 -47Q393
-47 407 -64T421 -107Z" />
<glyph unicode="&#x123;" glyph-name="gcommaaccent" horiz-adv-x="532" d="M491 445L366 468Q404 453 428 418T452 339Q452 293 437 259T393 202T328 169T246 158Q226 158 210 160T177 167Q166 156 159 142T151 113Q151 102 155 94T170 81T198 74T241 70L337
66Q382 64 414 54T467 25T496 -16T506 -68Q506 -107 486 -141T430 -202T346 -242T243 -256Q136 -256 82 -221T28 -125Q28 -102 37 -82T62 -46T98 -18T142 4Q108 13 92 31T75 78Q75 94 81 108T97 135T120 158T148 175Q102 195 79 234T56 325Q56 370 71 404T114 461T179
495T262 506Q280 506 298 504T332 498H491V445ZM219 -6Q205 -5 195 -4T176 -2Q142 -25 127 -52T112 -112Q112 -163 150 -192T259 -221Q298 -221 330 -211T384 -184T417 -143T428 -92Q428 -53 403 -33T313 -9L219 -6ZM364 333Q364 368 356 395T333 439T298 464T254
473Q203 473 174 438T144 333Q144 260 174 226T254 191Q305 191 334 226T364 333ZM342 754Q291 717 284 690T293 630Q299 618 299 607T293 587T277 572T255 567Q232 567 218 584T204 627Q204 665 235 704T329 778L342 754Z" />
<glyph unicode="&#x124;" glyph-name="Hcircumflex" horiz-adv-x="771" d="M493 0V27L566 40V331H205V40L278 27V0H38V27L115 40V635L38 648V675H278V648L205 635V370H566V635L493 648V675H733V648L656 635V40L733 27V0H493ZM516 738L384 806L256 738L241 762L386
883L532 762L516 738Z" />
<glyph unicode="&#x125;" glyph-name="hcircumflex" horiz-adv-x="611" d="M359 0V27L428 40V303Q428 345 423 375T406 425T374 456T323 466Q295 466 270 453T227 417T198 362T188 294V40L257 27V0H29V27L100 40V692L26 701V728L188 738V490Q188 460 186 435T182
393L184 392Q193 417 208 438T244 474T293 498T353 506Q436 506 476 454T516 305V40L584 27V0H359ZM535 759L403 827L275 759L260 783L405 904L551 783L535 759Z" />
<glyph unicode="&#x126;" glyph-name="Hbar" horiz-adv-x="771" d="M205 476V363H566V476H205ZM656 40L733 27V0H493V27L566 40V323H205V40L278 27V0H38V27L115 40V476H38V512H115V635L38 648V675H278V648L205 635V512H566V635L493 648V675H733V648L656 635V512H733V476H656V40Z"
/>
<glyph unicode="&#x127;" glyph-name="hbar" horiz-adv-x="611" d="M17 617H100V695L26 704V731L188 741V617H339V584H188Q188 559 188 531T187 477T185 429T182 391L184 390Q201 439 244 472T353 505Q401 505 433 488T484 441T509 376T516 305V40L584 27V0H359V27L428
40V301Q428 342 423 372T406 423T374 454T323 464Q294 464 270 451T227 414T198 360T188 292V40L257 27V0H29V27L100 40V584H17V617Z" />
<glyph unicode="&#x128;" glyph-name="Itilde" horiz-adv-x="320" d="M38 0V27L115 40V635L38 648V675H281V648L205 635V40L281 27V0H38ZM575 840Q555 800 530 777T473 753Q450 753 435 761T405 778T377 796T346 804Q326 804 313 791T287 760L264 775Q284 815
309 838T366 862Q388 862 404 854T434 837T462 819T493 811Q512 811 525 823T552 855L575 840Z" />
<glyph unicode="&#x129;" glyph-name="itilde" horiz-adv-x="302" d="M40 0V27L114 40V455L40 465V492L202 502V40L273 27V0H40ZM566 685Q545 643 520 621T463 598Q444 598 429 604T394 624T363 643T336 649Q319 649 306 638T277 605L254 620Q275 662 300 684T357
707Q376 707 391 701T426 681T457 662T484 656Q501 656 514 667T543 700L566 685Z" />
<glyph unicode="&#x12a;" glyph-name="Imacron" horiz-adv-x="320" d="M38 0V27L115 40V635L38 648V675H281V648L205 635V40L281 27V0H38ZM283 767V807H547V767H283Z" />
<glyph unicode="&#x12b;" glyph-name="imacron" horiz-adv-x="302" d="M40 0V27L114 40V455L40 465V492L202 502V40L273 27V0H40ZM281 614V654H537V614H281Z" />
<glyph unicode="&#x12c;" glyph-name="Ibreve" horiz-adv-x="320" d="M38 0V27L115 40V635L38 648V675H281V648L205 635V40L281 27V0H38ZM538 885Q538 856 532 829T511 780T473 745T416 732Q381 732 358 745T321 779T301 827T295 885H325Q325 843 349 820T418
796Q460 796 484 819T508 885H538Z" />
<glyph unicode="&#x12d;" glyph-name="ibreve" horiz-adv-x="302" d="M40 0V27L114 40V455L40 465V492L202 502V40L273 27V0H40ZM525 744Q525 714 519 687T499 639T463 605T409 592Q378 592 356 604T320 638T300 686T294 744H325Q325 704 348 680T411 656Q449
656 472 680T495 744H525Z" />
<glyph unicode="&#x12e;" glyph-name="Iogonek" horiz-adv-x="320" d="M200 0Q154 -36 134 -70T114 -142Q114 -175 128 -192T171 -210Q187 -210 203 -206T241 -195V-222Q219 -236 195 -244T145 -252Q99 -252 68 -228T36 -162Q36 -141 44 -120T68 -79T106 -40T157
0H38V27L115 40V635L38 648V675H281V648L205 635V40L281 27V0H200Z" />
<glyph unicode="&#x12f;" glyph-name="iogonek" horiz-adv-x="302" d="M249 -222Q229 -234 204 -243T149 -252Q127 -252 108 -246T75 -230T52 -202T44 -162Q44 -116 75 -77T161 0H40V27L114 40V455L40 465V492L202 502V40L273 27V0H204Q158 -37 140 -70T122 -142Q122
-210 179 -210Q195 -210 212 -206T249 -195V-222ZM219 657Q219 644 215 633T202 614T183 602T159 597Q145 597 135 601T116 614T103 633T99 657Q99 670 103 681T115 699T134 712T159 717Q172 717 182 712T201 700T214 681T219 657Z" />
<glyph unicode="&#x130;" glyph-name="Idotaccent" horiz-adv-x="320" d="M38 0V27L115 40V635L38 648V675H281V648L205 635V40L281 27V0H38ZM219 791Q219 780 215 770T203 751T185 739T162 734Q139 734 123 751T106 791Q106 803 110 813T122 831T140 843T162
848Q186 848 202 832T219 791Z" />
<glyph unicode="&#x131;" glyph-name="dotlessi" horiz-adv-x="302" d="M40 0V27L114 40V455L40 465V492L202 502V40L273 27V0H40Z" />
<glyph unicode="&#x132;" glyph-name="IJ" horiz-adv-x="623" d="M38 0V27L115 40V635L38 648V675H281V648L205 635V40L281 27V0H38ZM518 635V90Q518 42 508 8T478 -52T428 -97T359 -134L342 -109Q366 -95 382 -81T408 -44T423 10T428 92V635L353 648V675H582V648L518
635Z" />
<glyph unicode="&#x133;" glyph-name="ij" horiz-adv-x="574" d="M219 657Q219 644 215 634T202 615T183 602T159 597Q146 597 135 601T116 614T103 633T99 657Q99 669 103 680T115 699T135 712T159 717Q172 717 182 712T201 699T214 680T219 657ZM40 0V27L114
40V455L40 465V492L202 502V40L273 27V0H40ZM310 -220Q340 -220 356 -215T382 -194T395 -149T399 -70V455L328 465V492L487 502V-60Q487 -119 478 -157T447 -216T392 -245T310 -248V-220ZM504 657Q504 644 500 634T487 615T468 602T444 597Q430 597 420 601T401
614T388 633T384 657Q384 669 388 680T400 699T419 712T444 717Q457 717 467 712T486 699T499 680T504 657Z" />
<glyph unicode="&#x134;" glyph-name="Jcircumflex" horiz-adv-x="303" d="M198 635V90Q198 42 188 8T158 -52T108 -97T39 -134L22 -109Q46 -95 62 -81T88 -44T103 10T108 92V635L33 648V675H262V648L198 635ZM540 738L408 806L280 738L265 762L410 883L556 762L540 738Z" />
<glyph unicode="&#x135;" glyph-name="jcircumflex" horiz-adv-x="275" d="M11 -220Q39 -220 56 -215T83 -194T96 -148T100 -70V455L29 465V492L188 502V-60Q188 -119 179 -157T148 -216T92 -245T11 -248V-220ZM508 577L390 671L279 577L259 597L394 764L528 597L508
577Z" />
<glyph unicode="&#x136;" glyph-name="Kcommaaccent" horiz-adv-x="661" d="M406 0V27L481 40L205 338V40L276 27V0H38V27L115 40V635L38 648V675H274V648L205 635V352L487 635L413 648V675H621V648L560 635L283 380L601 40L652 27V0H406ZM393 -107Q393 -147 361
-186T268 -258L255 -234Q302 -199 312 -173T304 -110Q299 -97 299 -86T305 -66T320 -52T342 -47Q365 -47 379 -64T393 -107Z" />
<glyph unicode="&#x137;" glyph-name="kcommaaccent" horiz-adv-x="538" d="M395 0L188 262V40L253 27V0H29V27L100 40V692L26 701V728L188 738V267L368 458L292 470V498H504V470L437 458L269 295L474 40L526 27V0H395ZM337 -107Q337 -147 305 -186T212 -258L199
-234Q246 -199 256 -173T248 -110Q243 -97 243 -86T249 -66T264 -52T286 -47Q309 -47 323 -64T337 -107Z" />
<glyph unicode="&#x138;" glyph-name="kgreenlandic" horiz-adv-x="553" d="M403 0L202 252V40L267 27V0H40V27L114 40V456L40 465V492L202 502V257L389 458L305 470V498H525V470L460 458L283 287L482 40L534 27V0H403Z" />
<glyph unicode="&#x139;" glyph-name="Lacute" horiz-adv-x="507" d="M38 0V27L115 40V635L38 648V675H281V648L205 635V34L409 36L447 162H478V0H38ZM177 738L165 765L341 880L375 810L177 738Z" />
<glyph unicode="&#x13a;" glyph-name="lacute" horiz-adv-x="288" d="M29 0V27L100 40V692L26 701V728L188 738V40L258 27V0H29ZM96 784L84 811L260 926L294 856L96 784Z" />
<glyph unicode="&#x13b;" glyph-name="Lcommaaccent" horiz-adv-x="507" d="M38 0V27L115 40V635L38 648V675H281V648L205 635V34L409 36L447 162H478V0H38ZM324 -107Q324 -147 292 -186T199 -258L186 -234Q233 -199 243 -173T235 -110Q230 -97 230 -86T236 -66T251
-52T273 -47Q296 -47 310 -64T324 -107Z" />
<glyph unicode="&#x13c;" glyph-name="lcommaaccent" horiz-adv-x="288" d="M29 0V27L100 40V692L26 701V728L188 738V40L258 27V0H29ZM195 -107Q195 -147 163 -186T70 -258L57 -234Q104 -199 114 -173T106 -110Q101 -97 101 -86T107 -66T122 -52T144 -47Q167
-47 181 -64T195 -107Z" />
<glyph unicode="&#x13d;" glyph-name="Lcaron" horiz-adv-x="508" d="M38 0V27L115 40V635L38 648V675H281V648L205 635V34L409 36L447 162H478V0H38ZM369 584L338 591L382 794L453 774L369 584Z" />
<glyph unicode="&#x13e;" glyph-name="lcaron" horiz-adv-x="311" d="M29 0V27L100 40V692L26 701V728L188 738V40L258 27V0H29ZM257 584L226 591L270 794L341 774L257 584Z" />
<glyph unicode="&#x141;" glyph-name="Lslash" horiz-adv-x="527" d="M59 0V27L135 40V348L55 298L37 329L135 390V635L59 648V675H302V648L225 635V443L348 520L367 489L225 401V34L429 36L468 162H498V0H59Z" />
<glyph unicode="&#x142;" glyph-name="lslash" horiz-adv-x="332" d="M211 422V40L284 27V0H50V27L123 40V369L44 318L25 349L123 411V692L50 701V728L211 738V464L290 515L308 484L211 422Z" />
<glyph unicode="&#x143;" glyph-name="Nacute" horiz-adv-x="719" d="M557 -7L157 576H156L178 40L256 27V0H38V27L117 40L118 635L38 648V675H201L568 141H569L551 635L477 648V675H672V648L609 635V-7H557ZM332 738L320 765L496 880L530 810L332 738Z" />
<glyph unicode="&#x144;" glyph-name="nacute" horiz-adv-x="626" d="M373 0V27L442 40V303Q442 344 437 373T421 424T389 455T337 466Q309 466 284 453T241 417T212 362T202 294V40L271 27V0H41V27L114 40V456L41 465V492L202 502Q202 480 201 460T199 427T195
391L197 390Q206 415 221 436T257 473T306 497T366 506Q449 506 489 456T530 305V40L598 27V0H373ZM298 577L280 598L411 763L469 699L298 577Z" />
<glyph unicode="&#x145;" glyph-name="Ncommaaccent" horiz-adv-x="719" d="M557 -7L157 576H156L178 40L256 27V0H38V27L117 40L118 635L38 648V675H201L568 141H569L551 635L477 648V675H672V648L609 635V-7H557ZM433 -107Q433 -147 401 -186T308 -258L295 -234Q342
-199 352 -173T344 -110Q339 -97 339 -86T345 -66T360 -52T382 -47Q405 -47 419 -64T433 -107Z" />
<glyph unicode="&#x146;" glyph-name="ncommaaccent" horiz-adv-x="626" d="M373 0V27L442 40V303Q442 344 437 373T421 424T389 455T337 466Q309 466 284 453T241 417T212 362T202 294V40L271 27V0H41V27L114 40V456L41 465V492L202 502Q202 480 201 460T199
427T195 391L197 390Q206 415 221 436T257 473T306 497T366 506Q449 506 489 456T530 305V40L598 27V0H373ZM376 -107Q376 -147 344 -186T251 -258L238 -234Q285 -199 295 -173T287 -110Q282 -97 282 -86T288 -66T303 -52T325 -47Q348 -47 362 -64T376 -107Z" />
<glyph unicode="&#x147;" glyph-name="Ncaron" horiz-adv-x="719" d="M557 -7L157 576H156L178 40L256 27V0H38V27L117 40L118 635L38 648V675H201L568 141H569L551 635L477 648V675H672V648L609 635V-7H557ZM237 876L369 809L497 876L513 852L367 731L222 852L237 876Z" />
<glyph unicode="&#x148;" glyph-name="ncaron" horiz-adv-x="626" d="M373 0V27L442 40V303Q442 344 437 373T421 424T389 455T337 466Q309 466 284 453T241 417T212 362T202 294V40L271 27V0H41V27L114 40V456L41 465V492L202 502Q202 480 201 460T199 427T195
391L197 390Q206 415 221 436T257 473T306 497T366 506Q449 506 489 456T530 305V40L598 27V0H373ZM327 576L192 743L212 764L331 669L441 764L461 743L327 576Z" />
<glyph unicode="&#x149;" glyph-name="napostrophe" horiz-adv-x="649" d="M395 0V27L464 40V303Q464 344 459 373T443 424T411 455T359 466Q331 466 306 453T263 417T234 362T224 294V40L293 27V0H63V27L136 40V456L63 465V492L224 502Q224 480 223 460T221 427T217
391L219 390Q228 415 243 436T279 473T328 497T388 506Q471 506 511 456T552 305V40L620 27V0H395ZM344 753Q368 753 384 734T400 684Q400 665 394 645T374 603T338 558T284 514L266 535Q298 559 312 579T327 619Q328 631 324 639T310 659T297 680T292 703Q292
713 295 722T305 738T322 749T344 753Z" />
<glyph unicode="&#x14a;" glyph-name="Eng" horiz-adv-x="719" d="M609 0Q609 -53 601 -90T575 -154T529 -200T462 -236L446 -211Q469 -198 484 -184T509 -147T522 -93T526 -11V37L157 576H156L178 40L256 28V0H38V27L117 40L118 635L38 648V675H201L568 141H569L551
635L477 648V675H672V648L609 635V0Z" />
<glyph unicode="&#x14b;" glyph-name="eng" horiz-adv-x="614" d="M361 506Q403 506 435 492T489 442T522 343T533 185V169Q533 25 523 -60T492 -188T436 -241T355 -248V-220Q374 -220 387 -217T411 -201T427 -164T437 -98T442 7T444 160V164Q444 255 439 313T422
405T389 452T337 466Q308 466 284 453T241 416T212 362T202 294V40L271 27V0H41V27L114 40V456L41 465V492L202 502Q202 477 201 457T199 421T195 391L197 390Q206 415 221 436T258 472T305 497T361 506Z" />
<glyph unicode="&#x14c;" glyph-name="Omacron" horiz-adv-x="733" d="M692 347Q692 257 666 189T592 77T485 12T355 -9Q282 -9 225 12T126 76T63 182T41 328Q41 418 68 486T142 598T249 663T378 684Q451 684 509 663T608 599T670 493T692 347ZM593 334Q593 484
534 565T364 647Q314 647 273 628T202 571T156 474T140 339Q140 191 199 110T369 28Q420 28 461 47T531 104T577 200T593 334ZM234 767V807H498V767H234Z" />
<glyph unicode="&#x14d;" glyph-name="omacron" horiz-adv-x="579" d="M534 255Q534 188 515 138T460 55T379 7T282 -9Q170 -9 108 55T45 242Q45 309 65 359T120 442T201 490T297 506Q409 506 471 442T534 255ZM442 247Q442 355 403 413T288 472Q218 472 178 418T137
251Q137 143 176 85T291 26Q362 26 402 79T442 247ZM162 614V654H418V614H162Z" />
<glyph unicode="&#x14e;" glyph-name="Obreve" horiz-adv-x="733" d="M692 347Q692 257 666 189T592 77T485 12T355 -9Q282 -9 225 12T126 76T63 182T41 328Q41 418 68 486T142 598T249 663T378 684Q451 684 509 663T608 599T670 493T692 347ZM593 334Q593 484
534 565T364 647Q314 647 273 628T202 571T156 474T140 339Q140 191 199 110T369 28Q420 28 461 47T531 104T577 200T593 334ZM488 885Q488 856 482 829T461 780T423 745T366 732Q331 732 308 745T271 779T251 827T245 885H275Q275 843 299 820T368 796Q410 796
434 819T458 885H488Z" />
<glyph unicode="&#x14f;" glyph-name="obreve" horiz-adv-x="579" d="M534 255Q534 188 515 138T460 55T379 7T282 -9Q170 -9 108 55T45 242Q45 309 65 359T120 442T201 490T297 506Q409 506 471 442T534 255ZM442 247Q442 355 403 413T288 472Q218 472 178 418T137
251Q137 143 176 85T291 26Q362 26 402 79T442 247ZM405 744Q405 714 399 687T379 639T343 605T289 592Q258 592 236 604T200 638T180 686T174 744H205Q205 704 228 680T291 656Q329 656 352 680T375 744H405Z" />
<glyph unicode="&#x150;" glyph-name="Ohungarumlaut" horiz-adv-x="733" d="M692 347Q692 257 666 189T592 77T485 12T355 -9Q282 -9 225 12T126 76T63 182T41 328Q41 418 68 486T142 598T249 663T378 684Q451 684 509 663T608 599T670 493T692 347ZM593 334Q593
484 534 565T364 647Q314 647 273 628T202 571T156 474T140 339Q140 191 199 110T369 28Q420 28 461 47T531 104T577 200T593 334ZM446 731L433 753L591 885L633 821L446 731ZM265 731L250 750L402 897L450 840L265 731Z" />
<glyph unicode="&#x151;" glyph-name="ohungarumlaut" horiz-adv-x="579" d="M534 255Q534 188 515 138T460 55T379 7T282 -9Q170 -9 108 55T45 242Q45 309 65 359T120 442T201 490T297 506Q409 506 471 442T534 255ZM442 247Q442 355 403 413T288 472Q218 472
178 418T137 251Q137 143 176 85T291 26Q362 26 402 79T442 247ZM360 575L340 596L473 762L530 702L360 575ZM199 575L177 594L292 771L356 720L199 575Z" />
<glyph unicode="&#x152;" glyph-name="OE" horiz-adv-x="882" d="M472 0Q462 0 447 -2T415 -5T383 -8T356 -9Q284 -9 226 12T126 76T63 181T41 329Q41 422 68 489T142 599T249 663T377 684Q400 684 428 681T479 675H810V531H779L742 640L548 642V365H705L735 447H763V249H735L705
330H548V34L744 36L781 151H812V0H472ZM459 629Q437 638 414 642T364 647Q314 647 273 628T201 570T155 474T139 339Q139 192 197 110T369 28Q394 28 417 32T459 45V629Z" />
<glyph unicode="&#x153;" glyph-name="oe" horiz-adv-x="891" d="M846 296Q846 287 846 280T846 264H532V245Q532 189 542 150T573 84T622 46T684 33Q725 33 762 41T839 67V34Q800 14 757 3T666 -9Q602 -9 554 14T481 89Q449 39 397 15T282 -9Q172 -9 109 53T45
242Q45 312 65 361T121 443T201 490T297 506Q327 506 355 501T409 485T454 455T489 411Q511 452 555 479T660 506Q712 506 747 491T805 447T836 381T846 296ZM756 296Q756 384 734 428T654 473Q600 473 570 429T533 296H756ZM442 247Q442 355 403 413T288 472Q252
472 224 459T177 417T147 348T137 251Q137 143 176 85T291 26Q327 26 355 39T402 80T432 149T442 247Z" />
<glyph unicode="&#x154;" glyph-name="Racute" horiz-adv-x="612" d="M608 4Q585 -11 547 -11Q528 -11 512 -8T483 5T458 29T438 70Q414 132 398 178T364 255T325 301T270 316H205V40L276 27V0H38V27L115 40V635L38 648V675H108Q118 675 137 675T183 677T239 678T299
679Q416 679 473 637T531 514Q531 479 518 449T482 397T427 360T356 339Q393 336 421 314T466 255Q482 222 496 183T524 109T556 51T593 28Q602 28 608 29V4ZM439 506Q439 546 430 573T401 615T354 638T287 645Q263 645 240 643T205 640V353H287Q329 353 358 364T405
395T431 443T439 506ZM239 738L227 765L403 880L437 810L239 738Z" />
<glyph unicode="&#x155;" glyph-name="racute" horiz-adv-x="403" d="M390 424Q372 428 354 431T314 434Q286 434 265 423T230 390T210 333T203 254V40L282 27V0H40V27L114 40V456L40 465V492L200 502Q200 470 198 427T193 354L195 353Q204 417 244 461T346 506Q356
506 369 505T390 503V424ZM227 577L209 598L340 763L398 699L227 577Z" />
<glyph unicode="&#x156;" glyph-name="Rcommaaccent" horiz-adv-x="612" d="M608 4Q585 -11 547 -11Q528 -11 512 -8T483 5T458 29T438 70Q414 132 398 178T364 255T325 301T270 316H205V40L276 27V0H38V27L115 40V635L38 648V675H108Q118 675 137 675T183 677T239
678T299 679Q416 679 473 637T531 514Q531 479 518 449T482 397T427 360T356 339Q393 336 421 314T466 255Q482 222 496 183T524 109T556 51T593 28Q602 28 608 29V4ZM439 506Q439 546 430 573T401 615T354 638T287 645Q263 645 240 643T205 640V353H287Q329 353
358 364T405 395T431 443T439 506ZM397 -107Q397 -147 365 -186T272 -258L259 -234Q306 -199 316 -173T308 -110Q303 -97 303 -86T309 -66T324 -52T346 -47Q369 -47 383 -64T397 -107Z" />
<glyph unicode="&#x157;" glyph-name="rcommaaccent" horiz-adv-x="403" d="M390 424Q372 428 354 431T314 434Q286 434 265 423T230 390T210 333T203 254V40L282 27V0H40V27L114 40V456L40 465V492L200 502Q200 470 198 427T193 354L195 353Q204 417 244 461T346
506Q356 506 369 505T390 503V424ZM213 -107Q213 -147 181 -186T88 -258L75 -234Q122 -199 132 -173T124 -110Q119 -97 119 -86T125 -66T140 -52T162 -47Q185 -47 199 -64T213 -107Z" />
<glyph unicode="&#x158;" glyph-name="Rcaron" horiz-adv-x="612" d="M608 4Q585 -11 547 -11Q528 -11 512 -8T483 5T458 29T438 70Q414 132 398 178T364 255T325 301T270 316H205V40L276 27V0H38V27L115 40V635L38 648V675H108Q118 675 137 675T183 677T239 678T299
679Q416 679 473 637T531 514Q531 479 518 449T482 397T427 360T356 339Q393 336 421 314T466 255Q482 222 496 183T524 109T556 51T593 28Q602 28 608 29V4ZM439 506Q439 546 430 573T401 615T354 638T287 645Q263 645 240 643T205 640V353H287Q329 353 358 364T405
395T431 443T439 506ZM164 876L296 809L424 876L440 852L294 731L149 852L164 876Z" />
<glyph unicode="&#x159;" glyph-name="rcaron" horiz-adv-x="403" d="M390 424Q372 428 354 431T314 434Q286 434 265 423T230 390T210 333T203 254V40L282 27V0H40V27L114 40V456L40 465V492L200 502Q200 470 198 427T193 354L195 353Q204 417 244 461T346 506Q356
506 369 505T390 503V424ZM227 576L92 743L112 764L231 669L341 764L361 743L227 576Z" />
<glyph unicode="&#x15a;" glyph-name="Sacute" horiz-adv-x="511" d="M456 182Q456 142 440 107T393 46T319 6T223 -9Q183 -9 140 -4T61 9V185H92L131 48Q143 43 153 40T176 34T204 30T238 29Q301 29 336 61T372 154Q372 197 350 225T297 273T214 316T129 364T74
424T52 512Q52 549 67 580T110 635T181 671T275 684Q311 684 347 680T415 669V513H383L345 634Q329 640 308 643T264 647Q199 647 168 621T136 536Q136 495 157 467T210 421T294 377T380 328T434 269T456 182ZM220 738L208 765L384 880L418 810L220 738Z" />
<glyph unicode="&#x15b;" glyph-name="sacute" horiz-adv-x="439" d="M385 138Q385 107 371 80T331 33T270 2T193 -9Q158 -9 125 -6T64 4V147H94L126 37Q143 31 161 29T203 26Q253 26 279 48T305 111Q305 141 289 161T250 193T187 223T121 259T78 303T61 371Q61
400 73 424T109 467T165 496T238 506Q266 506 294 503T349 494V361H319L286 464Q261 473 226 473Q182 473 161 455T139 399Q139 369 155 349T195 315T260 283T326 248T368 204T385 138ZM189 577L171 598L302 763L360 699L189 577Z" />
<glyph unicode="&#x15c;" glyph-name="Scircumflex" horiz-adv-x="511" d="M456 182Q456 142 440 107T393 46T319 6T223 -9Q183 -9 140 -4T61 9V185H92L131 48Q143 43 153 40T176 34T204 30T238 29Q301 29 336 61T372 154Q372 197 350 225T297 273T214 316T129
364T74 424T52 512Q52 549 67 580T110 635T181 671T275 684Q311 684 347 680T415 669V513H383L345 634Q329 640 308 643T264 647Q199 647 168 621T136 536Q136 495 157 467T210 421T294 377T380 328T434 269T456 182ZM388 738L256 806L128 738L113 762L258 883L404
762L388 738Z" />
<glyph unicode="&#x15d;" glyph-name="scircumflex" horiz-adv-x="439" d="M385 138Q385 107 371 80T331 33T270 2T193 -9Q158 -9 125 -6T64 4V147H94L126 37Q143 31 161 29T203 26Q253 26 279 48T305 111Q305 141 289 161T250 193T187 223T121 259T78 303T61
371Q61 400 73 424T109 467T165 496T238 506Q266 506 294 503T349 494V361H319L286 464Q261 473 226 473Q182 473 161 455T139 399Q139 369 155 349T195 315T260 283T326 248T368 204T385 138ZM332 577L214 671L103 577L83 597L218 764L352 597L332 577Z" />
<glyph unicode="&#x15e;" glyph-name="Scedilla" horiz-adv-x="511" d="M226 -61Q254 -75 267 -90T280 -128Q280 -159 251 -191T165 -254L146 -236Q175 -216 191 -194T208 -153Q208 -138 197 -125T159 -99L226 -9Q184 -9 140 -5T61 9V185H92L131 48Q143 43 153
40T176 34T204 30T238 29Q301 29 336 61T372 154Q372 197 350 225T297 273T214 316T129 364T74 424T52 512Q52 549 67 580T110 635T181 671T275 684Q311 684 347 680T415 669V513H383L345 634Q329 640 308 643T264 647Q199 647 168 621T136 536Q136 495 157 467T210
421T294 377T380 328T434 269T456 182Q456 146 443 114T406 57T346 16T267 -6L226 -61Z" />
<glyph unicode="&#x15f;" glyph-name="scedilla" horiz-adv-x="439" d="M187 -61Q215 -75 228 -90T241 -128Q241 -159 212 -191T126 -254L107 -236Q136 -216 152 -194T168 -153Q168 -138 158 -125T119 -99L187 -9Q152 -8 121 -5T64 4V147H94L126 37Q143 31 161
29T203 26Q253 26 279 48T305 111Q305 141 289 161T250 193T187 223T121 259T78 303T61 371Q61 400 73 424T109 467T165 496T238 506Q266 506 294 503T349 494V361H319L286 464Q261 473 226 473Q182 473 161 455T139 399Q139 369 155 349T195 315T260 283T326 248T368
204T385 138Q385 110 374 86T341 42T290 10T226 -6L187 -61Z" />
<glyph unicode="&#x160;" glyph-name="Scaron" horiz-adv-x="511" d="M456 182Q456 142 440 107T393 46T319 6T223 -9Q183 -9 140 -4T61 9V185H92L131 48Q143 43 153 40T176 34T204 30T238 29Q301 29 336 61T372 154Q372 197 350 225T297 273T214 316T129 364T74
424T52 512Q52 549 67 580T110 635T181 671T275 684Q311 684 347 680T415 669V513H383L345 634Q329 640 308 643T264 647Q199 647 168 621T136 536Q136 495 157 467T210 421T294 377T380 328T434 269T456 182ZM131 876L263 809L391 876L407 852L261 731L116 852L131
876Z" />
<glyph unicode="&#x161;" glyph-name="scaron" horiz-adv-x="439" d="M385 138Q385 107 371 80T331 33T270 2T193 -9Q158 -9 125 -6T64 4V147H94L126 37Q143 31 161 29T203 26Q253 26 279 48T305 111Q305 141 289 161T250 193T187 223T121 259T78 303T61 371Q61
400 73 424T109 467T165 496T238 506Q266 506 294 503T349 494V361H319L286 464Q261 473 226 473Q182 473 161 455T139 399Q139 369 155 349T195 315T260 283T326 248T368 204T385 138ZM216 576L81 743L101 764L220 669L330 764L350 743L216 576Z" />
<glyph unicode="&#x162;" glyph-name="uni0162" horiz-adv-x="562" d="M151 0V27L236 40V643L87 640L49 503H18V675H544V503H513L475 640L326 643V40L411 27V0H310L265 -61Q293 -75 306 -90T319 -128Q319 -159 290 -191T204 -254L185 -236Q214 -216 230 -194T247
-153Q247 -138 236 -125T198 -99L272 0H151Z" />
<glyph unicode="&#x163;" glyph-name="uni0163" horiz-adv-x="368" d="M330 23Q304 9 276 1T222 -9L184 -61Q212 -75 225 -90T238 -128Q238 -159 209 -191T122 -254L104 -236Q133 -216 149 -194T165 -153Q165 -138 155 -125T116 -99L185 -7Q161 -4 145 4T118 28T103
68T97 130V464H14V498H97L156 638H185V498H330V464H185V142Q185 105 188 83T197 51T213 36T241 32Q258 32 281 38T330 56V23Z" />
<glyph unicode="&#x164;" glyph-name="Tcaron" horiz-adv-x="562" d="M513 503L475 640L326 643V40L411 27V0H151V27L236 40V643L87 640L49 503H18V675H544V503H513ZM150 876L282 809L410 876L426 852L280 731L135 852L150 876Z" />
<glyph unicode="&#x165;" glyph-name="tcaron" horiz-adv-x="376" d="M330 23Q302 8 272 0T213 -9Q182 -9 160 -2T124 20T104 62T97 130V464H14V498H97L156 638H185V498H330V464H185V142Q185 105 188 83T197 51T213 36T241 32Q258 32 281 38T330 56V23ZM274 584L243
591L287 794L358 774L274 584Z" />
<glyph unicode="&#x166;" glyph-name="Tbar" horiz-adv-x="562" d="M513 503L475 640L326 643V365H476V332H326V40L411 27V0H151V27L236 40V332H86V365H236V643L87 640L49 503H18V675H544V503H513Z" />
<glyph unicode="&#x167;" glyph-name="tbar" horiz-adv-x="368" d="M330 23Q302 8 272 0T213 -9Q182 -9 160 -2T124 20T104 62T97 130V271H34V304H97V464H14V498H97L156 638H185V498H330V464H185V304H310V271H185V142Q185 105 188 83T197 51T213 36T241 32Q258
32 281 38T330 56V23Z" />
<glyph unicode="&#x168;" glyph-name="Utilde" horiz-adv-x="697" d="M671 648L616 635Q614 586 613 529T610 417T608 317T607 244Q607 189 593 142T549 62T474 10T366 -9Q289 -9 239 11T157 64T113 143T100 241V635L38 648V675H265V648L189 635V247Q189 202 198
163T230 94T287 48T377 31Q425 31 459 46T516 89T549 155T560 241Q560 271 560 318T558 420T556 530T553 635L490 648V675H671V648ZM532 840Q512 800 487 777T430 753Q407 753 392 761T362 778T334 796T303 804Q283 804 270 791T244 760L221 775Q241 815 266 838T323
862Q345 862 361 854T391 837T419 819T450 811Q469 811 482 823T509 855L532 840Z" />
<glyph unicode="&#x169;" glyph-name="utilde" horiz-adv-x="611" d="M582 6L423 -4Q423 18 424 38T426 72T429 95T430 106L428 107Q419 82 404 61T367 24T318 0T261 -9Q176 -9 136 40T95 192Q95 242 95 289T96 372T97 428T98 456L29 465V492L187 502Q187 493
187 469T185 402T184 307T183 202Q183 165 187 135T202 82T235 46T288 32Q317 32 341 45T384 81T413 136T423 204V456L350 465V492L511 502V42L582 33V6ZM472 685Q451 643 426 621T369 598Q350 598 335 604T300 624T269 643T242 649Q225 649 212 638T183 605L160
620Q181 662 206 684T263 707Q282 707 297 701T332 681T363 662T390 656Q407 656 420 667T449 700L472 685Z" />
<glyph unicode="&#x16a;" glyph-name="Umacron" horiz-adv-x="697" d="M671 648L616 635Q614 586 613 529T610 417T608 317T607 244Q607 189 593 142T549 62T474 10T366 -9Q289 -9 239 11T157 64T113 143T100 241V635L38 648V675H265V648L189 635V247Q189 202
198 163T230 94T287 48T377 31Q425 31 459 46T516 89T549 155T560 241Q560 271 560 318T558 420T556 530T553 635L490 648V675H671V648ZM232 767V807H496V767H232Z" />
<glyph unicode="&#x16b;" glyph-name="umacron" horiz-adv-x="611" d="M582 6L423 -4Q423 18 424 38T426 72T429 95T430 106L428 107Q419 82 404 61T367 24T318 0T261 -9Q176 -9 136 40T95 192Q95 242 95 289T96 372T97 428T98 456L29 465V492L187 502Q187 493
187 469T185 402T184 307T183 202Q183 165 187 135T202 82T235 46T288 32Q317 32 341 45T384 81T413 136T423 204V456L350 465V492L511 502V42L582 33V6ZM180 614V654H436V614H180Z" />
<glyph unicode="&#x16c;" glyph-name="Ubreve" horiz-adv-x="697" d="M671 648L616 635Q614 586 613 529T610 417T608 317T607 244Q607 189 593 142T549 62T474 10T366 -9Q289 -9 239 11T157 64T113 143T100 241V635L38 648V675H265V648L189 635V247Q189 202 198
163T230 94T287 48T377 31Q425 31 459 46T516 89T549 155T560 241Q560 271 560 318T558 420T556 530T553 635L490 648V675H671V648ZM494 885Q494 856 488 829T467 780T429 745T372 732Q337 732 314 745T277 779T257 827T251 885H281Q281 843 305 820T374 796Q416
796 440 819T464 885H494Z" />
<glyph unicode="&#x16d;" glyph-name="ubreve" horiz-adv-x="611" d="M582 6L423 -4Q423 18 424 38T426 72T429 95T430 106L428 107Q419 82 404 61T367 24T318 0T261 -9Q176 -9 136 40T95 192Q95 242 95 289T96 372T97 428T98 456L29 465V492L187 502Q187 493
187 469T185 402T184 307T183 202Q183 165 187 135T202 82T235 46T288 32Q317 32 341 45T384 81T413 136T423 204V456L350 465V492L511 502V42L582 33V6ZM426 744Q426 714 420 687T400 639T364 605T310 592Q279 592 257 604T221 638T201 686T195 744H226Q226 704
249 680T312 656Q350 656 373 680T396 744H426Z" />
<glyph unicode="&#x16e;" glyph-name="Uring" horiz-adv-x="697" d="M671 648L616 635Q614 586 613 529T610 417T608 317T607 244Q607 189 593 142T549 62T474 10T366 -9Q289 -9 239 11T157 64T113 143T100 241V635L38 648V675H265V648L189 635V247Q189 202 198
163T230 94T287 48T377 31Q425 31 459 46T516 89T549 155T560 241Q560 271 560 318T558 420T556 530T553 635L490 648V675H671V648ZM481 810Q481 786 471 767T444 735T404 716T359 709Q309 709 279 733T248 804Q248 828 258 847T285 879T325 899T370 906Q420 906
450 881T481 810ZM424 804Q424 835 407 856T361 878Q334 878 320 860T305 811Q305 779 322 758T368 737Q394 737 409 755T424 804Z" />
<glyph unicode="&#x16f;" glyph-name="uring" horiz-adv-x="611" d="M582 6L423 -4Q423 18 424 38T426 72T429 95T430 106L428 107Q419 82 404 61T367 24T318 0T261 -9Q176 -9 136 40T95 192Q95 242 95 289T96 372T97 428T98 456L29 465V492L187 502Q187 493 187
469T185 402T184 307T183 202Q183 165 187 135T202 82T235 46T288 32Q317 32 341 45T384 81T413 136T423 204V456L350 465V492L511 502V42L582 33V6ZM424 664Q424 641 414 622T387 589T347 569T302 562Q251 562 221 587T191 658Q191 681 200 701T228 734T268 754T313
761Q364 761 394 736T424 664ZM366 657Q366 690 350 711T304 732Q278 732 263 714T248 665Q248 632 265 611T311 590Q336 590 351 608T366 657Z" />
<glyph unicode="&#x170;" glyph-name="Uhungarumlaut" horiz-adv-x="697" d="M671 648L616 635Q614 586 613 529T610 417T608 317T607 244Q607 189 593 142T549 62T474 10T366 -9Q289 -9 239 11T157 64T113 143T100 241V635L38 648V675H265V648L189 635V247Q189
202 198 163T230 94T287 48T377 31Q425 31 459 46T516 89T549 155T560 241Q560 271 560 318T558 420T556 530T553 635L490 648V675H671V648ZM438 731L425 753L583 885L625 821L438 731ZM257 731L242 750L394 897L442 840L257 731Z" />
<glyph unicode="&#x171;" glyph-name="uhungarumlaut" horiz-adv-x="611" d="M582 6L423 -4Q423 18 424 38T426 72T429 95T430 106L428 107Q419 82 404 61T367 24T318 0T261 -9Q176 -9 136 40T95 192Q95 242 95 289T96 372T97 428T98 456L29 465V492L187 502Q187
493 187 469T185 402T184 307T183 202Q183 165 187 135T202 82T235 46T288 32Q317 32 341 45T384 81T413 136T423 204V456L350 465V492L511 502V42L582 33V6ZM368 575L348 596L481 762L538 702L368 575ZM207 575L185 594L300 771L364 720L207 575Z" />
<glyph unicode="&#x172;" glyph-name="Uogonek" horiz-adv-x="697" d="M671 648L616 635Q614 586 613 529T610 417T608 317T607 244Q607 174 589 129T538 52Q526 41 515 33T493 17T469 -1T440 -25Q414 -50 400 -77T385 -142Q385 -210 442 -210Q458 -210 475 -206T512
-195V-222Q492 -234 467 -243T412 -252Q391 -252 372 -246T338 -230T316 -202T307 -162Q307 -137 317 -114T345 -70T384 -32T427 0Q412 -5 395 -7T366 -9Q290 -9 239 11T157 64T113 143T100 241V635L38 648V675H265V648L189 635V247Q189 202 198 163T230 94T287
48T377 31Q425 31 459 46T516 89T549 155T560 241Q560 271 560 318T558 420T556 530T553 635L490 648V675H671V648Z" />
<glyph unicode="&#x173;" glyph-name="uogonek" horiz-adv-x="611" d="M558 -222Q535 -236 510 -244T458 -252Q412 -252 383 -229T353 -162Q353 -115 392 -70T487 -1Q450 0 437 27T430 106L428 107Q419 82 404 61T367 24T318 0T261 -9Q176 -9 136 40T95 192Q95
241 95 285T96 377T98 456L29 465V492L187 502Q187 489 187 463T185 396T184 303T183 202Q183 165 187 135T202 82T235 46T288 32Q317 32 341 45T384 81T413 136T423 204V456L350 465V492L511 502V83Q511 68 514 60T524 46T545 38T582 32V5Q539 -1 510 -16T463
-53T438 -97T431 -141Q431 -175 445 -192T488 -210Q505 -210 521 -206T558 -195V-222Z" />
<glyph unicode="&#x174;" glyph-name="Wcircumflex" horiz-adv-x="927" d="M918 648L867 635L693 -7H629L457 550H456L312 -7H241L62 635L12 648V675H237V648L155 635L299 106H300L445 678H509L685 106H686L807 635L724 648V675H918V648ZM605 738L473 806L345
738L330 762L475 883L621 762L605 738Z" />
<glyph unicode="&#x175;" glyph-name="wcircumflex" horiz-adv-x="765" d="M753 470L697 458L563 -3H492L393 322Q388 337 384 357T375 395H374Q371 376 367 357T358 320L272 -3H196L66 458L10 470V498H236V470L160 458L236 169Q241 150 245 130T256 77H257Q263
103 268 127T279 171L366 500H428L526 173Q533 149 539 125T551 77H553Q557 103 562 126T572 170L637 458L563 470V498H753V470ZM509 577L391 671L280 577L260 597L395 764L529 597L509 577Z" />
<glyph unicode="&#x176;" glyph-name="Ycircumflex" horiz-adv-x="585" d="M425 0H165V27L250 40V285L50 635L9 648V675H231V648L148 635L320 323H321L471 635L391 648V675H575V648L531 635L340 285V40L425 27V0ZM437 738L305 806L177 738L162 762L307 883L453
762L437 738Z" />
<glyph unicode="&#x177;" glyph-name="ycircumflex" horiz-adv-x="548" d="M536 470L482 458L315 0Q287 -75 264 -123T198 -248H125L117 -226Q141 -201 164 -172T206 -112T243 -54T272 0H242L64 458L10 470V498H233V470L155 458L258 191Q270 161 281 130T302 73H303Q308
91 321 134T341 195L421 458L349 470V498H536V470ZM403 577L285 671L174 577L154 597L289 764L423 597L403 577Z" />
<glyph unicode="&#x178;" glyph-name="Ydieresis" horiz-adv-x="585" d="M425 0H165V27L250 40V285L50 635L9 648V675H231V648L148 635L320 323H321L471 635L391 648V675H575V648L531 635L340 285V40L425 27V0ZM445 789Q445 767 431 753T394 738Q372 738 358 752T343
789Q343 811 357 825T394 840Q416 840 430 826T445 789ZM251 789Q251 767 237 753T200 738Q178 738 164 752T149 789Q149 811 163 825T200 840Q222 840 236 826T251 789Z" />
<glyph unicode="&#x179;" glyph-name="Zacute" horiz-adv-x="547" d="M41 0V31L409 642L126 640L83 515H52L57 675H506V644L138 34L443 36L482 163H514V0H41ZM244 738L232 765L408 880L442 810L244 738Z" />
<glyph unicode="&#x17a;" glyph-name="zacute" horiz-adv-x="469" d="M48 0V29L317 466L123 463L86 366H55L60 498H412V470L142 32L354 35L388 137H418V0H48ZM211 577L193 598L324 763L382 699L211 577Z" />
<glyph unicode="&#x17b;" glyph-name="Zdotaccent" horiz-adv-x="547" d="M41 0V31L409 642L126 640L83 515H52L57 675H506V644L138 34L443 36L482 163H514V0H41ZM353 791Q353 780 349 770T337 751T319 739T296 734Q273 734 257 751T240 791Q240 803 244 813T256
831T274 843T296 848Q320 848 336 832T353 791Z" />
<glyph unicode="&#x17c;" glyph-name="zdotaccent" horiz-adv-x="469" d="M48 0V29L317 466L123 463L86 366H55L60 498H412V470L142 32L354 35L388 137H418V0H48ZM305 657Q305 645 301 635T290 617T271 604T249 599Q237 599 227 604T209 616T197 634T192 657Q192
668 196 678T208 697T226 709T249 714Q260 714 271 710T289 697T301 679T305 657Z" />
<glyph unicode="&#x17d;" glyph-name="Zcaron" horiz-adv-x="547" d="M41 0V31L409 642L126 640L83 515H52L57 675H506V644L138 34L443 36L482 163H514V0H41ZM156 876L288 809L416 876L432 852L286 731L141 852L156 876Z" />
<glyph unicode="&#x17e;" glyph-name="zcaron" horiz-adv-x="469" d="M48 0V29L317 466L123 463L86 366H55L60 498H412V470L142 32L354 35L388 137H418V0H48ZM247 576L112 743L132 764L251 669L361 764L381 743L247 576Z" />
<glyph unicode="&#x18f;" glyph-name="uni018F" horiz-adv-x="634" d="M593 348Q593 257 571 189T511 77T422 12T314 -9Q252 -9 204 12T123 74T73 169T56 293Q56 309 57 326T59 359H495Q491 430 477 483T437 573T370 627T274 646Q243 646 215 641T160 626L123
505H92V650Q136 666 187 675T287 684Q362 684 419 662T515 598T573 493T593 348ZM151 323V298Q151 234 160 185T189 101T243 48T323 29Q413 29 454 100T495 323H151Z" />
<glyph unicode="&#x192;" glyph-name="florin" horiz-adv-x="548" d="M460 594L428 698Q423 700 414 701T393 703Q373 703 361 697T338 676T322 633T310 562L292 392H443V356H289L252 29Q248 -17 236 -52T202 -109T151 -143T81 -155Q53 -155 31 -152T-14 -144V-14H15L46
-117Q51 -119 61 -121T82 -123Q101 -123 114 -117T136 -96T152 -53T164 18L201 356H75V392H204L222 551Q226 598 239 632T272 690T323 724T393 735Q421 735 443 732T489 724V594H460Z" />
<glyph unicode="&#x1e6;" glyph-name="Gcaron" horiz-adv-x="706" d="M671 311L608 299V49Q554 22 489 7T356 -9Q283 -9 225 12T126 76T64 182T42 329Q42 419 68 487T143 599T254 663T392 684Q422 684 449 682T501 677T547 669T595 658V503H564L525 623Q495 634
461 640T377 646Q320 646 276 628T203 571T158 475T142 339Q142 192 199 112T366 31Q407 31 447 38T519 58V299L442 311V339H671V311ZM238 876L370 809L498 876L514 852L368 731L223 852L238 876Z" />
<glyph unicode="&#x1e7;" glyph-name="gcaron" horiz-adv-x="532" d="M491 445L366 468Q404 453 428 418T452 339Q452 293 437 259T393 202T328 169T246 158Q226 158 210 160T177 167Q166 156 159 142T151 113Q151 102 155 94T170 81T198 74T241 70L337 66Q382
64 414 54T467 25T496 -16T506 -68Q506 -107 486 -141T430 -202T346 -242T243 -256Q136 -256 82 -221T28 -125Q28 -102 37 -82T62 -46T98 -18T142 4Q108 13 92 31T75 78Q75 94 81 108T97 135T120 158T148 175Q102 195 79 234T56 325Q56 370 71 404T114 461T179
495T262 506Q280 506 298 504T332 498H491V445ZM219 -6Q205 -5 195 -4T176 -2Q142 -25 127 -52T112 -112Q112 -163 150 -192T259 -221Q298 -221 330 -211T384 -184T417 -143T428 -92Q428 -53 403 -33T313 -9L219 -6ZM364 333Q364 368 356 395T333 439T298 464T254
473Q203 473 174 438T144 333Q144 260 174 226T254 191Q305 191 334 226T364 333ZM265 576L130 743L150 764L269 669L379 764L399 743L265 576Z" />
<glyph unicode="&#x1fa;" glyph-name="Aringacute" horiz-adv-x="664" d="M420 0V27L506 40L453 183H172L124 40L210 27V0H12V27L64 40L303 682H362L600 40L652 27V0H420ZM307 586H306L183 219H441L307 586ZM259 885L252 913L425 980L441 921L259 885ZM446 795Q446
775 437 758T412 730T375 712T334 706Q291 706 263 728T235 789Q235 809 244 825T269 853T306 871T347 877Q391 877 418 855T446 795ZM396 789Q396 818 382 834T340 851Q315 851 301 837T286 794Q286 765 299 749T341 732Q366 732 381 747T396 789Z" />
<glyph unicode="&#x1fb;" glyph-name="aringacute" horiz-adv-x="504" d="M475 3L323 -3Q323 25 324 50T328 96L326 97Q319 76 305 57T271 22T230 -1T183 -9Q113 -9 78 24T42 121Q42 158 59 187T110 237T197 268T319 279V353Q319 388 314 409T298 444T266 465T215
472Q193 472 172 467T139 455L106 351H76V475Q113 491 152 498T229 506Q276 506 309 498T363 473T396 426T407 356V40L475 30V3ZM319 247Q267 248 231 241T174 220T142 183T132 126Q132 77 150 54T207 30Q229 30 249 42T285 76T310 126T319 178V247ZM363 663Q363
639 353 620T326 587T286 566T241 559Q193 559 164 584T134 657Q134 681 144 700T171 733T211 754T256 761Q304 761 333 736T363 663ZM307 656Q307 694 293 713T249 733Q222 733 206 716T190 664Q190 627 204 607T248 587Q275 587 291 604T307 656ZM179 791L169
823L361 909L384 840L179 791Z" />
<glyph unicode="&#x1fc;" glyph-name="AEacute" horiz-adv-x="825" d="M331 0V27L405 40V184H168L93 40L164 27V0H-14V27L27 40L367 635L290 648V675H753V531H722L685 640L494 642V365H648L678 447H706V249H678L648 330H494V34L687 36L724 151H755V0H331ZM405
635H403L186 219H405V635ZM481 738L469 765L645 880L679 810L481 738Z" />
<glyph unicode="&#x1fd;" glyph-name="aeacute" horiz-adv-x="766" d="M721 296Q721 287 721 280T720 264H406V245Q406 189 417 150T448 84T497 46T559 33Q600 33 637 41T714 67V34Q675 14 632 3T541 -9Q467 -9 418 20T345 109Q325 53 284 22T184 -9Q109 -9 76
27T42 121Q42 155 57 183T104 233T190 267T319 279V353Q319 384 315 406T299 443T267 465T215 472Q176 472 139 455L106 351H76V475Q110 489 149 497T229 506Q285 506 322 491T381 436Q408 469 446 487T535 506Q587 506 622 491T680 447T711 381T721 296ZM631 296Q631
336 627 368T611 424T579 460T529 473Q500 473 479 461T443 425T420 369T408 296H631ZM319 247Q261 248 225 240T168 216T140 178T132 127Q132 80 149 55T207 30Q229 30 249 40T285 67T310 108T319 158V247ZM382 577L364 598L495 763L553 699L382 577Z" />
<glyph unicode="&#x1fe;" glyph-name="Oslashacute" horiz-adv-x="733" d="M692 346Q692 256 666 188T593 77T486 12T356 -9Q314 -9 278 -2T210 19L142 -101L109 -85L176 35Q110 75 76 149T41 329Q41 419 67 486T141 598T248 663T377 684Q418 684 455 677T523
655L591 776L625 760L557 639Q622 599 657 525T692 346ZM595 334Q595 414 577 475T522 576L237 68Q264 49 297 39T369 28Q420 28 461 47T532 104T578 200T595 334ZM495 606Q469 626 437 636T364 647Q314 647 273 628T201 571T155 474T139 339Q139 259 157 198T211
98L495 606ZM302 738L290 765L466 880L500 810L302 738Z" />
<glyph unicode="&#x1ff;" glyph-name="oslashacute" horiz-adv-x="579" d="M534 255Q534 186 514 136T459 54T378 7T282 -9Q254 -9 229 -5T181 9L120 -104L87 -88L148 23Q98 53 72 107T45 242Q45 312 65 361T121 443T201 490T297 506Q326 506 352 502T400 487L460
597L493 580L434 472Q483 443 508 389T534 255ZM135 251Q135 195 146 153T180 84L376 442Q340 472 288 472Q255 472 227 460T178 421T146 352T135 251ZM444 247Q444 354 400 411L205 54Q241 26 291 26Q324 26 352 38T401 77T433 146T444 247ZM254 580L236 601L367
766L425 702L254 580Z" />
<glyph unicode="&#x218;" glyph-name="Scommaaccent" horiz-adv-x="511" d="M456 182Q456 142 440 107T393 46T319 6T223 -9Q183 -9 140 -4T61 9V185H92L131 48Q143 43 153 40T176 34T204 30T238 29Q301 29 336 61T372 154Q372 197 350 225T297 273T214 316T129
364T74 424T52 512Q52 549 67 580T110 635T181 671T275 684Q311 684 347 680T415 669V513H383L345 634Q329 640 308 643T264 647Q199 647 168 621T136 536Q136 495 157 467T210 421T294 377T380 328T434 269T456 182ZM323 -107Q323 -147 291 -186T198 -258L185
-234Q232 -199 242 -173T234 -110Q229 -97 229 -86T235 -66T250 -52T272 -47Q295 -47 309 -64T323 -107Z" />
<glyph unicode="&#x219;" glyph-name="scommaaccent" horiz-adv-x="439" d="M385 138Q385 107 371 80T331 33T270 2T193 -9Q158 -9 125 -6T64 4V147H94L126 37Q143 31 161 29T203 26Q253 26 279 48T305 111Q305 141 289 161T250 193T187 223T121 259T78 303T61
371Q61 400 73 424T109 467T165 496T238 506Q266 506 294 503T349 494V361H319L286 464Q261 473 226 473Q182 473 161 455T139 399Q139 369 155 349T195 315T260 283T326 248T368 204T385 138ZM282 -107Q282 -147 250 -186T157 -258L144 -234Q191 -199 201 -173T193
-110Q188 -97 188 -86T194 -66T209 -52T231 -47Q254 -47 268 -64T282 -107Z" />
<glyph unicode="&#x21a;" glyph-name="Tcommaaccent" horiz-adv-x="562" d="M513 503L475 640L326 643V40L411 27V0H151V27L236 40V643L87 640L49 503H18V675H544V503H513ZM337 -107Q337 -147 305 -186T212 -258L199 -234Q246 -199 256 -173T248 -110Q243 -97
243 -86T249 -66T264 -52T286 -47Q309 -47 323 -64T337 -107Z" />
<glyph unicode="&#x21b;" glyph-name="tcommaaccent" horiz-adv-x="368" d="M330 23Q302 8 272 0T213 -9Q182 -9 160 -2T124 20T104 62T97 130V464H14V498H97L156 638H185V498H330V464H185V142Q185 105 188 83T197 51T213 36T241 32Q258 32 281 38T330 56V23ZM252
-107Q252 -147 220 -186T127 -258L114 -234Q161 -199 171 -173T163 -110Q158 -97 158 -86T164 -66T179 -52T201 -47Q224 -47 238 -64T252 -107Z" />
<glyph unicode="&#x237;" glyph-name="dotlessj" horiz-adv-x="275" d="M11 -220Q39 -220 56 -215T83 -194T96 -148T100 -70V455L29 465V492L188 502V-60Q188 -119 179 -157T148 -216T92 -245T11 -248V-220Z" />
<glyph unicode="&#x259;" glyph-name="uni0259" horiz-adv-x="496" d="M231 -8Q180 -8 144 9T86 56T55 126T45 215Q45 227 45 236T46 253H358Q358 307 347 347T317 413T269 451T207 464Q166 464 128 456T52 430V463Q93 483 136 494T224 506Q277 506 319 491T390
445T435 366T451 252Q451 195 436 148T392 65T322 11T231 -8ZM135 221Q132 123 155 75T237 26Q266 26 288 38T325 75T349 136T358 221H135Z" />
<glyph unicode="&#x2c6;" glyph-name="circumflex" horiz-adv-x="416" d="M322 577L204 671L93 577L73 597L208 764L342 597L322 577Z" />
<glyph unicode="&#x2c7;" glyph-name="caron" horiz-adv-x="416" d="M208 576L73 743L93 764L212 669L322 764L342 743L208 576Z" />
<glyph unicode="&#x2c9;" glyph-name="macron" horiz-adv-x="422" d="M83 614V654H339V614H83Z" />
<glyph unicode="&#x2d8;" glyph-name="breve" horiz-adv-x="386" d="M306 744Q306 714 300 687T280 639T244 605T190 592Q159 592 137 604T101 638T81 686T75 744H106Q106 704 129 680T192 656Q230 656 253 680T276 744H306Z" />
<glyph unicode="&#x2d9;" glyph-name="dotaccent" horiz-adv-x="282" d="M197 657Q197 645 193 635T182 617T163 604T141 599Q129 599 119 604T101 616T89 634T84 657Q84 668 88 678T100 697T118 709T141 714Q152 714 163 710T181 697T193 679T197 657Z" />
<glyph unicode="&#x2da;" glyph-name="ring" horiz-adv-x="370" d="M302 664Q302 641 292 622T265 589T225 569T180 562Q129 562 99 587T69 658Q69 681 78 701T106 734T146 754T191 761Q242 761 272 736T302 664ZM244 657Q244 690 228 711T182 732Q156 732 141
714T126 665Q126 632 143 611T189 590Q214 590 229 608T244 657Z" />
<glyph unicode="&#x2db;" glyph-name="ogonek" horiz-adv-x="365" d="M281 -222Q259 -236 235 -244T185 -252Q139 -252 108 -228T76 -162Q76 -141 84 -120T108 -79T146 -40T197 0H240Q194 -36 174 -70T154 -142Q154 -175 168 -192T211 -210Q227 -210 243 -206T281
-195V-222Z" />
<glyph unicode="&#x2dc;" glyph-name="tilde" horiz-adv-x="480" d="M396 685Q375 643 350 621T293 598Q274 598 259 604T224 624T193 643T166 649Q149 649 136 638T107 605L84 620Q105 662 130 684T187 707Q206 707 221 701T256 681T287 662T314 656Q331 656
344 667T373 700L396 685Z" />
<glyph unicode="&#x2dd;" glyph-name="hungarumlaut" horiz-adv-x="491" d="M255 575L235 596L368 762L425 702L255 575ZM94 575L72 594L187 771L251 720L94 575Z" />
<glyph unicode="&#x312;" glyph-name="uni0312" horiz-adv-x="0" d="M-150 754Q-201 717 -208 690T-199 630Q-193 618 -193 607T-199 587T-215 572T-237 567Q-260 567 -274 584T-288 627Q-288 665 -257 704T-163 778L-150 754Z" />
<glyph unicode="&#x315;" glyph-name="uni0315" horiz-adv-x="0" d="M-18 584L-49 591L-5 794L66 774L-18 584Z" />
<glyph unicode="&#x326;" glyph-name="uni0326" horiz-adv-x="0" d="M-148 -107Q-148 -147 -180 -186T-273 -258L-286 -234Q-239 -199 -229 -173T-237 -110Q-242 -97 -242 -86T-236 -66T-221 -52T-199 -47Q-176 -47 -162 -64T-148 -107Z" />
<glyph unicode="&#x37e;" glyph-name="uni037E" horiz-adv-x="281" d="M215 347Q215 335 211 324T198 305T179 293T156 288Q144 288 133 292T114 305T101 324T96 347Q96 359 100 370T113 389T133 402T156 407Q168 407 179 403T198 390T210 370T215 347ZM153 108Q179
108 196 88T214 35Q214 15 207 -6T185 -51T146 -97T91 -141L73 -121Q105 -96 121 -75T138 -33Q138 -20 133 -12T118 9T103 31T98 55Q98 66 101 75T112 91T129 103T153 108Z" />
<glyph unicode="&#x384;" glyph-name="tonos" horiz-adv-x="384" d="M185 577L156 580L160 759L238 751L185 577Z" />
<glyph unicode="&#x385;" glyph-name="dieresistonos" horiz-adv-x="546" d="M439 659Q439 638 425 624T389 609Q368 609 354 623T339 659Q339 680 353 694T389 709Q411 709 425 695T439 659ZM271 577L241 580L247 758L322 750L271 577ZM202 659Q202 638 188 624T153
609Q131 609 117 623T103 659Q103 680 117 694T153 709Q174 709 188 695T202 659Z" />
<glyph unicode="&#x386;" glyph-name="Alphatonos" horiz-adv-x="664" d="M420 0V27L506 40L453 183H172L124 40L210 27V0H12V27L64 40L303 682H362L600 40L652 27V0H420ZM307 586H306L183 219H441L307 586ZM435 577L406 580L410 759L488 751L435 577Z" />
<glyph unicode="&#x387;" glyph-name="anoteleia" horiz-adv-x="227" d="M174 498Q174 485 170 474T157 455T138 442T114 438Q101 438 90 442T71 454T58 474T53 498Q53 511 57 522T70 541T90 554T114 558Q127 558 137 554T156 542T169 522T174 498Z" />
<glyph unicode="&#x388;" glyph-name="Epsilontonos" horiz-adv-x="592" d="M92 0V27L169 40V635L92 648V675H520V531H489L452 640L259 642V365H416L445 447H473V249H445L416 330H259V34L454 36L491 151H522V0H92ZM26 577L-3 580L1 759L79 751L26 577Z" />
<glyph unicode="&#x389;" glyph-name="Etatonos" horiz-adv-x="825" d="M547 0V27L620 40V331H259V40L332 27V0H92V27L169 40V635L92 648V675H332V648L259 635V370H620V635L547 648V675H787V648L710 635V40L787 27V0H547ZM26 577L-3 580L1 759L79 751L26 577Z" />
<glyph unicode="&#x38a;" glyph-name="Iotatonos" horiz-adv-x="374" d="M92 0V27L169 40V635L92 648V675H335V648L259 635V40L335 27V0H92ZM26 577L-3 580L1 759L79 751L26 577Z" />
<glyph unicode="&#x38c;" glyph-name="Omicrontonos" horiz-adv-x="740" d="M699 347Q699 257 673 189T599 77T492 12T362 -9Q289 -9 232 12T133 76T70 182T48 328Q48 418 75 486T149 598T256 663T385 684Q458 684 516 663T615 599T677 493T699 347ZM600 334Q600
484 541 565T371 647Q321 647 280 628T209 571T163 474T147 339Q147 191 206 110T376 28Q427 28 468 47T538 104T584 200T600 334ZM32 577L3 580L7 759L85 751L32 577Z" />
<glyph unicode="&#x38e;" glyph-name="Upsilontonos" horiz-adv-x="657" d="M497 0H237V27L322 40V285L122 635L81 648V675H303V648L220 635L392 323H393L543 635L463 648V675H647V648L603 635L412 285V40L497 27V0ZM26 577L-3 580L1 759L79 751L26 577Z" />
<glyph unicode="&#x38f;" glyph-name="Omegatonos" horiz-adv-x="779" d="M465 0V80Q499 105 526 134T573 199T603 275T614 362Q614 424 600 475T557 565T486 625T389 646Q336 646 295 626T226 570T184 485T169 375Q169 281 205 208T319 80V0H65V145H95L111 65H280V72Q181
120 126 196T71 363Q71 434 95 494T163 596T268 661T402 684Q476 684 534 662T632 599T692 503T712 382Q712 333 695 288T649 204T583 134T503 72V65H671L688 145H719L718 0H465ZM50 577L21 580L25 759L103 751L50 577Z" />
<glyph unicode="&#x390;" glyph-name="iotadieresistonos" horiz-adv-x="297" d="M186 102Q186 79 188 66T194 45T204 36T221 33Q233 33 247 36T277 48V15Q258 5 234 -1T187 -8Q163 -8 146 -3T119 14T103 46T98 99V456L29 465V492L186 502V102ZM571 659Q571 638
557 624T521 609Q500 609 486 623T471 659Q471 680 485 694T521 709Q543 709 557 695T571 659ZM403 577L373 580L379 758L454 750L403 577ZM334 659Q334 638 320 624T285 609Q263 609 249 623T235 659Q235 680 249 694T285 709Q306 709 320 695T334 659Z" />
<glyph unicode="&#x391;" glyph-name="Alpha" horiz-adv-x="664" d="M420 0V27L506 40L453 183H172L124 40L210 27V0H12V27L64 40L303 682H362L600 40L652 27V0H420ZM307 586H306L183 219H441L307 586Z" />
<glyph unicode="&#x392;" glyph-name="Beta" horiz-adv-x="602" d="M38 27L115 40V635L38 648V675H117Q209 677 295 679Q415 679 470 638T526 512Q526 483 517 459T490 414T444 379T380 358V357Q419 354 452 342T510 309T548 257T562 190Q562 149 546 114T495
53T409 12T290 -3Q220 -2 117 0H38V27ZM205 366L292 365Q327 365 354 374T399 402T425 445T434 505Q434 536 428 561T404 606T357 635T285 645Q256 645 240 644T205 640V366ZM205 40Q212 39 223 38T248 35T274 33T298 32Q343 32 375 41T428 68T459 114T469 182Q469
217 458 245T424 292T368 320T288 330H205V40Z" />
<glyph unicode="&#x393;" glyph-name="Gamma" horiz-adv-x="508" d="M448 503L410 640L205 643V40L282 27V0H38V27L115 40V635L38 648V675H479V503H448Z" />
<glyph unicode="&#x394;" glyph-name="Delta" horiz-adv-x="613" d="M44 0V49L279 682H337L572 49V0H44ZM283 586H282L106 58H475L283 586Z" />
<glyph unicode="&#x395;" glyph-name="Epsilon" horiz-adv-x="538" d="M38 0V27L115 40V635L38 648V675H466V531H435L398 640L205 642V365H362L391 447H419V249H391L362 330H205V34L400 36L437 151H468V0H38Z" />
<glyph unicode="&#x396;" glyph-name="Zeta" horiz-adv-x="547" d="M41 0V31L409 642L126 640L83 515H52L57 675H506V644L138 34L443 36L482 163H514V0H41Z" />
<glyph unicode="&#x397;" glyph-name="Eta" horiz-adv-x="771" d="M493 0V27L566 40V331H205V40L278 27V0H38V27L115 40V635L38 648V675H278V648L205 635V370H566V635L493 648V675H733V648L656 635V40L733 27V0H493Z" />
<glyph unicode="&#x398;" glyph-name="Theta" horiz-adv-x="744" d="M703 347Q703 257 676 189T601 77T492 12T359 -9Q286 -9 228 12T127 76T63 182T41 328Q41 418 68 486T143 598T252 663T385 684Q458 684 516 663T617 599T681 493T703 347ZM606 333Q606 408
591 466T546 565T472 626T370 647Q317 647 274 628T201 570T154 473T138 340Q138 266 153 208T198 110T272 49T374 28Q427 28 470 47T543 105T590 201T606 333ZM263 317L238 246H213V448H238L263 377H481L506 448H531V246H506L481 317H263Z" />
<glyph unicode="&#x399;" glyph-name="Iota" horiz-adv-x="320" d="M38 0V27L115 40V635L38 648V675H281V648L205 635V40L281 27V0H38Z" />
<glyph unicode="&#x39a;" glyph-name="Kappa" horiz-adv-x="661" d="M406 0V27L481 40L205 338V40L276 27V0H38V27L115 40V635L38 648V675H274V648L205 635V352L487 635L413 648V675H621V648L560 635L283 380L601 40L652 27V0H406Z" />
<glyph unicode="&#x39b;" glyph-name="Lambda" horiz-adv-x="664" d="M12 27L64 40L303 682H362L599 40L652 27V0H419V27L506 40L307 586H306L124 40L210 27V0H12V27Z" />
<glyph unicode="&#x39c;" glyph-name="Mu" horiz-adv-x="921" d="M667 0V27L744 40L684 576H683L459 0H417L194 577H193L149 40L220 27V0H31V27L86 40L156 635L78 648V675H249L464 132L675 675H843V648L765 635L840 40L893 27V0H667Z" />
<glyph unicode="&#x39d;" glyph-name="Nu" horiz-adv-x="719" d="M557 -7L157 576H156L178 40L256 27V0H38V27L117 40L118 635L38 648V675H201L568 141H569L551 635L477 648V675H672V648L609 635V-7H557Z" />
<glyph unicode="&#x39e;" glyph-name="Xi" horiz-adv-x="643" d="M570 675V491H538L514 607H129L105 491H74V675H570ZM64 0V185H98L124 70H519L545 185H579V0H64ZM209 316L193 244H167V448H193L209 375H431L447 448H473V244H447L431 316H209Z" />
<glyph unicode="&#x39f;" glyph-name="Omicron" horiz-adv-x="733" d="M692 347Q692 257 666 189T592 77T485 12T355 -9Q282 -9 225 12T126 76T63 182T41 328Q41 418 68 486T142 598T249 663T378 684Q451 684 509 663T608 599T670 493T692 347ZM593 334Q593 484
534 565T364 647Q314 647 273 628T202 571T156 474T140 339Q140 191 199 110T369 28Q420 28 461 47T531 104T577 200T593 334Z" />
<glyph unicode="&#x3a0;" glyph-name="Pi" horiz-adv-x="741" d="M463 0V27L536 40V641H205V40L277 27V0H38V27L115 40V635L38 648V675H702V648L626 635V40L702 27V0H463Z" />
<glyph unicode="&#x3a1;" glyph-name="Rho" horiz-adv-x="581" d="M543 476Q543 419 526 376T475 305T396 263T289 249Q242 249 205 255V40L285 27V0H38V27L115 40V635L38 648V675H103Q114 675 130 675T182 677T246 678T298 679Q423 679 483 628T543 476ZM452
470Q452 558 412 601T287 645Q263 645 242 643T205 638V296Q241 285 295 285Q377 285 414 331T452 470Z" />
<glyph unicode="&#x3a3;" glyph-name="Sigma" horiz-adv-x="560" d="M497 503H466L428 640L146 643Q165 622 187 594T229 543L375 366L124 70H443L471 193H505V0H40V36L289 331L45 628V675H497V503Z" />
<glyph unicode="&#x3a4;" glyph-name="Tau" horiz-adv-x="562" d="M513 503L475 640L326 643V40L411 27V0H151V27L236 40V643L87 640L49 503H18V675H544V503H513Z" />
<glyph unicode="&#x3a5;" glyph-name="Upsilon" horiz-adv-x="585" d="M425 0H165V27L250 40V285L50 635L9 648V675H231V648L148 635L320 323H321L471 635L391 648V675H575V648L531 635L340 285V40L425 27V0Z" />
<glyph unicode="&#x3a6;" glyph-name="Phi" horiz-adv-x="806" d="M675 337Q675 400 657 442T608 508T536 540T446 550V124Q500 125 541 136T613 172T659 238T675 337ZM361 550Q306 549 265 538T193 502T148 437T132 338Q132 275 148 234T195 169T266 136T361
124V550ZM446 587Q521 587 580 574T681 531T747 455T770 346Q770 283 744 235T674 154T571 105T446 88V34L524 21V-5H282V21L361 34V87Q285 87 226 100T125 141T60 215T37 328Q37 392 62 440T133 521T236 569T361 586V641L282 654V680H524V654L446 641V587Z" />
<glyph unicode="&#x3a7;" glyph-name="Chi" horiz-adv-x="661" d="M400 0V27L484 40L308 307L130 40L220 27V0H14V27L63 40L285 338L83 635L30 648V675H279V648L192 635L354 390L516 635L428 648V675H631V648L583 635L378 360L594 40L647 27V0H400Z" />
<glyph unicode="&#x3a8;" glyph-name="Psi" horiz-adv-x="831" d="M84 635L22 648V675H238V648L173 635V420Q173 363 185 323T221 258T283 218T374 200V635L305 648V675H533V648L463 635V199Q573 202 618 250T664 408V635L599 648V675H812V648L750 635V449Q750
378 729 325T670 236T580 182T463 162V40L540 27V0H297V27L374 40V161Q296 164 240 181T150 229T100 299T84 390V635Z" />
<glyph unicode="&#x3a9;" glyph-name="Omega" horiz-adv-x="775" d="M461 0V80Q495 105 522 134T569 199T599 275T610 362Q610 424 596 475T553 565T482 625T385 646Q332 646 291 626T222 570T180 485T165 375Q165 281 201 208T315 80V0H61V145H91L107 65H276V72Q177
120 122 196T67 363Q67 434 91 494T159 596T264 661T398 684Q472 684 530 662T628 599T688 503T708 382Q708 333 691 288T645 204T579 134T499 72V65H667L684 145H715L714 0H461Z" />
<glyph unicode="&#x3aa;" glyph-name="Iotadieresis" horiz-adv-x="320" d="M38 0V27L115 40V635L38 648V675H281V648L205 635V40L281 27V0H38ZM564 789Q564 767 550 753T513 738Q491 738 477 752T462 789Q462 811 476 825T513 840Q535 840 549 826T564 789ZM370
789Q370 767 356 753T319 738Q297 738 283 752T268 789Q268 811 282 825T319 840Q341 840 355 826T370 789Z" />
<glyph unicode="&#x3ab;" glyph-name="Upsilondieresis" horiz-adv-x="585" d="M425 0H165V27L250 40V285L50 635L9 648V675H231V648L148 635L320 323H321L471 635L391 648V675H575V648L531 635L340 285V40L425 27V0ZM448 789Q448 767 434 753T397 738Q375 738
361 752T346 789Q346 811 360 825T397 840Q419 840 433 826T448 789ZM254 789Q254 767 240 753T203 738Q181 738 167 752T152 789Q152 811 166 825T203 840Q225 840 239 826T254 789Z" />
<glyph unicode="&#x3ac;" glyph-name="alphatonos" horiz-adv-x="609" d="M583 11Q567 2 547 -3T501 -8Q463 -8 446 17T427 104H426Q402 48 358 20T250 -9Q202 -9 164 8T100 56T59 132T45 232Q45 295 63 346T112 432T186 487T277 506Q311 506 336 498T380 477T411
446T430 409Q434 435 438 458T449 504H521Q518 484 515 461T509 409T504 343T501 261Q500 187 501 142T508 72T522 41T545 33Q554 33 565 35T583 40V11ZM423 251Q423 317 412 359T381 427T337 461T283 471Q249 471 222 458T176 418T147 348T137 246Q137 193 146
153T172 86T214 46T271 32Q306 32 334 46T382 87T412 156T423 251ZM307 577L278 580L282 759L360 751L307 577Z" />
<glyph unicode="&#x3ad;" glyph-name="epsilontonos" horiz-adv-x="472" d="M432 40Q400 19 353 6T263 -8Q211 -8 173 1T110 27T72 69T59 129Q59 176 91 208T187 254V255Q134 268 107 296T79 371Q79 401 93 426T136 469T203 498T293 508Q326 508 360 504T422 493L410
424Q382 447 346 460T269 473Q219 473 196 452T172 381Q172 330 207 305T322 279Q341 279 352 279T378 280V242Q350 244 335 244T282 245Q217 245 187 220T157 139Q157 87 187 60T282 33Q323 33 359 42T432 73V40ZM277 577L248 580L252 759L330 751L277 577Z" />
<glyph unicode="&#x3ae;" glyph-name="etatonos" horiz-adv-x="583" d="M102 246Q102 376 85 456L21 463V493L166 502Q179 444 179 381H180Q201 442 246 474T355 507Q436 507 474 453T512 285V-47Q512 -102 515 -151T527 -248H444Q433 -201 429 -156T424 -56V264Q424
316 419 353T403 415T373 453T325 466Q296 466 272 453T229 417T200 362T190 295V0H102V246ZM307 577L278 580L282 759L360 751L307 577Z" />
<glyph unicode="&#x3af;" glyph-name="iotatonos" horiz-adv-x="297" d="M186 102Q186 79 188 66T194 45T204 36T221 33Q233 33 247 36T277 48V15Q258 5 234 -1T187 -8Q163 -8 146 -3T119 14T103 46T98 99V456L29 465V492L186 502V102ZM410 577L381 580L385 759L463
751L410 577Z" />
<glyph unicode="&#x3b0;" glyph-name="upsilondieresistonos" horiz-adv-x="584" d="M94 214Q94 241 94 274T95 342T96 407T98 456L29 465V492L188 502Q187 473 186 439T184 370T183 301T182 238Q182 178 188 139T207 76T244 42T301 31Q335 31 360 44T401 85T425
160T434 272Q434 309 434 335T431 381T424 417T414 442T399 457T376 464T346 463V491Q363 497 383 500T421 504Q449 504 468 495T499 465T516 410T521 325Q521 239 502 176T450 71T372 11T277 -9Q227 -9 192 4T136 45T104 114T94 214ZM464 659Q464 638 450 624T414
609Q393 609 379 623T364 659Q364 680 378 694T414 709Q436 709 450 695T464 659ZM296 577L266 580L272 758L347 750L296 577ZM227 659Q227 638 213 624T178 609Q156 609 142 623T128 659Q128 680 142 694T178 709Q199 709 213 695T227 659Z" />
<glyph unicode="&#x3b1;" glyph-name="alpha" horiz-adv-x="609" d="M583 11Q567 2 547 -3T501 -8Q463 -8 446 17T427 104H426Q402 48 358 20T250 -9Q202 -9 164 8T100 56T59 132T45 232Q45 295 63 346T112 432T186 487T277 506Q311 506 336 498T380 477T411 446T430
409Q434 435 438 458T449 504H521Q518 484 515 461T509 409T504 343T501 261Q500 187 501 142T508 72T522 41T545 33Q554 33 565 35T583 40V11ZM423 251Q423 317 412 359T381 427T337 461T283 471Q249 471 222 458T176 418T147 348T137 246Q137 193 146 153T172
86T214 46T271 32Q306 32 334 46T382 87T412 156T423 251Z" />
<glyph unicode="&#x3b2;" glyph-name="beta" horiz-adv-x="550" d="M168 61Q194 45 219 37T267 28Q338 28 376 72T415 192Q415 273 374 316T257 359H235V396Q311 399 349 438T388 554Q388 627 364 663T285 699Q227 699 198 658T168 521V61ZM168 -47Q168 -104 171
-152T184 -248H100Q89 -201 85 -154T80 -52V510Q80 561 95 603T140 675T209 721T298 737Q340 737 374 725T431 693T467 644T479 581Q479 515 442 467T335 397V396Q419 388 463 342T508 221Q508 174 489 132T437 59T357 10T254 -8Q231 -8 208 -5T168 2V-47Z" />
<glyph unicode="&#x3b3;" glyph-name="gamma" horiz-adv-x="537" d="M496 390Q496 350 484 306T448 214T384 112T289 1Q290 -32 290 -68T289 -138T286 -201T285 -248H203Q204 -229 205 -196T207 -121T207 -36T199 46Q190 99 177 154T145 263T106 365T62 454L7
462V490L142 501Q180 430 210 341T263 154Q269 129 273 101T281 46H283Q351 119 381 199T411 369Q411 395 408 414T395 445T370 462T327 463V491Q343 497 362 500T403 504Q447 504 471 477T496 390Z" />
<glyph unicode="&#x3b4;" glyph-name="delta" horiz-adv-x="558" d="M424 222Q424 265 415 298T385 359T331 411T246 459Q192 433 166 386T140 248Q140 139 178 83T281 27Q358 27 391 73T424 222ZM417 584L385 695Q365 703 343 707T287 712Q240 712 216 693T191
638Q191 607 212 583T277 536T361 490T437 436T494 359T517 250Q517 193 499 146T449 63T371 10T269 -9Q218 -9 177 7T106 55T62 130T46 228Q46 276 56 314T88 383T141 436T214 476Q156 507 132 539T107 614Q107 643 119 666T157 708T218 735T301 745Q339 745 377
738T448 718V584H417Z" />
<glyph unicode="&#x3b5;" glyph-name="epsilon" horiz-adv-x="472" d="M432 40Q400 19 353 6T263 -8Q211 -8 173 1T110 27T72 69T59 129Q59 176 91 208T187 254V255Q134 268 107 296T79 371Q79 401 93 426T136 469T203 498T293 508Q326 508 360 504T422 493L410
424Q382 447 346 460T269 473Q219 473 196 452T172 381Q172 330 207 305T322 279Q341 279 352 279T378 280V242Q350 244 335 244T282 245Q217 245 187 220T157 139Q157 87 187 60T282 33Q323 33 359 42T432 73V40Z" />
<glyph unicode="&#x3b6;" glyph-name="zeta" horiz-adv-x="401" d="M410 -43Q410 -62 402 -84T380 -128T344 -173T298 -216L276 -197Q311 -164 326 -137T342 -86Q342 -56 317 -37T225 -5Q127 14 85 67T42 215Q42 345 117 460T335 666H71V734H385V672Q317 626 270
573T192 463T148 349T133 237Q133 197 140 169T164 121T206 89T268 68Q345 51 377 26T410 -43Z" />
<glyph unicode="&#x3b7;" glyph-name="eta" horiz-adv-x="583" d="M102 246Q102 376 85 456L21 463V493L166 502Q179 444 179 381H180Q201 442 246 474T355 507Q436 507 474 453T512 285V-47Q512 -102 515 -151T527 -248H444Q433 -201 429 -156T424 -56V264Q424
316 419 353T403 415T373 453T325 466Q296 466 272 453T229 417T200 362T190 295V0H102V246Z" />
<glyph unicode="&#x3b8;" glyph-name="theta" horiz-adv-x="591" d="M540 382Q540 287 520 213T464 89T381 16T282 -9Q229 -9 187 13T114 80T67 193T51 351Q51 447 71 520T128 643T210 716T309 741Q363 741 406 719T478 651T524 539T540 382ZM448 390Q445 469
435 527T405 626T358 685T294 705Q259 705 232 687T185 631T154 533T143 390H448ZM143 355Q145 274 155 213T185 110T232 48T297 27Q332 27 359 45T406 102T436 204T448 355H143Z" />
<glyph unicode="&#x3b9;" glyph-name="iota" horiz-adv-x="297" d="M186 102Q186 79 188 66T194 45T204 36T221 33Q233 33 247 36T277 48V15Q258 5 234 -1T187 -8Q163 -8 146 -3T119 14T103 46T98 99V456L29 465V492L186 502V102Z" />
<glyph unicode="&#x3ba;" glyph-name="kappa" horiz-adv-x="518" d="M370 0L188 252V0H100V455L29 465V492L188 502V258L368 498H489V470L419 458L264 294L453 40L506 27V0H370Z" />
<glyph unicode="&#x3bb;" glyph-name="lambda" horiz-adv-x="529" d="M469 40L523 27V0H295V27L376 40L291 314Q286 332 280 351T270 390T262 424T257 452H255L223 316Q193 196 175 135T140 43T104 2T54 -8Q41 -8 26 -4T1 6V34Q15 32 24 33T43 43T64 71T89 121T123
202T171 325L235 496L209 579Q197 616 188 638T169 673T150 689T127 694Q115 694 105 691T86 684L84 712Q100 724 122 731T163 739Q190 739 208 732T241 706T268 658T298 575L469 40Z" />
<glyph unicode="&#x3bc;" glyph-name="mu" horiz-adv-x="616" d="M104 -248Q102 -144 100 -41T98 166Q98 211 98 254T99 335T101 405T103 456L29 465V492L192 502Q190 471 189 434T188 359T187 284T186 215Q186 125 209 79T289 32Q319 32 344 45T388 81T417 135T427
204V456L354 465V492L515 502V160Q515 115 516 90T525 52T546 37T585 34H588V6Q567 -1 543 -5T495 -9Q475 -9 463 -2T443 19T433 56T433 106L431 107Q423 82 408 62T372 25T325 0T269 -9Q231 -9 207 3T167 34L197 -248H104Z" />
<glyph unicode="&#x3bd;" glyph-name="nu" horiz-adv-x="531" d="M495 402Q495 357 484 315T450 227T389 127T295 0H220L66 454L10 462V490L146 501L258 154Q267 126 275 98T290 52H291Q324 96 347 138T384 219T404 296T410 369Q410 426 393 447T328 463V491Q347
498 365 501T405 504Q447 504 471 478T495 402Z" />
<glyph unicode="&#x3be;" glyph-name="xi" horiz-adv-x="436" d="M417 -43Q417 -81 387 -127T305 -216L283 -197Q316 -164 332 -137T349 -86Q349 -55 323 -37T230 -4Q123 18 79 61T35 180Q35 220 50 253T92 312T154 352T230 372Q162 380 119 416T75 513Q75 575
120 615T242 669Q230 668 201 667T154 666H68V734H382V666H340Q250 666 206 630T162 526Q162 498 172 475T200 434T243 407T296 398Q316 398 329 398T363 399V361Q348 362 334 362T299 363Q260 363 228 352T173 321T138 271T126 206Q126 174 134 152T159 115T204
88T275 68Q352 51 384 26T417 -43Z" />
<glyph unicode="&#x3bf;" glyph-name="omicron" horiz-adv-x="579" d="M534 255Q534 188 515 138T460 55T379 7T282 -9Q170 -9 108 55T45 242Q45 309 65 359T120 442T201 490T297 506Q409 506 471 442T534 255ZM442 247Q442 355 403 413T288 472Q218 472 178 418T137
251Q137 143 176 85T291 26Q362 26 402 79T442 247Z" />
<glyph unicode="&#x3c0;" glyph-name="pi" horiz-adv-x="648" d="M478 434Q479 397 482 354T491 269T500 189T511 125Q520 79 535 61T580 43Q591 43 604 46T627 53V24Q605 9 581 1T529 -7Q500 -7 481 0T449 26T432 76T426 156Q426 206 426 242T426 307T427 373T428
434H221Q221 373 219 314T211 199T198 89T177 -9L75 10Q93 54 109 104T138 210T161 322T172 434H123Q86 434 66 430T26 414L14 440Q41 471 73 484T149 498H623V434H478Z" />
<glyph unicode="&#x3c1;" glyph-name="rho" horiz-adv-x="549" d="M504 272Q504 206 486 155T433 67T348 13T236 -6Q212 -6 190 -4T150 3Q151 -13 151 -30T151 -70V-248H63V271Q63 323 78 366T123 440T196 489T294 507Q345 507 384 491T450 443T490 369T504 272ZM413
252Q413 354 377 410T277 466Q249 466 227 457T187 427T161 371T151 282V58Q172 44 199 37T263 29Q295 29 322 43T370 85T402 155T413 252Z" />
<glyph unicode="&#x3c2;" glyph-name="sigma1" horiz-adv-x="459" d="M387 346L356 457Q349 460 342 462T326 466T305 469T279 471Q207 471 173 422T139 253Q139 208 146 177T169 125T210 91T275 69Q354 51 386 26T419 -43Q419 -62 411 -83T389 -128T354 -173T307
-216L285 -197Q319 -164 335 -137T352 -86Q352 -71 346 -59T327 -37T291 -20T236 -5Q186 5 150 25T91 76T57 149T45 245Q45 369 107 437T288 505Q321 505 355 501T416 489V346H387Z" />
<glyph unicode="&#x3c3;" glyph-name="sigma" horiz-adv-x="592" d="M566 430Q551 430 532 432T493 439T456 448T423 456Q472 420 501 365T531 250Q531 193 512 145T459 63T376 10T272 -9Q166 -9 106 55T45 238Q45 297 65 347T122 432T209 487T317 506Q351 506
435 502T566 497V430ZM440 242Q440 312 424 367T374 458Q357 464 337 467T298 471Q261 471 231 458T181 417T150 349T139 255Q139 199 150 156T181 85T228 42T286 27Q325 27 353 41T401 82T430 149T440 242Z" />
<glyph unicode="&#x3c4;" glyph-name="tau" horiz-adv-x="397" d="M228 434Q227 363 227 335T228 277Q228 201 230 155T240 82T261 47T295 37Q318 37 337 44T369 57V25Q348 13 319 4T259 -7Q228 -8 206 -1T170 22T150 64T143 127Q143 145 144 167T148 214T153
265T162 333T179 434H110Q82 434 59 430T13 414L2 440Q29 472 62 485T136 498H381V434H228Z" />
<glyph unicode="&#x3c5;" glyph-name="upsilon" horiz-adv-x="584" d="M94 214Q94 241 94 274T95 342T96 407T98 456L29 465V492L188 502Q187 473 186 439T184 370T183 301T182 238Q182 178 188 139T207 76T244 42T301 31Q335 31 360 44T401 85T425 160T434 272Q434
309 434 335T431 381T424 417T414 442T399 457T376 464T346 463V491Q363 497 383 500T421 504Q449 504 468 495T499 465T516 410T521 325Q521 239 502 176T450 71T372 11T277 -9Q227 -9 192 4T136 45T104 114T94 214Z" />
<glyph unicode="&#x3c6;" glyph-name="phi" horiz-adv-x="676" d="M380 -248H292V-9Q234 -7 189 10T111 58T62 131T45 225Q45 273 58 317T95 399T151 463T221 508L239 487Q184 447 161 389T138 246Q138 153 176 97T292 29V312Q292 361 304 397T337 456T386 490T448
502Q488 502 522 487T580 441T618 368T631 274Q631 218 614 170T565 85T485 25T380 -7V-248ZM537 258Q537 311 532 350T514 416T485 455T442 468Q409 468 395 440T380 345V25Q417 28 446 44T495 89T526 160T537 258Z" />
<glyph unicode="&#x3c7;" glyph-name="chi" horiz-adv-x="464" d="M489 -236Q482 -240 474 -243T457 -249T440 -252T424 -253Q400 -253 383 -249T350 -231T322 -195T294 -133L208 90L83 -254L0 -229L189 128L104 344Q90 379 79 403T55 441T26 461T-14 463V491Q3
497 23 500T60 504Q82 504 98 500T126 485T150 455T173 405L254 195L365 498H460L272 158L375 -103Q389 -138 398 -160T416 -193T432 -208T451 -212Q465 -212 489 -204V-236Z" />
<glyph unicode="&#x3c8;" glyph-name="psi" horiz-adv-x="782" d="M446 -248H358V-8Q288 -6 238 10T156 58T109 134T94 239Q94 264 94 294T95 353T96 409T98 456L29 465V492L188 502Q185 441 184 381T182 264Q182 152 224 96T358 30V692L283 701V728L446 738V30Q543
40 592 113T642 317Q642 375 637 404T620 448Q611 458 599 462T564 463V491Q578 497 597 500T632 504Q656 504 674 497T705 471T723 423T729 348Q729 274 710 213T654 107T566 34T446 -4V-248Z" />
<glyph unicode="&#x3c9;" glyph-name="omega" horiz-adv-x="788" d="M739 264Q739 202 724 151T680 65T611 10T523 -9Q467 -9 430 22T378 125Q366 59 326 25T227 -9Q187 -9 154 7T98 52T62 124T49 218Q49 308 88 382T200 517L225 499Q183 450 164 388T144 245Q144
143 174 88T251 32Q274 32 292 41T322 68T342 117T349 192Q349 236 348 275T346 342T344 386T343 407H442Q442 402 441 387T439 346T437 286T436 218Q436 167 443 131T463 73T495 42T537 32Q563 32 583 43T616 79T637 142T645 238Q645 324 627 386T567 499L592
517Q663 465 701 401T739 264Z" />
<glyph unicode="&#x3ca;" glyph-name="iotadieresis" horiz-adv-x="297" d="M186 102Q186 79 188 66T194 45T204 36T221 33Q233 33 247 36T277 48V15Q258 5 234 -1T187 -8Q163 -8 146 -3T119 14T103 46T98 99V456L29 465V492L186 502V102ZM534 658Q534 636 520
622T483 607Q461 607 447 621T432 658Q432 680 446 694T483 709Q505 709 519 695T534 658ZM363 658Q363 636 349 622T312 607Q289 607 275 621T260 658Q260 680 274 694T312 709Q334 709 348 695T363 658Z" />
<glyph unicode="&#x3cb;" glyph-name="upsilondieresis" horiz-adv-x="584" d="M94 214Q94 241 94 274T95 342T96 407T98 456L29 465V492L188 502Q187 473 186 439T184 370T183 301T182 238Q182 178 188 139T207 76T244 42T301 31Q335 31 360 44T401 85T425 160T434
272Q434 309 434 335T431 381T424 417T414 442T399 457T376 464T346 463V491Q363 497 383 500T421 504Q449 504 468 495T499 465T516 410T521 325Q521 239 502 176T450 71T372 11T277 -9Q227 -9 192 4T136 45T104 114T94 214ZM433 658Q433 636 419 621T381 606Q359
606 345 621T330 658Q330 680 344 695T381 710Q404 710 418 695T433 658ZM243 658Q243 636 229 621T191 606Q169 606 154 621T139 658Q139 680 154 695T191 710Q214 710 228 695T243 658Z" />
<glyph unicode="&#x3cc;" glyph-name="omicrontonos" horiz-adv-x="579" d="M534 255Q534 188 515 138T460 55T379 7T282 -9Q170 -9 108 55T45 242Q45 309 65 359T120 442T201 490T297 506Q409 506 471 442T534 255ZM442 247Q442 355 403 413T288 472Q218 472
178 418T137 251Q137 143 176 85T291 26Q362 26 402 79T442 247ZM299 577L270 580L274 759L352 751L299 577Z" />
<glyph unicode="&#x3cd;" glyph-name="upsilontonos" horiz-adv-x="584" d="M94 214Q94 241 94 274T95 342T96 407T98 456L29 465V492L188 502Q187 473 186 439T184 370T183 301T182 238Q182 178 188 139T207 76T244 42T301 31Q335 31 360 44T401 85T425 160T434
272Q434 309 434 335T431 381T424 417T414 442T399 457T376 464T346 463V491Q363 497 383 500T421 504Q449 504 468 495T499 465T516 410T521 325Q521 239 502 176T450 71T372 11T277 -9Q227 -9 192 4T136 45T104 114T94 214ZM298 577L269 580L273 759L351 751L298
577Z" />
<glyph unicode="&#x3ce;" glyph-name="omegatonos" horiz-adv-x="788" d="M739 264Q739 202 724 151T680 65T611 10T523 -9Q467 -9 430 22T378 125Q366 59 326 25T227 -9Q187 -9 154 7T98 52T62 124T49 218Q49 308 88 382T200 517L225 499Q183 450 164 388T144
245Q144 143 174 88T251 32Q274 32 292 41T322 68T342 117T349 192Q349 236 348 275T346 342T344 386T343 407H442Q442 402 441 387T439 346T437 286T436 218Q436 167 443 131T463 73T495 42T537 32Q563 32 583 43T616 79T637 142T645 238Q645 324 627 386T567
499L592 517Q663 465 701 401T739 264ZM394 577L365 580L369 759L447 751L394 577Z" />
<glyph unicode="&#x3d0;" glyph-name="beta.alt" horiz-adv-x="547" d="M456 616Q456 572 433 533T364 463Q432 433 466 380T501 250Q501 194 483 146T433 63T357 10T266 -9Q212 -9 174 8T110 64T72 166T59 322Q59 415 75 491T124 622T202 706T309 736Q345 736
372 728T418 704T446 666T456 616ZM365 607Q365 653 348 676T294 699Q259 699 233 679T190 618T164 522T152 391Q207 410 248 434T315 485T353 542T365 607ZM410 230Q410 302 384 350T307 428Q279 412 267 405T236 390T197 372T151 354Q151 263 158 200T181 100T219
46T275 29Q338 29 374 80T410 230Z" />
<glyph unicode="&#x3d1;" glyph-name="theta1" horiz-adv-x="588" d="M17 416Q30 420 49 422T89 425Q127 425 145 407T163 351Q163 321 162 280T160 221Q160 171 169 135T195 76T235 41T287 30Q329 30 358 53T406 125T428 256T424 454Q418 454 386 452T334 449Q272
449 230 458T160 483T121 524T108 581Q108 613 122 642T161 693T219 728T290 741Q373 741 430 676T509 493H529Q551 493 570 492T606 486L603 449Q581 452 559 454T514 457Q524 347 511 260T466 113T382 22T266 -9Q220 -9 184 4T122 44T83 107T70 194Q70 207 70
222T71 261T72 299T73 324Q73 346 71 358T62 378T46 387T17 391V416ZM417 487Q400 591 360 647T266 703Q229 703 208 678T187 612Q187 550 227 517T341 483Q360 483 384 485T417 487Z" />
<glyph unicode="&#x3d5;" glyph-name="phi1" horiz-adv-x="679" d="M297 469Q261 465 232 453T182 417T149 353T137 254Q137 201 148 161T180 93T230 50T297 28V469ZM542 244Q542 346 500 402T382 469V28Q418 32 447 44T497 80T530 145T542 244ZM382 506Q503 500
568 437T634 259Q634 199 616 153T563 73T484 20T382 -7V-248H296V-8Q176 -2 111 61T45 239Q45 299 63 345T116 425T195 478T296 505V692L218 701V728L382 738V506Z" />
<glyph unicode="&#x400;" glyph-name="uni0400" horiz-adv-x="538" d="M38 0V27L115 40V635L38 648V675H466V531H435L398 640L205 642V365H362L391 447H419V249H391L362 330H205V34L400 36L437 151H468V0H38ZM305 738L107 810L141 880L317 765L305 738Z" />
<glyph unicode="&#x401;" glyph-name="uni0401" horiz-adv-x="538" d="M38 0V27L115 40V635L38 648V675H466V531H435L398 640L205 642V365H362L391 447H419V249H391L362 330H205V34L400 36L437 151H468V0H38ZM421 789Q421 767 407 753T370 738Q348 738 334 752T319
789Q319 811 333 825T370 840Q392 840 406 826T421 789ZM227 789Q227 767 213 753T176 738Q154 738 140 752T125 789Q125 811 139 825T176 840Q198 840 212 826T227 789Z" />
<glyph unicode="&#x402;" glyph-name="uni0402" horiz-adv-x="770" d="M513 503L475 640L326 643V387Q346 397 395 410T508 423Q565 423 608 410T682 371T727 308T742 225Q742 178 727 135T681 57T605 7T503 -5V23Q577 22 612 67T648 202Q648 291 607 336T476
382Q427 382 386 371T326 353V40L400 27V0H159V27L236 40V643L87 640L49 503H18V675H544V503H513Z" />
<glyph unicode="&#x403;" glyph-name="uni0403" horiz-adv-x="508" d="M448 503L410 640L205 643V40L282 27V0H38V27L115 40V635L38 648V675H479V503H448ZM230 738L218 765L394 880L428 810L230 738Z" />
<glyph unicode="&#x404;" glyph-name="uni0404" horiz-adv-x="604" d="M553 45Q531 33 509 23T462 6T410 -5T354 -9Q282 -9 224 12T125 76T63 181T42 327Q42 417 68 485T141 598T248 663T376 684Q422 684 461 679T538 662V507H506L468 629Q447 637 421 641T364
646Q309 646 268 627T199 571T159 481T143 358L455 372V310L142 324Q144 253 160 199T206 108T278 53T374 34Q421 34 467 46T553 83V45Z" />
<glyph unicode="&#x405;" glyph-name="uni0405" horiz-adv-x="511" d="M456 182Q456 142 440 107T393 46T319 6T223 -9Q183 -9 140 -4T61 9V185H92L131 48Q143 43 153 40T176 34T204 30T238 29Q301 29 336 61T372 154Q372 197 350 225T297 273T214 316T129 364T74
424T52 512Q52 549 67 580T110 635T181 671T275 684Q311 684 347 680T415 669V513H383L345 634Q329 640 308 643T264 647Q199 647 168 621T136 536Q136 495 157 467T210 421T294 377T380 328T434 269T456 182Z" />
<glyph unicode="&#x406;" glyph-name="uni0406" horiz-adv-x="320" d="M38 0V27L115 40V635L38 648V675H281V648L205 635V40L281 27V0H38Z" />
<glyph unicode="&#x407;" glyph-name="uni0407" horiz-adv-x="320" d="M38 0V27L115 40V635L38 648V675H281V648L205 635V40L281 27V0H38ZM564 789Q564 767 550 753T513 738Q491 738 477 752T462 789Q462 811 476 825T513 840Q535 840 549 826T564 789ZM370 789Q370
767 356 753T319 738Q297 738 283 752T268 789Q268 811 282 825T319 840Q341 840 355 826T370 789Z" />
<glyph unicode="&#x408;" glyph-name="uni0408" horiz-adv-x="303" d="M198 635V90Q198 42 188 8T158 -52T108 -97T39 -134L22 -109Q46 -95 62 -81T88 -44T103 10T108 92V635L33 648V675H262V648L198 635Z" />
<glyph unicode="&#x409;" glyph-name="uni0409" horiz-adv-x="878" d="M756 194Q756 232 748 262T720 314T668 347T585 358H506V40Q513 38 524 37T548 34T572 33T595 32Q679 32 717 70T756 194ZM206 640Q206 526 203 440T196 288T185 178T169 103T149 53T125 20Q109
4 89 -3T43 -10Q22 -10 0 -2V79Q21 71 40 71Q73 71 92 90Q100 99 108 114T122 155T135 221T145 318T151 454T154 635L77 648V675H583V648L506 635V393H599Q732 393 791 343T850 204Q850 106 782 52T588 -3Q568 -3 547 -3T504 -2T460 -1T419 0H342V27L416 40V641L206
640Z" />
<glyph unicode="&#x40a;" glyph-name="uni040A" horiz-adv-x="985" d="M695 -3Q669 -3 611 -2T526 0H449V27L524 40V332H205V40L278 27V0H38V27L115 40V635L38 648V675H278V648L205 635V369H524V635L450 648V675H690V648L613 635V393Q637 393 660 393T706 393Q771
393 819 380T898 343T943 284T957 204Q957 156 940 118T889 52T806 11T695 -3ZM863 194Q863 235 855 264T827 315T775 347T692 358Q672 358 653 358T613 358V40Q630 37 656 35T702 32Q785 32 824 71T863 194Z" />
<glyph unicode="&#x40b;" glyph-name="uni040B" horiz-adv-x="789" d="M326 354V40L400 27V0H159V27L236 40V643L87 640L49 503H18V675H544V503H513L475 640L326 643V387Q342 394 361 400T403 413T450 423T497 427Q558 427 599 413T664 370T697 304T707 214V40L780
27V0H544V27L617 40V193Q617 242 612 275T590 331T543 367T460 380Q425 380 389 373T326 354Z" />
<glyph unicode="&#x40c;" glyph-name="uni040C" horiz-adv-x="619" d="M38 0V27L115 40V635L38 648V675H277V648L205 635V367H281L451 635L378 648V675H581V648L522 635L326 363Q377 356 409 329T463 264T498 186T524 110T555 52T598 29Q607 29 613 30V4Q611 3
607 1T596 -4T579 -9T554 -11Q509 -11 483 14T439 77T410 159T383 241T343 304T277 330H205V40L281 27V0H38ZM295 738L283 765L459 880L493 810L295 738Z" />
<glyph unicode="&#x40d;" glyph-name="uni040D" horiz-adv-x="771" d="M493 0V27L566 40V494Q566 523 566 545T568 584L193 0H38V27L115 40V635L38 648V675H278V648L205 635V181Q205 152 205 131T203 91L578 675H733V648L656 635V40L733 27V0H493ZM445 738L247
810L281 880L457 765L445 738Z" />
<glyph unicode="&#x40e;" glyph-name="uni040E" horiz-adv-x="606" d="M348 145Q330 101 312 72T273 24T226 -3T168 -12Q153 -12 135 -10T103 -2V77Q120 70 139 67T184 64Q203 64 217 66T248 76T280 103T308 151L47 635L5 648V675H229V648L146 635L353 242H354L493
635L418 648V675H605V648L556 635L348 145ZM458 853Q451 800 415 770T319 740Q260 740 223 770T180 853H254Q260 808 274 788T321 767Q353 767 366 787T385 853H458Z" />
<glyph unicode="&#x40f;" glyph-name="uni040F" horiz-adv-x="735" d="M403 0L385 -164H349L332 0H38V27L115 40V635L38 648V675H278V648L205 635V35H531V635L457 648V675H697V648L620 635V40L697 27V0H403Z" />
<glyph unicode="&#x410;" glyph-name="uni0410" horiz-adv-x="664" d="M420 0V27L506 40L453 183H172L124 40L210 27V0H12V27L64 40L303 682H362L600 40L652 27V0H420ZM307 586H306L183 219H441L307 586Z" />
<glyph unicode="&#x411;" glyph-name="uni0411" horiz-adv-x="591" d="M205 643V387H305Q372 387 420 376T499 342T544 288T559 211Q559 161 544 123T496 56T412 12T290 -3Q216 -2 117 0H38V27L115 40V635L38 648V675H506V503H474L436 640L205 643ZM297 32Q387
32 426 71T466 199Q466 238 457 266T427 314T373 343T291 353H205V40Q221 37 249 35T297 32Z" />
<glyph unicode="&#x412;" glyph-name="uni0412" horiz-adv-x="602" d="M38 27L115 40V635L38 648V675H117Q209 677 295 679Q415 679 470 638T526 512Q526 483 517 459T490 414T444 379T380 358V357Q419 354 452 342T510 309T548 257T562 190Q562 149 546 114T495
53T409 12T290 -3Q220 -2 117 0H38V27ZM205 366L292 365Q327 365 354 374T399 402T425 445T434 505Q434 536 428 561T404 606T357 635T285 645Q256 645 240 644T205 640V366ZM205 40Q212 39 223 38T248 35T274 33T298 32Q343 32 375 41T428 68T459 114T469 182Q469
217 458 245T424 292T368 320T288 330H205V40Z" />
<glyph unicode="&#x413;" glyph-name="uni0413" horiz-adv-x="508" d="M448 503L410 640L205 643V40L282 27V0H38V27L115 40V635L38 648V675H479V503H448Z" />
<glyph unicode="&#x414;" glyph-name="uni0414" horiz-adv-x="661" d="M80 35Q100 64 116 108T145 222T163 393T170 635L94 648V675H621V648L544 635V35H640L618 -164H582L564 0H74L56 -164H20L-2 35H80ZM454 640H222Q222 500 216 399T199 226T171 109T136 35H454V640Z" />
<glyph unicode="&#x415;" glyph-name="uni0415" horiz-adv-x="538" d="M38 0V27L115 40V635L38 648V675H466V531H435L398 640L205 642V365H362L391 447H419V249H391L362 330H205V34L400 36L437 151H468V0H38Z" />
<glyph unicode="&#x416;" glyph-name="uni0416" horiz-adv-x="922" d="M416 330H342Q303 330 278 306T237 243T209 160T180 77T135 14T65 -11Q29 -11 6 4V30Q15 29 21 29Q48 29 65 52T96 109T123 185T159 264T212 328T295 363L99 635L40 648V675H243V648L173 635L340
367H416V635L344 648V675H578V648L506 635V367H583L752 635L679 648V675H882V648L823 635L627 363Q678 356 711 329T765 264T800 186T827 110T857 52T900 29Q910 29 916 30V4Q893 -11 856 -11Q812 -11 785 14T741 77T712 159T684 241T644 304T578 330H506V40L582
27V0H340V27L416 40V330Z" />
<glyph unicode="&#x417;" glyph-name="uni0417" horiz-adv-x="524" d="M65 653Q105 666 149 675T243 684Q293 684 332 674T399 645T439 600T453 541Q453 510 441 483T408 434T355 396T286 368V367Q330 364 365 353T427 322T468 273T483 207Q483 161 464 122T408
54T322 9T211 -7Q157 -7 119 -1T41 18V86Q84 61 125 46T214 31Q255 31 287 41T342 70T376 118T388 182Q388 216 380 243T353 290T297 321T208 332Q192 332 175 331T138 327V363Q193 366 234 378T303 411T345 459T360 525Q360 592 328 621T227 650Q195 650 171 645T135
635L96 512H65V653Z" />
<glyph unicode="&#x418;" glyph-name="uni0418" horiz-adv-x="771" d="M493 0V27L566 40V494Q566 523 566 545T568 584L193 0H38V27L115 40V635L38 648V675H278V648L205 635V181Q205 152 205 131T203 91L578 675H733V648L656 635V40L733 27V0H493Z" />
<glyph unicode="&#x419;" glyph-name="uni0419" horiz-adv-x="771" d="M493 0V27L566 40V494Q566 523 566 545T568 584L193 0H38V27L115 40V635L38 648V675H278V648L205 635V181Q205 152 205 131T203 91L578 675H733V648L656 635V40L733 27V0H493ZM547 853Q540
800 504 770T408 740Q349 740 312 770T269 853H343Q349 808 363 788T410 767Q442 767 455 787T474 853H547Z" />
<glyph unicode="&#x41a;" glyph-name="uni041A" horiz-adv-x="619" d="M38 0V27L115 40V635L38 648V675H277V648L205 635V367H281L451 635L378 648V675H581V648L522 635L326 363Q377 356 409 329T463 264T498 186T524 110T555 52T598 29Q607 29 613 30V4Q611 3
607 1T596 -4T579 -9T554 -11Q509 -11 483 14T439 77T410 159T383 241T343 304T277 330H205V40L281 27V0H38Z" />
<glyph unicode="&#x41b;" glyph-name="uni041B" horiz-adv-x="636" d="M598 648L521 635V40L598 27V0H358V27L431 40V640H206Q206 526 203 440T196 288T185 178T169 103T149 53T125 20Q109 4 89 -3T43 -10Q24 -10 0 -2V79Q20 71 40 71Q73 71 92 90Q100 99 108
114T122 155T135 221T145 318T151 454T154 635L77 648V675H598V648Z" />
<glyph unicode="&#x41c;" glyph-name="uni041C" horiz-adv-x="921" d="M667 0V27L744 40L684 576H683L459 0H417L194 577H193L149 40L220 27V0H31V27L86 40L156 635L78 648V675H249L464 132L675 675H843V648L765 635L840 40L893 27V0H667Z" />
<glyph unicode="&#x41d;" glyph-name="uni041D" horiz-adv-x="771" d="M493 0V27L566 40V331H205V40L278 27V0H38V27L115 40V635L38 648V675H278V648L205 635V370H566V635L493 648V675H733V648L656 635V40L733 27V0H493Z" />
<glyph unicode="&#x41e;" glyph-name="uni041E" horiz-adv-x="733" d="M692 347Q692 257 666 189T592 77T485 12T355 -9Q282 -9 225 12T126 76T63 182T41 328Q41 418 68 486T142 598T249 663T378 684Q451 684 509 663T608 599T670 493T692 347ZM593 334Q593 484
534 565T364 647Q314 647 273 628T202 571T156 474T140 339Q140 191 199 110T369 28Q420 28 461 47T531 104T577 200T593 334Z" />
<glyph unicode="&#x41f;" glyph-name="uni041F" horiz-adv-x="721" d="M443 0V27L516 40V640H205V40L278 27V0H38V27L115 40V635L38 648V675H683V648L606 635V40L683 27V0H443Z" />
<glyph unicode="&#x420;" glyph-name="uni0420" horiz-adv-x="581" d="M543 476Q543 419 526 376T475 305T396 263T289 249Q242 249 205 255V40L285 27V0H38V27L115 40V635L38 648V675H103Q114 675 130 675T182 677T246 678T298 679Q423 679 483 628T543 476ZM452
470Q452 558 412 601T287 645Q263 645 242 643T205 638V296Q241 285 295 285Q377 285 414 331T452 470Z" />
<glyph unicode="&#x421;" glyph-name="uni0421" horiz-adv-x="604" d="M555 46Q512 21 461 6T355 -9Q282 -9 224 13T125 77T63 183T42 329Q42 419 68 486T140 598T247 663T376 684Q422 684 461 679T538 662V505H507L468 629Q448 637 421 641T364 645Q307 645 266
626T197 569T156 474T142 339Q142 267 156 210T200 114T272 55T373 34Q420 34 467 46T555 83V46Z" />
<glyph unicode="&#x422;" glyph-name="uni0422" horiz-adv-x="562" d="M513 503L475 640L326 643V40L411 27V0H151V27L236 40V643L87 640L49 503H18V675H544V503H513Z" />
<glyph unicode="&#x423;" glyph-name="uni0423" horiz-adv-x="606" d="M348 145Q330 101 312 72T273 24T226 -3T168 -12Q153 -12 135 -10T103 -2V77Q120 70 139 67T184 64Q203 64 217 66T248 76T280 103T308 151L47 635L5 648V675H229V648L146 635L353 242H354L493
635L418 648V675H605V648L556 635L348 145Z" />
<glyph unicode="&#x424;" glyph-name="uni0424" horiz-adv-x="806" d="M674 337Q674 400 657 440T608 502T537 532T446 540V133Q501 134 542 144T613 177T658 239T674 337ZM361 540Q305 539 264 529T194 496T148 435T132 338Q132 275 148 235T195 173T265 143T361
133V540ZM446 577Q523 577 582 564T684 524T748 452T770 346Q770 283 744 236T674 159T571 113T446 97V34L524 21V-5H282V21L361 34V97Q282 97 223 109T123 147T59 218T37 328Q37 391 62 438T133 517T236 562T361 577V641L282 654V680H524V654L446 641V577Z" />
<glyph unicode="&#x425;" glyph-name="uni0425" horiz-adv-x="661" d="M400 0V27L484 40L308 307L130 40L220 27V0H14V27L63 40L285 338L83 635L30 648V675H279V648L192 635L354 390L516 635L428 648V675H631V648L583 635L378 360L594 40L647 27V0H400Z" />
<glyph unicode="&#x426;" glyph-name="uni0426" horiz-adv-x="719" d="M697 35L674 -164H639L621 0H38V27L115 40V635L38 648V675H277V648L205 635V35H511V635L439 648V675H677V648L600 635V35H697Z" />
<glyph unicode="&#x427;" glyph-name="uni0427" horiz-adv-x="657" d="M619 0H377V27L453 40V292Q414 280 367 272T274 264Q215 264 175 275T110 311T74 373T62 467V635L0 648V675H224V648L151 635V480Q151 431 157 399T180 346T224 316T298 306Q339 306 377 312T453
329V635L380 648V675H619V648L543 635V40L619 27V0Z" />
<glyph unicode="&#x428;" glyph-name="uni0428" horiz-adv-x="997" d="M38 0V27L115 40V635L38 648V675H278V648L205 635V35H454V635L380 648V675H617V648L544 635V35H792V635L719 648V675H959V648L882 635V40L959 27V0H38Z" />
<glyph unicode="&#x429;" glyph-name="uni0429" horiz-adv-x="1001" d="M921 -164L903 0H38V27L115 40V635L38 648V675H278V648L205 635V35H454V635L380 648V675H617V648L544 635V35H792V635L719 648V675H959V648L882 635V35H978L956 -164H921Z" />
<glyph unicode="&#x42a;" glyph-name="uni042A" horiz-adv-x="703" d="M581 194Q581 277 544 317T411 358H326V40Q342 37 370 35T418 32Q460 32 490 41T540 69T571 118T581 194ZM236 643L87 640L49 503H18V675H403V648L326 635V393H425Q490 393 537 381T616 344T661
285T676 203Q676 155 659 117T609 52T526 11T411 -3Q324 -2 233 0H151V27L236 40V643Z" />
<glyph unicode="&#x42b;" glyph-name="uni042B" horiz-adv-x="871" d="M454 194Q454 235 446 264T418 315T366 347T284 358H205V40Q222 37 248 35T293 32Q335 32 365 41T415 70T444 120T454 194ZM115 635L38 648V675H281V648L205 635V393H297Q363 393 411 380T489
343T534 284T549 204Q549 156 532 118T480 52T397 11T286 -3Q254 -3 117 0H38V27L115 40V635ZM590 0V27L666 40V635L590 648V675H833V648L756 635V40L833 27V0H590Z" />
<glyph unicode="&#x42c;" glyph-name="uni042C" horiz-adv-x="582" d="M460 194Q460 235 452 264T425 315T373 347T289 358H205V40Q221 37 248 35T297 32Q339 32 369 41T419 69T450 118T460 194ZM115 635L38 648V675H281V648L205 635V393H305Q369 393 416 381T494
344T540 285T555 204Q555 155 538 117T488 52T405 11T290 -3Q204 -2 111 0H38V27L115 40V635Z" />
<glyph unicode="&#x42d;" glyph-name="uni042D" horiz-adv-x="604" d="M563 345Q563 258 537 191T466 80T362 14T237 -8Q191 -8 147 -1T61 22V91Q101 63 149 47T245 30Q297 30 337 49T405 107T448 200T464 324L151 310V372L463 359Q460 436 443 491T397 580T327
631T234 647Q210 647 183 642T134 628L97 509H66V652Q88 660 109 665T154 675T203 681T255 684Q405 684 484 596T563 345Z" />
<glyph unicode="&#x42e;" glyph-name="uni042E" horiz-adv-x="975" d="M836 331Q836 405 824 463T785 563T719 625T626 647Q527 647 472 570T416 344Q416 271 430 212T471 112T537 50T627 28Q674 28 712 47T778 104T821 199T836 331ZM205 40L278 27V0H38V27L115
40V635L38 648V675H278V648L205 635V369H323Q328 439 353 497T422 597T520 661T641 684Q709 684 763 662T856 596T913 490T933 348Q933 265 909 199T840 86T737 15T612 -9Q545 -9 490 13T397 79T340 186T320 331H205V40Z" />
<glyph unicode="&#x42f;" glyph-name="uni042F" horiz-adv-x="600" d="M395 640Q349 645 311 645Q241 645 202 613T163 504Q163 431 205 392T326 353H395V640ZM324 0V27L395 40V316H325Q291 316 268 295T227 240T194 161T160 70Q151 45 140 30T116 5T86 -7T51
-11Q29 -11 16 -7T-8 4V29Q-3 28 7 28Q26 28 40 45T67 89T92 150T120 220Q133 252 149 272T183 304T220 321T260 328Q222 330 188 341T127 373T85 424T69 492Q69 537 87 571T137 630T216 666T316 679Q336 679 358 679T403 677T445 676T478 675H562V648L485 635V40L562
27V0H324Z" />
<glyph unicode="&#x430;" glyph-name="uni0430" horiz-adv-x="504" d="M475 3L323 -3Q323 25 324 50T328 96L326 97Q319 76 305 57T271 22T230 -1T183 -9Q113 -9 78 24T42 121Q42 158 59 187T110 237T197 268T319 279V353Q319 388 314 409T298 444T266 465T215
472Q193 472 172 467T139 455L106 351H76V475Q113 491 152 498T229 506Q276 506 309 498T363 473T396 426T407 356V40L475 30V3ZM319 247Q267 248 231 241T174 220T142 183T132 126Q132 77 150 54T207 30Q229 30 249 42T285 76T310 126T319 178V247Z" />
<glyph unicode="&#x431;" glyph-name="uni0431" horiz-adv-x="582" d="M537 262Q537 202 519 152T467 67T388 11T285 -9Q233 -9 190 8T116 62T68 155T51 288Q51 384 67 457T115 582T194 663T303 701Q337 707 365 707T415 708T456 718T488 747L510 740Q508 718
502 699T479 661Q469 650 455 643T420 633T374 629T314 628Q247 628 208 611T147 558T119 472T112 351Q124 385 143 412T188 457T245 485T315 494Q364 494 405 479T476 434T521 361T537 262ZM443 245Q443 292 433 331T405 398T361 442T302 458Q230 458 188 413T146
267Q146 205 157 160T189 85T236 42T294 28Q330 28 357 39T404 77T433 145T443 245Z" />
<glyph unicode="&#x432;" glyph-name="uni0432" horiz-adv-x="549" d="M114 458L43 470V498H88Q115 498 138 499T183 500T229 502T279 503Q335 503 374 495T437 471T473 433T484 383Q484 335 452 306T352 262V261Q390 259 419 251T467 228T497 193T507 147Q507
116 493 89T449 40T374 7T266 -5Q227 -5 188 -3T114 0H43V27L114 40V458ZM415 135Q415 165 405 185T375 217T331 233T275 238H202V40Q223 33 242 31T288 28Q357 28 386 54T415 135ZM394 375Q394 401 388 418T366 447T324 464T259 469Q247 469 236 468T202 464V269H265Q328
269 361 296T394 375Z" />
<glyph unicode="&#x433;" glyph-name="uni0433" horiz-adv-x="441" d="M423 498V349H393L355 466L202 467V40L277 27V0H41V27L114 40V458L41 470V498H423Z" />
<glyph unicode="&#x434;" glyph-name="uni0434" horiz-adv-x="578" d="M507 -164L489 0H74L56 -164H21L-1 35H77Q95 65 109 98T132 178T147 293T152 458L78 470V498H545V470L472 458V35H563L541 -164H507ZM200 464Q200 370 195 302T181 185T159 100T130 35H383V464H200Z" />
<glyph unicode="&#x435;" glyph-name="uni0435" horiz-adv-x="496" d="M451 296Q451 287 451 280T451 264H138V245Q138 134 179 84T289 33Q330 33 368 41T444 67V34Q405 14 362 3T271 -9Q220 -9 178 6T107 52T61 131T45 246Q45 303 60 350T103 433T173 487T265
506Q319 506 354 491T411 447T442 381T451 296ZM361 296Q361 337 357 369T341 425T309 460T259 473Q202 473 173 426T139 296H361Z" />
<glyph unicode="&#x436;" glyph-name="uni0436" horiz-adv-x="763" d="M752 1Q737 -6 722 -8T690 -10Q652 -10 629 8T591 55T566 116T543 177T514 223T467 242H423V40L489 27V0H274V27L340 40V242H295Q266 242 249 224T220 177T197 117T171 56T133 9T73 -10Q56
-10 39 -8T10 1V29Q17 28 26 28Q50 28 66 45T95 88T120 145T148 203T188 249T248 273L80 458L21 470V498H208V470L147 458L289 276H340V458L279 470V498H483V470L423 458V276H474L618 458L555 470V498H741V470L683 458L514 273Q552 270 576 250T618 203T647 146T671
89T699 45T737 28Q745 28 752 29V1Z" />
<glyph unicode="&#x437;" glyph-name="uni0437" horiz-adv-x="450" d="M56 477Q66 481 87 488T142 500T212 506Q299 506 342 477T386 396Q386 354 350 321T245 270V269Q326 263 367 232T408 145Q408 111 392 83T345 34T274 3T186 -8Q168 -8 147 -6T107 -1T70 6T37
16V77Q79 54 116 41T199 28Q226 28 247 34T283 54T304 87T312 135Q312 159 307 177T286 209T242 230T169 238Q152 238 136 237T112 235V268Q155 270 188 277T244 298T280 334T292 387Q292 433 270 452T189 472Q162 472 143 467T117 457L85 357H56V477Z" />
<glyph unicode="&#x438;" glyph-name="uni0438" horiz-adv-x="661" d="M41 0V27L114 40V458L41 470V498H272V470L202 458V162Q202 151 202 141T202 121T201 104T199 85L241 149L479 498H621V470L547 458V40L621 27V0H389V27L460 40V336Q460 348 460 358T460 377T460
395T462 414L420 349L181 0H41Z" />
<glyph unicode="&#x439;" glyph-name="uni0439" horiz-adv-x="661" d="M41 0V27L114 40V458L41 470V498H272V470L202 458V162Q202 151 202 141T202 121T201 104T199 85L241 149L479 498H621V470L547 458V40L621 27V0H389V27L460 40V336Q460 348 460 358T460 377T460
395T462 414L420 349L181 0H41ZM480 713Q473 661 438 631T342 600Q282 600 248 630T206 713H280Q285 669 299 648T344 627Q375 627 388 647T407 713H480Z" />
<glyph unicode="&#x43a;" glyph-name="uni043A" horiz-adv-x="543" d="M114 458L41 470V498H263V470L202 458V276H254L398 458L335 470V498H521V470L463 458L294 273Q332 270 356 250T398 203T427 146T451 89T479 45T517 28Q524 28 532 29V1Q517 -6 502 -8T470
-10Q432 -10 409 8T372 55T346 116T323 177T294 223T247 242H202V40L264 27V0H41V27L114 40V458Z" />
<glyph unicode="&#x43b;" glyph-name="uni043B" horiz-adv-x="564" d="M81 82Q90 91 99 111T115 174T127 285T133 458L60 470V498H523V470L450 458V40L523 27V0H289V27L362 40V464H181Q180 346 175 267T160 138T137 60T109 18Q93 2 76 -4T39 -10Q30 -10 19 -8T0
-2V76Q7 73 18 71T39 69Q53 69 63 71T81 82Z" />
<glyph unicode="&#x43c;" glyph-name="uni043C" horiz-adv-x="796" d="M547 0V27L618 40L578 299Q571 343 566 383T558 441H557Q552 425 542 393T523 332L409 -2H361L227 340Q214 374 205 401T193 441H191Q191 425 187 387T177 294L151 40L230 27V0H19V27L88 40L157
458L81 470V498H257L378 175Q386 151 393 130T404 98H405Q408 108 414 129T429 175L540 498H715V470L639 458L708 40L777 27V0H547Z" />
<glyph unicode="&#x43d;" glyph-name="uni043D" horiz-adv-x="647" d="M374 498H606V470L533 458V40L606 27V0H374V27L444 40V239H202V40L272 27V0H41V27L114 40V458L41 470V498H272V470L202 458V274H444V458L374 470V498Z" />
<glyph unicode="&#x43e;" glyph-name="uni043E" horiz-adv-x="579" d="M534 255Q534 188 515 138T460 55T379 7T282 -9Q170 -9 108 55T45 242Q45 309 65 359T120 442T201 490T297 506Q409 506 471 442T534 255ZM442 247Q442 355 403 413T288 472Q218 472 178 418T137
251Q137 143 176 85T291 26Q362 26 402 79T442 247Z" />
<glyph unicode="&#x43f;" glyph-name="uni043F" horiz-adv-x="637" d="M596 0H368V27L435 40V463H202V40L269 27V0H41V27L114 40V458L41 470V498H596V470L523 458V40L596 27V0Z" />
<glyph unicode="&#x440;" glyph-name="uni0440" horiz-adv-x="584" d="M539 257Q539 190 521 140T471 56T396 7T304 -9Q271 -9 243 -1T188 21V-208L262 -220V-248H26V-220L100 -208V456L29 466V494L185 501V457Q185 440 184 422T180 391L182 390Q191 415 206 436T243
473T291 497T345 506Q441 506 490 442T539 257ZM448 252Q448 355 416 410T323 466Q294 466 270 453T227 417T198 362T188 294V65Q210 47 239 37T305 26Q339 26 365 41T410 86T438 157T448 252Z" />
<glyph unicode="&#x441;" glyph-name="uni0441" horiz-adv-x="459" d="M292 34Q325 34 357 42T425 66V33Q393 15 352 4T268 -8Q220 -8 180 6T110 50T62 130T45 246Q45 306 60 354T106 435T182 487T288 505Q321 505 354 501T416 489V346H387L356 457Q342 463 323
467T279 471Q237 471 210 456T167 413T145 346T139 251Q139 143 178 89T292 34Z" />
<glyph unicode="&#x442;" glyph-name="uni0442" horiz-adv-x="484" d="M430 349L392 466L286 467V40L365 26V0H119V26L198 40V467L92 466L54 349H24V498H460V349H430Z" />
<glyph unicode="&#x443;" glyph-name="uni0443" horiz-adv-x="548" d="M536 470L482 458L315 0Q287 -75 264 -123T198 -248H125L117 -226Q141 -201 164 -172T206 -112T243 -54T272 0H242L64 458L10 470V498H233V470L155 458L258 191Q270 161 281 130T302 73H303Q308
91 321 134T341 195L421 458L349 470V498H536V470Z" />
<glyph unicode="&#x444;" glyph-name="uni0444" horiz-adv-x="788" d="M251 506Q278 506 303 499T352 476V691L276 700V728L438 737V517Q438 480 437 451T432 400L434 399Q449 449 485 477T572 506Q613 506 645 491T699 445T733 367T745 257Q745 194 731 145T689
61T623 9T539 -9Q512 -9 487 -2T438 21V-208L513 -222V-248H277V-222L352 -208V-19Q352 17 353 46T358 98H356Q341 48 305 20T218 -9Q176 -9 144 6T90 53T57 131T45 240Q45 301 59 351T100 435T166 488T251 506ZM135 244Q135 191 142 151T163 84T196 44T239 31Q290
31 321 78T352 203V432Q332 451 308 461T255 472Q227 472 204 457T166 411T143 339T135 244ZM655 253Q655 306 648 346T627 414T594 454T551 467Q500 467 469 420T438 295V65Q458 46 482 36T535 26Q562 26 584 40T622 83T646 155T655 253Z" />
<glyph unicode="&#x445;" glyph-name="uni0445" horiz-adv-x="595" d="M319 0V27L397 40L277 212L148 40L225 27V0H23V27L79 40L255 235L94 458L30 470V498H280V470L204 458L315 290L441 458L364 470V498H563V470L506 458L337 266L507 40L572 27V0H319Z" />
<glyph unicode="&#x446;" glyph-name="uni0446" horiz-adv-x="632" d="M588 -164H553L536 0H41V27L114 40V458L41 470V498H272V470L202 458V35H430V458L361 470V498H592V470L518 458V35H610L588 -164Z" />
<glyph unicode="&#x447;" glyph-name="uni0447" horiz-adv-x="584" d="M544 470L470 458V40L544 27V0H301V27L382 40V218Q353 204 316 194T240 183Q202 183 172 190T120 216T86 266T74 346V458L12 470V498H229V470L162 458V367Q162 320 168 292T187 249T220 228T268
223Q297 223 324 230T382 251V458L313 470V498H544V470Z" />
<glyph unicode="&#x448;" glyph-name="uni0448" horiz-adv-x="882" d="M839 470L768 458V40L839 27V0H41V27L114 40V458L41 470V498H268V470L202 458V35H397V458L329 470V498H551V470L485 458V35H680V458L611 470V498H839V470Z" />
<glyph unicode="&#x449;" glyph-name="uni0449" horiz-adv-x="882" d="M838 -164H803L786 0H41V27L114 40V458L41 470V498H268V470L202 458V35H397V458L331 470V498H551V470L485 458V35H680V458L614 470V498H839V470L768 458V35H860L838 -164Z" />
<glyph unicode="&#x44a;" glyph-name="uni044A" horiz-adv-x="624" d="M189 467L92 466L55 355H24V498H348V470L277 458V296Q293 298 322 301T387 304Q422 304 458 298T523 276T571 233T590 163Q590 124 573 93T525 40T449 7T349 -5Q330 -5 309 -4T267 -3T226
-1T189 0H116V27L189 40V467ZM498 150Q498 209 469 240T367 272Q341 272 318 270T277 264V41Q298 34 320 31T368 27Q438 27 468 56T498 150Z" />
<glyph unicode="&#x44b;" glyph-name="uni044B" horiz-adv-x="804" d="M114 458L41 470V498H273V470L202 458V296Q210 297 221 298T245 301T273 303T302 304Q350 304 386 295T446 266T482 221T495 162Q495 123 479 92T432 39T359 6T264 -5Q245 -5 225 -4T185 -3T148
-1T116 0H41V27L114 40V458ZM529 0V27L602 40V458L529 470V498H764V470L690 458V40L764 27V0H529ZM404 150Q404 179 398 202T378 240T340 264T281 273Q263 273 241 271T202 264V41Q222 34 243 31T288 27Q352 27 378 55T404 150Z" />
<glyph unicode="&#x44c;" glyph-name="uni044C" horiz-adv-x="548" d="M114 458L41 470V498H273V470L202 458V296Q210 297 221 298T247 301T278 303T313 304Q364 304 402 295T465 267T502 222T515 163Q515 123 498 92T448 39T371 7T269 -5Q245 -5 225 -4T188 -2T153
-1T118 0H41V27L114 40V458ZM423 150Q423 209 394 241T292 273Q265 273 242 271T202 264V41Q222 34 243 31T293 27Q361 27 392 55T423 150Z" />
<glyph unicode="&#x44d;" glyph-name="uni044D" horiz-adv-x="473" d="M338 266Q333 370 297 421T183 472Q171 472 159 470T136 466T116 460T100 453L73 350H43V472Q77 488 117 497T197 506Q252 506 295 490T368 441T413 362T428 255Q428 130 361 61T180 -8Q139
-8 108 -2T37 19V79Q69 57 110 43T190 29Q260 29 298 78T338 235L112 228V273L338 266Z" />
<glyph unicode="&#x44e;" glyph-name="uni044E" horiz-adv-x="845" d="M799 260Q799 195 778 145T722 60T639 9T540 -9Q489 -9 448 7T378 55T334 132T317 236H202V40L272 27V0H41V27L114 40V458L41 470V498H272V470L202 458V272H319Q324 328 346 371T402 444T481
490T575 506Q679 506 739 443T799 260ZM705 242Q705 356 670 414T557 472Q525 472 498 461T452 423T421 356T410 255Q410 202 419 160T446 88T493 42T559 26Q591 26 618 39T664 78T694 146T705 242Z" />
<glyph unicode="&#x44f;" glyph-name="uni044F" horiz-adv-x="552" d="M350 221H311Q279 221 258 205T222 162T196 107T170 52T134 10T77 -7Q45 -7 19 3V30Q28 29 35 29Q53 29 65 43T88 78T109 124T137 172T176 210T235 230Q206 232 176 239T122 260T83 298T68
356Q68 386 80 412T120 460T189 492T286 504Q313 504 332 503T369 501T404 499T441 498H512V470L438 458V40L509 27V0H283V27L350 40V221ZM350 467Q318 474 282 474Q217 474 188 448T158 366Q158 308 186 280T273 252H350V467Z" />
<glyph unicode="&#x450;" glyph-name="uni0450" horiz-adv-x="496" d="M451 296Q451 287 451 280T451 264H138V245Q138 134 179 84T289 33Q330 33 368 41T444 67V34Q405 14 362 3T271 -9Q220 -9 178 6T107 52T61 131T45 246Q45 303 60 350T103 433T173 487T265
506Q319 506 354 491T411 447T442 381T451 296ZM361 296Q361 337 357 369T341 425T309 460T259 473Q202 473 173 426T139 296H361ZM286 577L115 699L173 763L304 598L286 577Z" />
<glyph unicode="&#x451;" glyph-name="uni0451" horiz-adv-x="496" d="M451 296Q451 287 451 280T451 264H138V245Q138 134 179 84T289 33Q330 33 368 41T444 67V34Q405 14 362 3T271 -9Q220 -9 178 6T107 52T61 131T45 246Q45 303 60 350T103 433T173 487T265
506Q319 506 354 491T411 447T442 381T451 296ZM361 296Q361 337 357 369T341 425T309 460T259 473Q202 473 173 426T139 296H361ZM408 658Q408 636 394 621T356 606Q334 606 320 621T305 658Q305 680 319 695T356 710Q379 710 393 695T408 658ZM218 658Q218 636
204 621T166 606Q144 606 129 621T114 658Q114 680 129 695T166 710Q189 710 203 695T218 658Z" />
<glyph unicode="&#x452;" glyph-name="uni0452" horiz-adv-x="600" d="M519 169Q519 55 512 -17T488 -136T439 -210T356 -253L347 -227Q376 -215 391 -198T416 -143T428 -39T431 152V183Q431 269 427 321T412 405T381 450T326 464Q294 464 268 450T224 410T197
355T188 295V40L257 27V0H29V27L100 40V585H17V618H100V695L26 704V731L188 741V618H356V585H188V460Q188 418 182 391L184 390Q204 443 249 474T353 505Q395 505 425 490T477 440T508 342T519 185V169Z" />
<glyph unicode="&#x453;" glyph-name="uni0453" horiz-adv-x="441" d="M423 498V349H393L355 466L202 467V40L277 27V0H41V27L114 40V458L41 470V498H423ZM225 577L207 598L338 763L396 699L225 577Z" />
<glyph unicode="&#x454;" glyph-name="uni0454" horiz-adv-x="473" d="M442 35Q409 17 366 5T278 -8Q229 -8 187 6T113 49T63 125T45 236Q45 299 61 349T108 434T187 487T295 505Q331 505 367 501T430 488V348H400L369 457Q355 463 335 467T284 471Q245 471 217
457T172 416T146 352T136 265L367 272V229L136 236Q140 131 182 83T304 34Q336 34 373 43T442 68V35Z" />
<glyph unicode="&#x455;" glyph-name="uni0455" horiz-adv-x="439" d="M385 138Q385 107 371 80T331 33T270 2T193 -9Q158 -9 125 -6T64 4V147H94L126 37Q143 31 161 29T203 26Q253 26 279 48T305 111Q305 141 289 161T250 193T187 223T121 259T78 303T61 371Q61
400 73 424T109 467T165 496T238 506Q266 506 294 503T349 494V361H319L286 464Q261 473 226 473Q182 473 161 455T139 399Q139 369 155 349T195 315T260 283T326 248T368 204T385 138Z" />
<glyph unicode="&#x456;" glyph-name="uni0456" horiz-adv-x="302" d="M219 657Q219 644 215 634T202 615T183 602T159 597Q146 597 135 601T116 614T103 633T99 657Q99 669 103 680T115 699T135 712T159 717Q172 717 182 712T201 699T214 680T219 657ZM40 0V27L114
40V455L40 465V492L202 502V40L273 27V0H40Z" />
<glyph unicode="&#x457;" glyph-name="uni0457" horiz-adv-x="302" d="M40 0V27L114 40V455L40 465V492L202 502V40L273 27V0H40ZM549 658Q549 636 535 622T498 607Q476 607 462 621T447 658Q447 680 461 694T498 709Q520 709 534 695T549 658ZM378 658Q378 636
364 622T327 607Q304 607 290 621T275 658Q275 680 289 694T327 709Q349 709 363 695T378 658Z" />
<glyph unicode="&#x458;" glyph-name="uni0458" horiz-adv-x="275" d="M11 -220Q41 -220 57 -215T83 -194T96 -149T100 -70V455L29 465V492L188 502V-60Q188 -119 179 -157T148 -216T93 -245T11 -248V-220ZM205 657Q205 644 201 634T188 615T169 602T145 597Q131
597 121 601T102 614T89 633T85 657Q85 669 89 680T101 699T120 712T145 717Q158 717 168 712T187 699T200 680T205 657Z" />
<glyph unicode="&#x459;" glyph-name="uni0459" horiz-adv-x="780" d="M365 464H181Q180 346 175 267T160 138T137 60T109 18Q93 2 76 -4T39 -10Q29 -10 20 -8T0 -2V76Q9 72 19 71T39 69Q53 69 63 71T81 82Q90 91 99 111T115 174T127 285T133 458L60 470V498H527V470L454
458V296Q470 298 497 301T553 304Q601 304 637 295T698 266T734 221T746 162Q746 123 730 92T683 39T610 6T515 -5Q496 -5 477 -4T439 -3T401 -1T364 0H292V27L365 40V464ZM655 150Q655 179 649 202T629 240T591 264T533 273Q514 273 492 271T454 264V41Q474 34
495 31T539 27Q603 27 629 55T655 150Z" />
<glyph unicode="&#x45a;" glyph-name="uni045A" horiz-adv-x="856" d="M442 239H202V40L272 27V0H41V27L114 40V458L41 470V498H272V470L202 458V274H442V458L372 470V498H596V470L530 458V296Q538 297 549 298T573 301T601 303T630 304Q678 304 714 295T774 266T810
221T823 162Q823 123 807 92T760 39T687 6T592 -5Q573 -5 553 -4T514 -3T476 -1T442 0H372V27L442 40V239ZM732 150Q732 179 726 202T706 240T668 264T609 273Q591 273 569 271T530 264V41Q551 34 572 31T616 27Q680 27 706 55T732 150Z" />
<glyph unicode="&#x45b;" glyph-name="uni045B" horiz-adv-x="611" d="M17 617H100V695L26 704V731L188 741V617H339V584H188Q188 559 188 531T187 477T185 429T182 391L184 390Q201 439 244 472T353 505Q401 505 433 488T484 441T509 376T516 305V40L584 27V0H359V27L428
40V301Q428 342 423 372T406 423T374 454T323 464Q294 464 270 451T227 414T198 360T188 292V40L257 27V0H29V27L100 40V584H17V617Z" />
<glyph unicode="&#x45c;" glyph-name="uni045C" horiz-adv-x="543" d="M114 458L41 470V498H263V470L202 458V276H254L398 458L335 470V498H521V470L463 458L294 273Q332 270 356 250T398 203T427 146T451 89T479 45T517 28Q524 28 532 29V1Q517 -6 502 -8T470
-10Q432 -10 409 8T372 55T346 116T323 177T294 223T247 242H202V40L264 27V0H41V27L114 40V458ZM261 577L243 598L374 763L432 699L261 577Z" />
<glyph unicode="&#x45d;" glyph-name="uni045D" horiz-adv-x="661" d="M41 0V27L114 40V458L41 470V498H272V470L202 458V162Q202 151 202 141T202 121T201 104T199 85L241 149L479 498H621V470L547 458V40L621 27V0H389V27L460 40V336Q460 348 460 358T460 377T460
395T462 414L420 349L181 0H41ZM374 577L203 699L261 763L392 598L374 577Z" />
<glyph unicode="&#x45e;" glyph-name="uni045E" horiz-adv-x="548" d="M536 470L482 458L315 0Q287 -75 264 -123T198 -248H125L117 -226Q141 -201 164 -172T206 -112T243 -54T272 0H242L64 458L10 470V498H233V470L155 458L258 191Q270 161 281 130T302 73H303Q308
91 321 134T341 195L421 458L349 470V498H536V470ZM423 713Q416 661 381 631T285 600Q225 600 191 630T149 713H223Q228 669 242 648T287 627Q318 627 331 647T350 713H423Z" />
<glyph unicode="&#x45f;" glyph-name="uni045F" horiz-adv-x="632" d="M41 0V27L114 40V458L41 470V498H272V470L202 458V35H430V458L361 470V498H592V470L518 458V40L592 27V0H351L333 -164H298L280 0H41Z" />
<glyph unicode="&#x462;" glyph-name="uni0462" horiz-adv-x="666" d="M447 406L410 525L283 528V360Q312 360 341 360T398 360Q457 360 501 349T575 316T619 263T633 192Q633 147 616 112T566 50T483 11T368 -3Q337 -3 282 -2T196 0H117V27L194 40V528L75 525L38
401H6V558H194V636L117 648V675H360V648L283 636V558H479V406H447ZM539 183Q539 252 503 288T384 325Q359 325 334 325T283 325V40Q300 37 328 35T376 32Q421 32 452 40T502 66T530 112T539 183Z" />
<glyph unicode="&#x463;" glyph-name="uni0463" horiz-adv-x="538" d="M192 464V296Q208 298 235 301T293 304Q348 304 388 294T454 266T492 221T505 162Q505 123 488 92T439 39T362 7T259 -5Q234 -5 213 -4T172 -3T131 -1T86 0H30V27L104 40V464H17V498H104L162
638H192V498H355V464H192ZM414 150Q414 209 383 241T272 273Q254 273 232 271T192 264V41Q212 34 233 31T283 27Q352 27 383 55T414 150Z" />
<glyph unicode="&#x472;" glyph-name="uni0472" horiz-adv-x="733" d="M692 347Q692 262 668 195T597 82T489 14T355 -9Q280 -9 222 13T123 79T62 185T41 328Q41 413 66 480T136 592T244 661T378 684Q453 684 512 662T611 596T672 490T692 347ZM363 647Q259 647
199 572T136 357H597Q594 426 579 480T534 571T462 627T363 647ZM370 28Q422 28 463 47T534 103T580 194T597 319H137Q139 253 153 200T197 108T269 49T370 28Z" />
<glyph unicode="&#x473;" glyph-name="uni0473" horiz-adv-x="579" d="M534 255Q534 192 516 143T464 59T383 8T282 -9Q169 -9 107 56T45 242Q45 307 64 357T117 441T198 490T297 506Q410 506 472 442T534 255ZM288 472Q215 472 176 420T134 266H445Q443 314 433
352T402 417T354 458T288 472ZM291 26Q365 26 404 79T445 235H134Q136 186 146 147T176 81T225 40T291 26Z" />
<glyph unicode="&#x474;" glyph-name="uni0474" horiz-adv-x="662" d="M650 643Q628 644 615 637T587 606T553 533T499 389L360 -7H300L64 635L12 648V675H244V648L158 635L355 90H356L468 530Q482 580 495 610T523 657T554 680T592 686Q611 686 627 681T650 671V643Z" />
<glyph unicode="&#x475;" glyph-name="uni0475" horiz-adv-x="546" d="M536 463Q523 464 513 463T494 452T473 426T448 376T414 294T367 173L299 -7H231L64 458L10 470V498H234V470L155 458L261 156Q276 114 289 73H291L375 371Q386 411 396 437T417 479T443 501T477
508Q506 508 536 492V463Z" />
<glyph unicode="&#x490;" glyph-name="uni0490" horiz-adv-x="508" d="M406 675L444 827H479V639L205 642V40L282 27V0H38V27L115 40V635L38 648V675H406Z" />
<glyph unicode="&#x491;" glyph-name="uni0491" horiz-adv-x="429" d="M203 40L277 27V0H39V27L114 40V458L39 470V498H340L377 649H411V464L203 467V40Z" />
<glyph unicode="&#x492;" glyph-name="uni0492" horiz-adv-x="534" d="M505 675V503H474L436 640L231 643V366H409V330H231V40L308 27V0H64V27L141 40V330H30V366H141V635L64 648V675H505Z" />
<glyph unicode="&#x493;" glyph-name="uni0493" horiz-adv-x="450" d="M431 498V351H401L364 466L211 467V275H328V242H211V40L285 27V0H49V27L123 40V242H30V275H123V458L49 470V498H431Z" />
<glyph unicode="&#x496;" glyph-name="uni0496" horiz-adv-x="931" d="M908 -164H872L854 -1Q810 -5 784 18T741 78T713 159T685 241T645 304T578 330H506V40L582 27V0H340V27L416 40V330H342Q302 330 277 305T237 242T209 160T180 77T137 14T65 -11Q32 -11 6
4V30Q14 29 21 29Q48 29 65 52T96 109T123 185T159 263T212 327T295 363L99 635L40 648V675H243V648L173 635L340 367H416V635L344 648V675H578V648L506 635V367H583L752 635L679 648V675H882V648L823 635L627 363Q678 356 710 329T764 266T799 189T826 114T855
58T900 35H930L908 -164Z" />
<glyph unicode="&#x497;" glyph-name="uni0497" horiz-adv-x="773" d="M691 -3Q654 -8 632 8T594 52T568 112T544 174T514 222T467 242H423V40L489 27V0H274V27L340 40V242H295Q266 242 249 224T220 177T197 117T171 56T133 9T73 -10Q37 -10 10 1V29Q18 28 26
28Q50 28 66 45T95 88T120 145T148 203T188 249T248 273L80 458L21 470V498H208V470L146 458L289 276H340V458L279 470V498H483V470L423 458V276H474L618 458L555 470V498H741V470L683 458L514 273Q550 270 574 252T615 207T645 150T670 95T694 52T724 35H767L745
-164H710L692 -3H691Z" />
<glyph unicode="&#x498;" glyph-name="uni0498" horiz-adv-x="524" d="M203 -7Q152 -6 114 0T41 18V86Q84 61 125 46T214 31Q255 31 287 41T342 70T376 118T388 182Q388 216 380 243T353 290T297 321T208 332Q192 332 175 331T138 327V363Q193 366 234 378T303
411T345 459T360 525Q360 589 330 619T227 650Q191 650 168 645T135 635L96 512H65V653Q105 666 149 675T243 684Q293 684 332 674T399 645T439 600T453 541Q453 510 441 483T408 434T355 396T286 368V367Q330 364 365 353T427 322T468 273T483 207Q483 164 466
127T417 61T340 15T241 -6L258 -164H186L203 -7Z" />
<glyph unicode="&#x499;" glyph-name="uni0499" horiz-adv-x="450" d="M185 -8Q148 -8 106 -1T37 16V77Q79 54 116 41T199 28Q226 28 247 34T283 54T304 87T312 135Q312 159 307 177T286 209T242 230T169 238Q152 238 136 237T112 235V268Q155 270 188 277T244
298T280 334T292 387Q292 433 269 452T189 472Q162 472 143 467T117 457L85 357H56V477Q66 481 87 488T142 500T212 506Q299 506 342 477T386 396Q386 354 350 321T245 270V269Q326 263 367 232T408 145Q408 82 356 42T222 -6L239 -164H168L185 -8Z" />
<glyph unicode="&#x49a;" glyph-name="uni049A" horiz-adv-x="630" d="M553 -1Q509 -5 483 18T440 78T412 159T384 241T344 304T277 330H205V40L281 27V0H38V27L115 40V635L38 648V675H277V648L205 635V367H281L451 635L378 648V675H581V648L522 635L326 363Q377
356 409 329T463 266T497 189T524 114T554 58T598 35H629L607 -164H571L553 -1Z" />
<glyph unicode="&#x49b;" glyph-name="uni049B" horiz-adv-x="549" d="M294 273Q329 270 354 252T396 207T425 150T450 95T474 52T504 35H547L525 -164H490L472 -3Q435 -8 412 8T374 52T348 112T324 174T294 222T247 242H202V40L264 27V0H41V27L114 40V458L41
470V498H263V470L202 458V276H254L398 458L335 470V498H521V470L463 458L294 273V273Z" />
<glyph unicode="&#x49c;" glyph-name="uni049C" horiz-adv-x="687" d="M115 635L38 648V675H274V648L205 635V367H277V511H317V367H349L519 635L446 648V675H649V648L589 635L393 363Q444 356 477 329T531 264T565 186T592 110T622 52T665 29Q673 29 681 30V4Q659
-11 621 -11Q577 -11 550 14T507 77T478 159T450 241T410 304T345 330H317V190H277V330H205V40L276 27V0H38V27L115 40V635Z" />
<glyph unicode="&#x49d;" glyph-name="uni049D" horiz-adv-x="620" d="M202 242V40L266 27V0H41V27L114 40V458L41 470V498H264V470L202 458V276H263V418H299V276H330L474 458L409 470V498H597V470L539 458L370 273Q408 270 432 250T474 203T503 146T527 89T555
45T593 28Q602 28 608 29V1Q585 -10 546 -10Q508 -10 485 8T448 55T422 116T399 177T370 223T323 242H299V106H263V242H202Z" />
<glyph unicode="&#x4a0;" glyph-name="uni04A0" horiz-adv-x="669" d="M663 4Q640 -11 604 -11Q561 -11 534 13T490 76T461 159T432 243T391 306T327 330H255V40L331 27V0H88V27L165 40V643L87 641L49 503H18V675H327V648L255 635V367H333L501 635L428 648V675H631V648L572
635L376 363Q427 356 459 329T513 264T548 186T575 108T605 51T648 29Q656 29 663 30V4Z" />
<glyph unicode="&#x4a1;" glyph-name="uni04A1" horiz-adv-x="587" d="M54 349H24V498H308V470L247 458V276H300L443 458L380 470V498H566V470L508 458L339 273Q376 270 401 250T443 203T472 146T496 89T524 45T562 28Q570 28 577 29V1Q554 -10 515 -10Q478 -10
455 8T416 55T391 116T368 177T339 223T292 242H247V40L309 27V0H85V27L159 40V466L92 465L54 349Z" />
<glyph unicode="&#x4a2;" glyph-name="uni04A2" horiz-adv-x="775" d="M752 35L730 -164H695L677 0H493V27L566 40V332H205V40L278 27V0H38V27L115 40V635L38 648V675H278V648L205 635V369H566V635L493 648V675H733V648L656 635V35H752Z" />
<glyph unicode="&#x4a3;" glyph-name="uni04A3" horiz-adv-x="647" d="M374 498H598V470L533 458V35H625L603 -164H568L550 0H374V27L444 40V239H202V40L272 27V0H41V27L114 40V458L41 470V498H272V470L202 458V274H444V458L374 470V498Z" />
<glyph unicode="&#x4aa;" glyph-name="uni04AA" horiz-adv-x="604" d="M317 -7Q252 -2 201 22T115 88T61 191T42 329Q42 419 68 486T140 598T247 663T376 684Q422 684 461 679T538 662V505H507L468 629Q448 637 421 641T364 645Q307 645 266 626T197 569T156 474T142
339Q142 193 200 114T373 34Q420 34 467 46T555 83V46Q534 33 511 24T463 7T411 -4T355 -8L372 -164H300L317 -7Z" />
<glyph unicode="&#x4ab;" glyph-name="uni04AB" horiz-adv-x="459" d="M284 -7L300 -164H229L245 -8Q201 -3 165 12T102 58T60 135T45 246Q45 306 60 354T106 435T182 487T288 505Q321 505 355 501T416 489V346H387L356 457Q342 463 323 467T279 471Q237 471 210
456T167 413T145 346T139 251Q139 143 178 89T292 34Q325 34 357 42T425 66V33Q411 25 395 18T361 6T323 -2T284 -7Z" />
<glyph unicode="&#x4ae;" glyph-name="uni04AE" horiz-adv-x="585" d="M425 0H165V27L250 40V285L50 635L9 648V675H231V648L148 635L320 323H321L471 635L391 648V675H575V648L531 635L340 285V40L425 27V0Z" />
<glyph unicode="&#x4af;" glyph-name="uni04AF" horiz-adv-x="546" d="M150 -248V-222L229 -208V28L64 458L10 470V498H233V470L155 458L266 158Q274 137 283 112T297 73H298Q302 85 310 109T325 156L421 458L349 470V498H536V470L482 458L317 28V-208L396 -222V-248H150Z"
/>
<glyph unicode="&#x4b0;" glyph-name="uni04B0" horiz-adv-x="586" d="M340 40L425 27V0H165V27L250 40V168H93V202H250V288L50 635L9 648V675H231V648L148 635L320 323H321L471 635L391 648V675H575V648L531 635L340 288V202H497V168H340V40Z" />
<glyph unicode="&#x4b1;" glyph-name="uni04B1" horiz-adv-x="546" d="M64 458L10 470V498H233V470L155 458L265 155Q273 134 282 109T296 70H297Q301 82 309 106T324 153L421 458L349 470V498H536V470L482 458L322 41H446V6H317V-208L396 -222V-248H150V-222L229
-208V6H98V41H223L64 458Z" />
<glyph unicode="&#x4b2;" glyph-name="uni04B2" horiz-adv-x="667" d="M601 0H400V27L484 40L308 307L130 40L220 27V0H14V27L63 40L285 338L83 635L30 648V675H279V648L192 635L354 390L516 635L428 648V675H631V648L583 635L378 360L598 35H676L654 -164H618L601 0Z" />
<glyph unicode="&#x4b3;" glyph-name="uni04B3" horiz-adv-x="599" d="M319 0V27L397 40L277 212L148 40L225 27V0H23V27L79 40L255 235L94 458L30 470V498H280V470L204 458L315 290L441 458L364 470V498H563V470L506 458L337 266L511 35H591L569 -164H534L516 0H319Z" />
<glyph unicode="&#x4b6;" glyph-name="uni04B6" horiz-adv-x="662" d="M617 -164H581L563 0H377V27L453 40V292Q414 280 367 272T274 264Q215 264 175 275T110 311T74 373T62 468V635L0 648V675H224V648L151 635V480Q151 431 157 399T180 346T224 316T298 306Q339
306 377 312T453 329V635L380 648V675H619V648L543 635V35H639L617 -164Z" />
<glyph unicode="&#x4b7;" glyph-name="uni04B7" horiz-adv-x="584" d="M487 0H301V27L382 40V218Q353 204 316 194T240 183Q202 183 172 190T119 216T86 266T74 346V458L12 470V498H229V470L162 458V367Q162 320 168 292T187 249T220 228T268 223Q297 223 323
230T382 251V458L313 470V498H540V470L470 458V35H562L540 -164H505L487 0Z" />
<glyph unicode="&#x4b8;" glyph-name="uni04B8" horiz-adv-x="664" d="M334 137H295L296 264Q294 264 286 264T274 264Q215 264 175 275T109 310T73 373T62 467V635L0 648V675H225V648L151 636V480Q151 433 157 400T179 347T223 317T296 306L295 465H334V307Q363
309 393 314T460 329V636L386 648V675H626V648L550 635V40L626 27V0H384V27L460 40V292Q424 282 396 277T334 267V137Z" />
<glyph unicode="&#x4b9;" glyph-name="uni04B9" horiz-adv-x="607" d="M267 184Q220 183 185 190T124 215T87 265T74 346V458L12 470V498H230V470L162 458V364Q162 320 168 292T187 249T220 229T267 223V367H302V223Q327 224 353 231T407 251V458L337 470V498H566V470L495
458V40L566 27V0H327V27L407 39V218Q386 208 359 199T302 187V71H267V184Z" />
<glyph unicode="&#x4ba;" glyph-name="uni04BA" horiz-adv-x="689" d="M680 0H444V27L517 40V204Q517 250 510 284T484 344T433 383T348 396Q317 396 279 390T205 373V40L278 27V0H38V27L115 40V635L38 648V675H281V648L205 635V406Q224 413 245 418T290 428T338
435T385 437Q447 437 490 423T558 381T595 314T607 224V40L680 27V0Z" />
<glyph unicode="&#x4bb;" glyph-name="uni04BB" horiz-adv-x="611" d="M359 0V27L428 40V303Q428 345 423 375T406 425T374 456T323 466Q295 466 270 453T227 417T198 362T188 294V40L257 27V0H29V27L100 40V692L26 701V728L188 738V490Q188 460 186 435T182 393L184
392Q193 417 208 438T244 474T293 498T353 506Q436 506 476 454T516 305V40L584 27V0H359Z" />
<glyph unicode="&#x4c1;" glyph-name="uni04C1" horiz-adv-x="922" d="M416 330H342Q303 330 278 306T237 243T209 160T180 77T135 14T65 -11Q29 -11 6 4V30Q15 29 21 29Q48 29 65 52T96 109T123 185T159 264T212 328T295 363L99 635L40 648V675H243V648L173 635L340
367H416V635L344 648V675H578V648L506 635V367H583L752 635L679 648V675H882V648L823 635L627 363Q678 356 711 329T765 264T800 186T827 110T857 52T900 29Q910 29 916 30V4Q893 -11 856 -11Q812 -11 785 14T741 77T712 159T684 241T644 304T578 330H506V40L582
27V0H340V27L416 40V330ZM607 853Q600 800 564 770T468 740Q409 740 372 770T329 853H403Q409 808 423 788T470 767Q502 767 515 787T534 853H607Z" />
<glyph unicode="&#x4c2;" glyph-name="uni04C2" horiz-adv-x="763" d="M752 1Q737 -6 722 -8T690 -10Q652 -10 629 8T591 55T566 116T543 177T514 223T467 242H423V40L489 27V0H274V27L340 40V242H295Q266 242 249 224T220 177T197 117T171 56T133 9T73 -10Q56
-10 39 -8T10 1V29Q17 28 26 28Q50 28 66 45T95 88T120 145T148 203T188 249T248 273L80 458L21 470V498H208V470L147 458L289 276H340V458L279 470V498H483V470L423 458V276H474L618 458L555 470V498H741V470L683 458L514 273Q552 270 576 250T618 203T647 146T671
89T699 45T737 28Q745 28 752 29V1ZM520 713Q513 661 478 631T382 600Q322 600 288 630T246 713H320Q325 669 339 648T384 627Q415 627 428 647T447 713H520Z" />
<glyph unicode="&#x4d8;" glyph-name="uni04D8" horiz-adv-x="634" d="M593 348Q593 257 571 189T511 77T422 12T314 -9Q252 -9 204 12T123 74T73 169T56 293Q56 309 57 326T59 359H495Q491 430 477 483T437 573T370 627T274 646Q243 646 215 641T160 626L123
505H92V650Q136 666 187 675T287 684Q362 684 419 662T515 598T573 493T593 348ZM151 323V298Q151 234 160 185T189 101T243 48T323 29Q413 29 454 100T495 323H151Z" />
<glyph unicode="&#x4d9;" glyph-name="uni04D9" horiz-adv-x="496" d="M231 -8Q180 -8 144 9T86 56T55 126T45 215Q45 233 46 253H358Q358 359 318 411T207 464Q166 464 128 456T52 430V463Q93 483 136 494T224 506Q277 506 319 491T390 445T435 366T451 252Q451
195 436 148T392 65T322 11T231 -8ZM135 221Q133 173 137 137T154 76T186 39T237 26Q266 26 288 38T325 75T349 136T358 221H135Z" />
<glyph unicode="&#x4e2;" glyph-name="uni04E2" horiz-adv-x="771" d="M493 0V27L566 40V494Q566 523 566 545T568 584L193 0H38V27L115 40V635L38 648V675H278V648L205 635V181Q205 152 205 131T203 91L578 675H733V648L656 635V40L733 27V0H493ZM267 767V807H531V767H267Z"
/>
<glyph unicode="&#x4e3;" glyph-name="uni04E3" horiz-adv-x="661" d="M41 0V27L114 40V458L41 470V498H272V470L202 458V162Q202 151 202 141T202 121T201 104T199 85L241 149L479 498H621V470L547 458V40L621 27V0H389V27L460 40V336Q460 348 460 358T460 377T460
395T462 414L420 349L181 0H41ZM204 614V654H460V614H204Z" />
<glyph unicode="&#x4e8;" glyph-name="uni04E8" horiz-adv-x="733" d="M692 347Q692 262 668 195T597 82T489 14T355 -9Q280 -9 222 13T123 79T62 185T41 328Q41 413 66 480T136 592T244 661T378 684Q453 684 512 662T611 596T672 490T692 347ZM363 647Q259 647
199 572T136 357H597Q594 426 579 480T534 571T462 627T363 647ZM370 28Q422 28 463 47T534 103T580 194T597 319H137Q139 253 153 200T197 108T269 49T370 28Z" />
</font>
</defs>
</svg>
