<?xml version="1.0"?>
<svg viewBox="0 0 170 82" xmlns="http://www.w3.org/2000/svg">
<path d="M40.328 28.23h4.705V1.346h-4.705z"/>
<path d="M40.328 55.115h4.705V28.23h-4.705z" fill="#F00"/>
<path d="M40.328 82h4.705V55.115h-4.705z" fill="#FC0"/>
<path d="M28.084 10.742c1.377 2.176 2.454 2.14 4.08 2.14-1.345-1.032-2.235-2.352-2.66-3.027L26.99 5.833a5.957 5.957 0 0 0-1.85-3.268c.323-.122.593-.252.755-.374-1.642 0-3.268-.833-4.164-.833-.575 0-.946.344-.946.798.038.506.56 1.022 1.523 1.022.218 0 .497-.028.804-.08.521.728.942 1.385.942 2.323 0 1.761-2.105 3.134-4.23 3.134a4.66 4.66 0 0 1-.355-.014c-.194-.436-.833-1.17-.833-2.003 0-1.399.912-2.542.912-3.929 0-.86-.42-1.394-.582-1.616.262-.242.547-.54.613-.743-.15.065-.33.074-.593.074-1.019 0-1.85-.265-2.659-.265-.462 0-.587.143-.587.278 0 .05.008.101.021.125a2.827 2.827 0 0 0-.525-.147 4.235 4.235 0 0 0-.77-.068c-.984 0-1.334.413-1.334.765 0 .3.235.846.503 1.261.383-.192.844-.322 1.054-.322.521 0 .986.497 1.232 1.086-.35.041-.418.057-.773.057-.958 0-1.61-.342-1.744-.342-.014 0-.04.006-.04.027 0 .135.274.49.809.685.704.258 1.762.366 1.938.395 0 .031-.179.365-.38.428a.207.207 0 0 1-.124.005c-.737-.145-.942-.207-1.877-.563-.03-.01-.045.008-.045.038 0 .37.957 1.185 1.814 1.498-.716.915-1.611 1.85-2.032 3.276a4.68 4.68 0 0 1-.355.014c-2.125 0-4.232-1.373-4.232-3.134 0-.938.422-1.595.944-2.322.306.05.585.079.804.079.964 0 1.485-.516 1.523-1.022 0-.454-.37-.798-.948-.798-.895 0-2.52.833-4.163.833.163.122.431.252.754.374a5.965 5.965 0 0 0-1.85 3.268L3.432 9.855c-.424.675-1.316 1.995-2.662 3.027 1.627 0 2.705.036 4.081-2.14L6.14 8.68c.097.267.214.528.352.784l-2.563 4.101c-.428.68-1.31 1.99-2.662 3.027 1.627 0 2.705.038 4.081-2.137l2.206-3.533c.166.176.34.348.522.512L4.962 16.42c-.428.681-1.307 1.987-2.662 3.024 1.627 0 2.706.04 4.081-2.137l3.036-4.86c.2.127.404.25.615.365L6.327 18.74c-.427.683-1.306 1.985-2.66 3.025 1.627 0 2.705.039 4.081-2.136l3.815-6.107c.226.086.455.169.687.243l-4.31 6.9c-.422.672-1.32 1.998-2.66 3.025 1.625 0 2.705.036 4.08-2.138l4.595-7.353c.047.007.093.015.138.024.125.398.213.768.213 1.139 0 2.31-1.517 4.351-3.337 5.927.117.05.32.068.507.068.375 0 .618-.02.789-.05-.422.959-1.328 2.196-1.785 2.837a13.29 13.29 0 0 0-2.03-.192c-.594 0-.661.348-.661.658 0 .54.251.968.545 1.208.11-.276.332-.644 1.43-.644l.11.005c-.322.358-1.326 1.17-1.326 1.823 0 .433.476 1.082 1.101 1.082-.038-.14-.032-.269-.032-.364 0-.53.469-1.15.866-1.583-.013.13-.006.116-.006.267 0 1.251.113 1.827.908 1.827.39 0 .658-.214.751-.279-.516-.476-.543-.848-.543-1.55.001-.183.001-.361.004-.607.003-.162 0-.374-.027-.527.285-.04.4-.04.618-.04 0 0 1.13-.09 1.401.498.307-.28.752-.677.752-1.114 0-.29-.138-.616-.718-.616-.22 0-.913.135-1.492.135.156-.347.848-1.36 1.449-2.095.09.285.232.593.547.846.044-.473.321-1.97 1.06-2.845.087.592.202 1.198.202 2.476 0 3.111-.747 5.408-2.335 5.847.207.358.644.682 1.097.682.58 0 .897-.657 1.22-1.277.167.457.631 1.579 1.096 1.579.465 0 .93-1.122 1.097-1.579.323.62.64 1.277 1.22 1.277.454 0 .89-.324 1.098-.682-1.588-.439-2.337-2.736-2.337-5.847 0-1.278.116-1.884.202-2.476.74.875 1.018 2.372 1.06 2.845.316-.253.459-.56.549-.846.6.734 1.293 1.748 1.45 2.095-.582 0-1.274-.135-1.493-.135-.58 0-.718.327-.718.616 0 .437.445.833.752 1.114.27-.587 1.4-.497 1.4-.497.218 0 .334 0 .619.039a3.16 3.16 0 0 0-.027.527l.003.607c0 .702-.026 1.074-.542 1.55.093.065.361.279.751.279.795 0 .909-.576.909-1.827 0-.15.004-.137-.007-.267.397.433.866 1.053.866 1.583 0 .095.005.224-.034.364.627 0 1.103-.65 1.103-1.082 0-.653-1.005-1.465-1.327-1.823l.11-.005c1.098 0 1.32.368 1.43.644.293-.24.546-.669.546-1.208 0-.31-.067-.658-.661-.658-.568 0-1.435.084-2.03.192-.458-.641-1.363-1.878-1.785-2.836.17.03.414.05.787.05.19 0 .392-.018.509-.07-1.82-1.575-3.338-3.615-3.338-5.926 0-.371.089-.74.214-1.139.044-.01.09-.017.138-.024l4.595 7.353c1.375 2.174 2.454 2.138 4.08 2.138-1.34-1.027-2.239-2.353-2.66-3.025l-4.312-6.9c.234-.074.463-.157.688-.243l3.815 6.107c1.377 2.175 2.455 2.136 4.082 2.136-1.354-1.04-2.233-2.342-2.66-3.025l-3.705-5.928c.21-.116.415-.238.614-.364l3.037 4.859c1.376 2.176 2.453 2.137 4.08 2.137-1.354-1.037-2.233-2.343-2.66-3.024l-3.114-4.985c.183-.164.357-.336.52-.512l2.207 3.533c1.377 2.175 2.455 2.137 4.081 2.137-1.352-1.038-2.234-2.347-2.661-3.027l-2.564-4.101c.139-.256.256-.517.353-.784l1.287 2.062zM7.51 6.02c0-1.533 1.114-2.744 1.507-3.085.094.022.188.044.282.064-.418.508-1.153 1.362-1.153 2.491 0 2.242 2.395 4.189 5.108 4.189a6.657 6.657 0 0 0-.027.6c0 .333.019.64.051.93-3.067-.018-5.768-2.508-5.768-5.19zm4.157 18.38l-.018.052h.054c.86 0 1.28-.062 1.558-.102.145-.018.25-.034.363-.034.222 0 .392.02.392.295 0 .184-.215.476-.425.645-.317-.3-.756-.359-1.402-.359a7.29 7.29 0 0 0-.907.085l-.034.004-.037.005.012.101c.025.179.056.4.056.7l-.004.272-.004.337c0 .732.101 1.148.357 1.464a.827.827 0 0 1-.242.045c-.455 0-.587-.2-.587-1.507 0-.264-.013-.51-.022-.674l-.014-.243-.058.044c-.674.515-1.37 1.435-1.411 2.121-.203-.13-.424-.424-.424-.65 0-.375.565-.938 1.217-1.592l.376-.375.047-.048-.122-.031a2.714 2.714 0 0 0-.624-.102c-.732 0-1.19.138-1.473.446-.102-.147-.187-.49-.187-.69 0-.13.026-.221.077-.274.064-.062.164-.062.251-.062h.019c.807 0 1.772.146 2.148.206l.022.005.014-.018c.065-.088 1.604-2.138 2.003-3.224a.812.812 0 0 1 .332-.06c.304 0 .389.204.475.517-.961 1.168-1.56 2.077-1.778 2.7zm8.299-3.218a.82.82 0 0 1 .333.06c.4 1.086 1.939 3.136 2.002 3.224l.015.018.023-.005c.376-.06 1.341-.206 2.148-.206h.019c.087 0 .186 0 .25.062.052.053.078.144.078.274 0 .2-.085.543-.187.69-.283-.308-.741-.446-1.475-.446-.22 0-.481.066-.622.102l-.058.013-.066.018.423.423c.654.654 1.218 1.217 1.218 1.592 0 .226-.22.52-.423.65-.043-.686-.737-1.606-1.413-2.12l-.058-.044-.01.242c-.01.164-.025.41-.025.674 0 1.308-.133 1.507-.586 1.507a.827.827 0 0 1-.242-.045c.256-.316.356-.732.356-1.464l-.004-.337-.004-.272c0-.3.031-.521.056-.7l.013-.1-.071-.01a7.254 7.254 0 0 0-.908-.085c-.646 0-1.084.06-1.402.359-.21-.17-.425-.461-.425-.645 0-.274.17-.295.393-.295.113 0 .218.016.363.034.278.04.696.102 1.558.102h.052l-.016-.052c-.218-.624-.817-1.533-1.778-2.7.086-.314.17-.518.473-.518zm-3.562-17.88a2.833 2.833 0 0 0-.56-1.115c-.236-.278-.627-.61-1.154-.61-.24 0-.644.113-.9.22-.098-.173-.285-.594-.285-.785 0-.195.331-.392.962-.392 1.386 0 2.215.627 2.215 1.679 0 .368-.147.705-.278 1.003zm.622-1.368a1.829 1.829 0 0 0-.335-.795c.008-.272.12-.531.558-.318-.236.242-.054.67-.054.67s.483-.225.384-.543c.717.172.201 1.136-.553.986zm2.7 9.276c.036-.301.057-.612.057-.93 0-.172.002-.374-.02-.603 2.68-.037 5.029-1.968 5.029-4.187 0-1.13-.737-1.983-1.153-2.491.094-.02.188-.042.282-.064.392.341 1.507 1.552 1.507 3.085 0 2.663-2.662 5.135-5.703 5.19zM61.38 6.432c0 1.155-.04 2.011-.12 2.568-.153 1.052-.467 1.807-.943 2.264-.577.556-1.458.834-2.643.834h-2.688V1.116h2.688c1.084 0 1.91.212 2.476.638.507.374.846.926 1.018 1.655.142.608.212 1.616.212 3.023zm-1.35.123c0-1.014-.026-1.728-.077-2.143-.121-.952-.395-1.58-.82-1.883-.344-.264-.851-.396-1.52-.396h-1.335v8.933h1.502c.548 0 .988-.128 1.322-.38.426-.314.704-.952.836-1.915.06-.455.091-1.195.091-2.216zm3.416-3.981h1.322V1.268h-1.322v1.306zm.061 9.524h1.2V4.443h-1.2v7.655zm8.4-3.66h-4.01v.516c0 .78.072 1.342.213 1.686.203.496.598.745 1.185.745.88 0 1.342-.562 1.382-1.686h1.185c-.07 1.7-.927 2.551-2.567 2.551-1.063 0-1.793-.359-2.188-1.078-.293-.538-.44-1.403-.44-2.598 0-1.357.127-2.329.38-2.916.395-.922 1.174-1.383 2.338-1.383 1.095 0 1.823.406 2.189 1.216.222.506.333 1.371.333 2.597v.35zm-1.215-.821c0-.738-.051-1.26-.152-1.564-.181-.607-.571-.911-1.17-.911-.83 0-1.3.496-1.412 1.488-.04.344-.06.673-.06.987h2.794zm-9.736 17.605c0 1.113-.279 1.904-.837 2.369-.505.426-1.321.639-2.445.639h-2.688V17.247h2.917c.981 0 1.703.212 2.164.638.461.425.691 1.13.691 2.11 0 .69-.117 1.216-.35 1.582-.243.414-.673.719-1.29.911.708.172 1.199.49 1.473.957.244.405.365.998.365 1.777zm-1.49-5.15c0-.678-.167-1.154-.5-1.427-.294-.243-.77-.364-1.429-.364h-1.276v3.751h1.353c1.235 0 1.852-.653 1.852-1.96zm.168 5.089c0-.718-.154-1.253-.464-1.603-.309-.35-.817-.524-1.525-.524H56.26v4.163h1.17c.77 0 1.317-.128 1.641-.38.374-.293.562-.846.562-1.656zm8.521 3.069h-1.2l-.015-.972c-.465.728-1.109 1.092-1.929 1.092-1.367 0-2.051-.783-2.051-2.353v-5.423h1.2v4.89c0 .63.051 1.074.152 1.338.172.435.527.653 1.064.653 1.002 0 1.504-.745 1.504-2.233v-4.648h1.215v5.97c0 .597.02 1.159.06 1.686m7.337 0h-1.2v-4.892c0-.658-.046-1.11-.136-1.351-.173-.447-.521-.67-1.048-.67-.516 0-.917.254-1.2.761-.233.434-.35.952-.35 1.549v4.603h-1.2v-5.985c0-.679-.02-1.236-.061-1.671h1.185v1.048c.425-.81 1.09-1.216 1.99-1.216 1.347 0 2.02.796 2.02 2.386v5.438m7.306 0H81.63l-.015-.881c-.435.668-1.032 1.001-1.792 1.001-.982 0-1.656-.44-2.02-1.32-.234-.588-.35-1.5-.35-2.735 0-1.164.136-2.045.41-2.643.365-.83 1.007-1.246 1.93-1.246.768 0 1.346.3 1.73.897v-4.056h1.216v9.539c0 .274.02.755.06 1.444zm-1.23-3.752c0-1.043-.075-1.788-.228-2.233-.212-.639-.622-.957-1.23-.957-.597 0-1.003.334-1.215 1.003-.141.435-.213 1.113-.213 2.035 0 1.003.081 1.737.244 2.202.212.627.592.942 1.138.942.648 0 1.08-.319 1.292-.957.141-.415.212-1.093.212-2.035zm8.37.092h-4.01v.515c0 .78.071 1.342.212 1.686.203.496.599.745 1.186.745.88 0 1.342-.562 1.382-1.686h1.184c-.07 1.7-.926 2.551-2.566 2.551-1.063 0-1.793-.359-2.187-1.078-.295-.537-.441-1.403-.441-2.598 0-1.357.126-2.328.379-2.916.395-.922 1.175-1.383 2.34-1.383 1.093 0 1.822.406 2.187 1.216.222.506.334 1.372.334 2.598v.35zm-1.215-.822c0-.738-.05-1.26-.152-1.564-.182-.607-.572-.911-1.17-.911-.83 0-1.301.496-1.413 1.488-.04.344-.06.674-.06.987h2.795zm7.367 2.386c0 1.488-.8 2.233-2.4 2.233-1.569 0-2.34-.826-2.308-2.477h1.199c0 .152.005.294.016.425.071.8.445 1.2 1.124 1.2.769 0 1.154-.395 1.154-1.184 0-.426-.122-.76-.364-1.002-.152-.163-.492-.386-1.019-.669-.718-.385-1.173-.669-1.366-.85-.385-.355-.578-.826-.578-1.413 0-.659.218-1.16.654-1.504.404-.324.946-.487 1.625-.487.79 0 1.352.185 1.686.555.334.37.512.94.532 1.709h-1.2c0-.952-.36-1.428-1.079-1.428-.314 0-.562.097-.744.289-.182.192-.273.445-.273.76 0 .344.146.637.44.88.153.143.511.364 1.079.668.617.335 1.043.619 1.275.851.365.385.548.866.548 1.444m4.998-4.557a1.879 1.879 0 0 0-.26-.031c-.577 0-1.01.177-1.298.532-.288.354-.433.826-.433 1.412v4.74h-1.216v-6.26c0-.516-.014-.98-.045-1.396h1.185v1.003c.416-.77 1.064-1.155 1.944-1.155.08 0 .123.384.123 1.155m6.197 2.993h-4.01v.515c0 .78.07 1.342.212 1.686.203.496.597.745 1.184.745.882 0 1.343-.562 1.384-1.686h1.184c-.071 1.7-.926 2.551-2.568 2.551-1.063 0-1.792-.359-2.187-1.078-.293-.537-.44-1.403-.44-2.598 0-1.357.127-2.328.38-2.916.395-.922 1.175-1.383 2.339-1.383 1.094 0 1.823.406 2.187 1.216.223.506.335 1.372.335 2.598v.35zm-1.216-.822c0-.738-.05-1.26-.152-1.564-.182-.607-.572-.911-1.169-.911-.83 0-1.301.496-1.413 1.488-.04.344-.06.674-.06.987h2.794zm8.188-3.174c0 .112-.008.31-.023.6a12.62 12.62 0 0 0-.022.676v6.698c0 .932-.218 1.61-.654 2.037-.435.424-1.129.637-2.08.637-1.58 0-2.381-.74-2.402-2.218h1.276c0 .931.395 1.398 1.186 1.398.617 0 1.028-.223 1.23-.668.142-.295.212-.78.212-1.459v-1.034c-.425.599-1.017.897-1.777.897-.952 0-1.605-.4-1.958-1.199-.234-.527-.35-1.347-.35-2.461 0-1.236.126-2.158.38-2.765.363-.872 1.013-1.307 1.944-1.307.85 0 1.463.355 1.838 1.063v-.895h1.2zm-1.246 3.585c0-.862-.071-1.499-.212-1.914-.223-.628-.639-.942-1.246-.942-.628 0-1.044.354-1.245 1.063-.123.426-.183 1.129-.183 2.112 0 .88.06 1.508.183 1.883.192.628.582.942 1.17.942.688 0 1.143-.38 1.366-1.14.112-.395.167-1.063.167-2.004zm3.388-5.454h1.321V17.4H116.4v1.306zm.06 9.525h1.2v-7.656h-1.2v7.656zm8.4-3.66h-4.01v.515c0 .78.07 1.342.213 1.686.203.496.598.745 1.184.745.882 0 1.343-.562 1.383-1.686h1.185c-.071 1.7-.926 2.551-2.568 2.551-1.063 0-1.792-.359-2.187-1.078-.293-.537-.44-1.403-.44-2.598 0-1.357.127-2.328.38-2.916.395-.922 1.174-1.383 2.339-1.383 1.094 0 1.822.406 2.187 1.216.223.506.334 1.372.334 2.598v.35zm-1.215-.822c0-.738-.05-1.26-.152-1.564-.182-.607-.572-.911-1.17-.911-.83 0-1.3.496-1.412 1.488-.04.344-.06.674-.06.987h2.794zm6.32-2.171a1.89 1.89 0 0 0-.258-.031c-.579 0-1.011.177-1.299.532-.289.354-.433.826-.433 1.412v4.74h-1.215v-6.26c0-.516-.016-.98-.046-1.396h1.184v1.003c.416-.77 1.064-1.155 1.944-1.155.082 0 .123.384.123 1.155m6.638 6.653h-1.2l-.016-.972c-.466.728-1.109 1.092-1.929 1.092-1.367 0-2.051-.783-2.051-2.353v-5.423h1.2v4.89c0 .63.052 1.074.152 1.338.172.435.527.653 1.064.653 1.002 0 1.504-.745 1.504-2.233v-4.648h1.215v5.97c0 .597.02 1.159.06 1.686m7.338 0h-1.2v-4.892c0-.658-.047-1.11-.138-1.351-.172-.447-.522-.67-1.047-.67-.516 0-.917.254-1.2.761-.233.434-.35.952-.35 1.549v4.603h-1.2v-5.985c0-.679-.02-1.236-.061-1.671h1.186v1.048c.424-.81 1.087-1.216 1.99-1.216 1.346 0 2.02.796 2.02 2.386v5.438m7.32-7.656c0 .112-.006.31-.022.6-.015.288-.022.513-.022.676v6.698c0 .932-.219 1.61-.653 2.037-.436.424-1.13.637-2.083.637-1.579 0-2.379-.74-2.399-2.218h1.276c0 .931.395 1.398 1.185 1.398.617 0 1.027-.223 1.23-.668.141-.295.213-.78.213-1.459v-1.034c-.425.599-1.018.897-1.777.897-.952 0-1.605-.4-1.96-1.199-.233-.527-.348-1.347-.348-2.461 0-1.236.126-2.158.379-2.765.364-.872 1.012-1.307 1.943-1.307.851 0 1.464.355 1.84 1.063v-.895h1.198zm-1.244 3.585c0-.862-.072-1.499-.213-1.914-.223-.628-.638-.942-1.246-.942-.628 0-1.043.354-1.246 1.063-.121.426-.181 1.129-.181 2.112 0 .88.06 1.508.181 1.883.194.628.583.942 1.17.942.69 0 1.145-.38 1.368-1.14.11-.395.167-1.063.167-2.004z"/>
</svg>