<?xml version="1.0" encoding="utf-8"?>
<!-- Generator: Adobe Illustrator 15.0.0, SVG Export Plug-In . SVG Version: 6.00 Build 0)  -->
<!DOCTYPE svg PUBLIC "-//W3C//DTD SVG 1.0//EN" "http://www.w3.org/TR/2001/REC-SVG-20010904/DTD/svg10.dtd">
<svg version="1.0" id="Ebene_1" xmlns="http://www.w3.org/2000/svg" xmlns:xlink="http://www.w3.org/1999/xlink" x="0px" y="0px"
	 viewBox="0 0 1188 244.229" enable-background="new 0 0 1188 244.229" xml:space="preserve">
<polygon points="930.282,215.073 930.282,243.792 925.865,243.792 925.865,215.073 916.545,215.073 916.545,211.373 
	939.646,211.373 939.646,215.073 "/>
<polygon points="891.824,215.023 891.824,225.592 904.791,225.592 904.791,229.146 891.824,229.146 891.824,243.792 
	887.406,243.792 887.406,211.373 905.61,211.373 905.61,215.023 "/>
<path d="M868.502,243.792l-2.646-7.729h-13.779l-2.693,7.729h-4.516l11.624-32.419h5.377l11.577,32.419H868.502z M860.385,220.116
	c-0.529-1.583-0.961-3.122-1.395-4.563h-0.045c-0.385,1.441-0.868,2.98-1.347,4.516l-4.421,12.486h11.624L860.385,220.116z"/>
<polygon points="826.112,243.792 826.112,228.857 809.59,228.857 809.59,243.792 805.17,243.792 805.17,211.373 809.59,211.373 
	809.59,225.109 826.112,225.109 826.112,211.373 830.529,211.373 830.529,243.792 "/>
<path d="M787.466,242.881c-2.642,0.771-5.619,1.297-8.788,1.297c-10.135,0-14.505-6.531-14.505-15.847
	c0-9.847,4.943-17.243,15.604-17.243c2.501,0,5.093,0.385,7.303,1.105v4.371c-2.595-1.105-5.283-1.684-7.875-1.684
	c-7.207,0-10.28,5.764-10.28,12.967c0,7.877,3.509,12.394,10.567,12.394c2.4,0,5.477-0.53,7.973-1.296v3.936H787.466z"/>
<path d="M745.169,215.459c-1.731-0.482-3.985-0.865-5.86-0.865c-4.322,0-6.58,1.824-6.58,4.852c0,7.105,14.938,4.608,14.938,15.32
	c0,5.426-4.086,9.463-11.674,9.463c-2.64,0-5.278-0.342-7.296-0.869v-4.322c2.062,0.82,4.943,1.396,7.538,1.396
	c3.938,0,6.818-1.537,6.818-5.334c0-7.486-14.84-4.852-14.84-15.317c0-5.188,4.18-8.839,11.387-8.839c1.87,0,3.84,0.192,5.568,0.529
	L745.169,215.459L745.169,215.459z"/>
<polygon points="696.147,243.792 696.147,211.373 700.566,211.373 700.566,240.047 713.533,240.047 713.533,243.792 "/>
<polygon points="662.448,243.792 662.448,211.373 666.865,211.373 666.865,240.047 679.836,240.047 679.836,243.792 "/>
<polygon points="624.427,243.792 624.427,211.373 642.772,211.373 642.772,215.023 628.846,215.023 628.846,225.302 
	641.619,225.302 641.619,228.857 628.846,228.857 628.846,240.095 642.964,240.095 642.964,243.792 "/>
<path d="M602.78,215.459c-1.726-0.482-3.984-0.865-5.857-0.865c-4.321,0-6.579,1.824-6.579,4.852c0,7.105,14.938,4.608,14.938,15.32
	c0,5.426-4.082,9.463-11.668,9.463c-2.642,0-5.285-0.342-7.299-0.869v-4.322c2.064,0.82,4.946,1.396,7.538,1.396
	c3.939,0,6.82-1.537,6.82-5.334c0-7.486-14.839-4.852-14.839-15.317c0-5.188,4.178-8.839,11.382-8.839
	c1.872,0,3.844,0.192,5.567,0.529v3.986H602.78z"/>
<polygon points="548.482,243.792 548.482,211.373 566.828,211.373 566.828,215.023 552.898,215.023 552.898,225.302 
	565.676,225.302 565.676,228.857 552.898,228.857 552.898,240.095 567.02,240.095 567.02,243.792 "/>
<path d="M527.272,242.354c-3.217,1.198-7.157,1.875-10.709,1.875c-10.135,0-16.09-6.104-16.09-15.996
	c0-10.035,5.956-17.289,17.433-17.289c2.789,0,5.766,0.479,8.264,1.149v4.325c-2.741-1.104-5.91-1.682-8.693-1.682
	c-8.741,0-12.295,6.147-12.295,12.871c0,8.068,4.467,12.774,12.005,12.774c2.161,0,3.986-0.338,5.718-0.864V227.27h4.369
	L527.272,242.354L527.272,242.354z"/>
<path d="M478.017,243.792l-12.007-19.019c-2.304-3.65-3.215-5.33-4.227-7.444h-0.095c0.191,3.649,0.43,11.624,0.43,17.386v9.077
	h-4.321v-32.419h5.042l11.335,17.865c2.066,3.267,3.506,5.812,4.419,7.736h0.096c-0.241-4.181-0.431-11.433-0.431-17.437v-8.166
	h4.321v32.419L478.017,243.792L478.017,243.792z"/>
<polygon points="419.197,243.792 419.197,211.373 437.544,211.373 437.544,215.023 423.616,215.023 423.616,225.302 
	436.392,225.302 436.392,228.857 423.616,228.857 423.616,240.095 437.735,240.095 437.735,243.792 "/>
<polygon points="391.98,243.792 391.98,231.904 391.98,211.373 396.399,211.373 396.399,243.792 "/>
<polygon points="365.726,215.073 365.726,243.792 361.304,243.792 361.304,215.073 351.986,215.073 351.986,211.373 
	375.089,211.373 375.089,215.073 "/>
<polygon points="335.866,243.792 322.37,227.753 322.37,243.792 317.952,243.792 317.952,211.373 322.37,211.373 322.37,226.646 
	335.388,211.373 340.718,211.373 327.126,226.893 341.534,243.792 "/>
<path d="M297.991,243.792l-2.642-7.729h-13.782l-2.688,7.729h-4.513l11.619-32.419h5.378l11.576,32.419H297.991z M289.878,220.116
	c-0.53-1.583-0.962-3.122-1.396-4.563h-0.047c-0.383,1.441-0.862,2.98-1.344,4.516l-4.417,12.486h11.619L289.878,220.116z"/>
<path fill="#4C5356" d="M1163.397,122.88l-38.071-61.264c-6.817-10.926-10.593-18.091-14.178-26.151h-0.359
	c0.892,12.18,1.796,34.927,1.796,54.449v32.965h-22.625V1.968h26.571l35.733,57.32c6.286,9.851,11.133,18.986,14.536,26.51h0.366
	c-0.896-13.253-1.798-34.569-1.798-54.451V1.968H1188V122.88H1163.397z"/>
<polygon fill="#4C5356" points="984.755,122.88 984.755,1.968 1057.83,1.968 1057.83,21.492 1008.092,21.492 1008.092,51.409 
	1053.875,51.409 1053.875,70.036 1008.092,70.036 1008.092,102.817 1058.37,102.817 1058.37,122.88 "/>
<path fill="#4C5356" d="M948.859,117.146c-12.037,4.832-26.938,7.522-41.478,7.522c-39.863,0-61.229-23.644-61.229-59.648
	c0-38.329,23.52-64.841,67.329-64.841c10.234,0,21.551,1.612,30.524,4.119v22.749c-9.88-4.119-21.547-6.09-31.961-6.09
	c-28.73,0-40.579,18.987-40.579,41.555c0,25.436,13.462,41.197,38.604,41.197c5.747,0,10.771-0.713,15.441-2.144V59.468h23.345
	v57.678H948.859z"/>
<path fill="#4C5356" d="M807.196,122.88l-8.264-25.793h-45.603l-8.435,25.793h-23.525L761.952,1.968h30.341L833.05,122.88H807.196z
	 M781.161,40.84c-1.977-6.27-3.594-12.36-4.85-18.091h-0.362c-1.257,5.731-2.873,12.001-4.667,17.91l-12.562,37.977h35.01
	L781.161,40.84z"/>
<path fill="#4C5356" d="M685.835,122.88h-28.907l-18.494-66.099c-1.615-6.447-3.051-14.688-3.951-22.032h-0.359
	c-1.077,7.702-2.152,15.585-3.771,22.032L612.22,122.88h-29.087L552.788,1.968h24.957l16.157,66.096
	c2.333,11.283,3.95,20.959,5.208,30.096h0.359c1.258-9.137,3.053-19.167,5.746-29.737l18.312-66.455h23.344l18.853,67.173
	c2.515,8.955,4.849,19.343,6.283,29.019h0.36c1.256-9.316,2.691-19.167,4.669-28.66L693.02,1.968h22.982L685.835,122.88z"/>
<path fill="#4C5356" d="M528.556,22.75c-6.643-1.972-15.261-3.403-22.444-3.403c-13.286,0-20.11,5.373-20.11,13.969
	c0,22.037,52.61,14.334,52.61,54.098c0,21.674-16.519,37.436-46.144,37.436c-10.057,0-20.291-1.256-28.191-3.4V99.233
	c7.9,3.045,19.396,5.377,29.087,5.377c11.854,0,20.291-4.478,20.291-15.048c0-23.288-51.891-14.691-51.891-54.095
	c0-20.957,16.878-35.466,45.786-35.466c6.643,0,14.542,0.895,21.005,2.148L528.556,22.75L528.556,22.75z"/>
<polygon fill="#4C5356" points="419.4,122.88 377.024,64.84 377.024,122.88 353.684,122.88 353.684,1.968 377.024,1.968 
	377.024,56.781 417.963,1.968 445.614,1.968 400.906,59.645 448.489,122.88 "/>
<polygon fill="#4C5356" points="263.736,122.88 263.736,1.968 287.08,1.968 287.08,102.637 331.247,102.637 331.247,122.88 "/>
<path fill="#4C5356" d="M177.922,124.848c-36.45,0-55.66-22.211-55.66-60.186C122.262,22.75,149.554,0,181.693,0
	c36.449,0,55.662,22.21,55.662,60.183C237.357,102.097,210.062,124.848,177.922,124.848z M179.718,20.957
	c-19.031,0-32.498,14.331-32.498,40.839c0,25.974,10.775,42.092,32.498,42.092c19.032,0,32.678-14.328,32.678-41.018
	C212.396,37.079,201.624,20.957,179.718,20.957z"/>
<path fill="#4C5356" d="M71.102,122.88H40.758L0,1.968h25.854l23.343,72.366c2.333,8.06,5.208,18.451,7.182,26.87h0.357
	c1.978-8.242,4.67-18.451,7.363-27.225L87.62,1.968h24.062L71.102,122.88z"/>
</svg>
